<svg width="94" height="130" viewBox="0 0 94 130" fill="none" xmlns="http://www.w3.org/2000/svg">
<path d="M90.7405 53.6115L0.578613 1.83533V77.4166L90.7405 129.49V53.6115Z" fill="url(#paint0_linear_14_728)"/>
<path d="M93.7161 52.1236L3.5542 0.347488V75.9288L93.7161 128.002V52.1236Z" fill="url(#paint1_linear_14_728)"/>
<g clip-path="url(#clip0_14_728)" filter="url(#filter0_d_14_728)">
<path d="M9.73757 36.4456L6.97772 42.5718L13.4787 38.5495L41.3225 54.8243C43.4078 56.0619 45.125 55.3193 45.125 53.2154V37.3119C45.125 35.208 43.4078 32.4852 41.3225 31.2476L9.73757 12.8689C7.65235 11.6313 5.93511 12.3738 5.93511 14.4778V30.3812C5.93511 32.4852 7.65235 35.208 9.73757 36.4456Z" fill="#0E92CF"/>
<path d="M10.78 19.1189L40.2798 36.3218V34.5891L10.78 17.3862V19.1189Z" fill="white"/>
<path d="M10.78 23.76L40.2798 40.9629V39.2302L10.78 22.0892V23.76Z" fill="white"/>
<path d="M24.3953 36.3837L40.2798 45.604V43.9332L24.3953 34.651V36.3837Z" fill="white"/>
<path d="M16.7291 36.5693L40.2798 50.3069V48.5743L16.7291 34.8367V36.5693Z" fill="white"/>
<path d="M58.5562 66.7054L76.2806 77.0396L81.0643 86.5074L80.5123 79.453L82.6589 80.6906C84.6214 81.8663 86.2773 81.1856 86.2773 79.1435V64.1064C86.2773 62.1262 84.6828 59.5272 82.6589 58.3515L58.5562 44.3045C56.5936 43.1287 54.9377 43.8094 54.9377 45.8515V60.8886C54.999 62.9307 56.5936 65.5297 58.5562 66.7054Z" fill="#D4EEFF"/>
<path d="M68.5531 55.505L81.6777 63.1782V61.5693L68.5531 53.8961V55.505Z" fill="#D4EEFF"/>
<path d="M59.5989 59.0941L81.6777 71.9653V70.3564L59.5989 57.4852V59.0941Z" fill="#D4EEFF"/>
<path d="M59.5989 63.5495L81.6777 76.4208V74.75L59.5989 61.8787V63.5495Z" fill="#D4EEFF"/>
<path d="M58.5562 66.7054L76.2806 77.0396L81.0643 86.5074L80.5123 79.453L82.6589 80.6906C84.6214 81.8663 86.2773 81.1856 86.2773 79.1435V64.1064C86.2773 62.1262 84.6828 59.5272 82.6589 58.3515L58.5562 44.3045C56.5936 43.1287 54.9377 43.8094 54.9377 45.8515V60.8886C54.999 62.9307 56.5936 65.5297 58.5562 66.7054Z" fill="#ED343B"/>
<path d="M68.5531 55.505L81.6777 63.1782V61.5693L68.5531 53.8961V55.505Z" fill="white"/>
<path d="M59.5989 59.0941L81.6777 71.9653V70.3564L59.5989 57.4852V59.0941Z" fill="white"/>
<path d="M59.5989 63.5495L81.6777 76.4208V74.75L59.5989 61.8787V63.5495Z" fill="white"/>
<path d="M22.8009 80.6287L22.0036 85.2698L26.174 82.547L40.7706 91.0866C43.0398 92.3861 44.8184 91.6435 44.8184 89.3539V72.3985C44.8184 70.1089 42.9785 67.2624 40.7706 65.901L22.7396 55.4431C20.4703 54.1436 18.6918 54.8861 18.6918 57.1757V74.1312C18.7531 76.4208 20.5317 79.2673 22.8009 80.6287Z" fill="white"/>
<path d="M23.9047 62.1262L39.6665 71.2846V69.4282L23.9047 60.2698V62.1262Z" fill="#1A1A1A"/>
<path d="M23.9047 67.0767L39.6665 76.297V74.4406L23.9047 65.2822V67.0767Z" fill="#1A1A1A"/>
<path d="M23.9047 72.0891L39.6665 81.2475V79.3911L23.9047 70.2327V72.0891Z" fill="#1A1A1A"/>
<path d="M23.9047 77.0396L39.6665 86.198V84.4034L23.9047 75.1832V77.0396Z" fill="#1A1A1A"/>
<path d="M57.0948 101.332C52.5138 95.1864 51.5871 88.0894 55.025 85.4805C58.4629 82.8715 64.9636 85.7384 69.5446 91.8839C74.1257 98.0295 75.0524 105.126 71.6145 107.735C68.1765 110.344 61.6759 107.477 57.0948 101.332Z" fill="#FBB03B"/>
</g>
<defs>
<filter id="filter0_d_14_728" x="1.93506" y="12.2501" width="88.3423" height="104.411" filterUnits="userSpaceOnUse" color-interpolation-filters="sRGB">
<feFlood flood-opacity="0" result="BackgroundImageFix"/>
<feColorMatrix in="SourceAlpha" type="matrix" values="0 0 0 0 0 0 0 0 0 0 0 0 0 0 0 0 0 0 127 0" result="hardAlpha"/>
<feOffset dy="4"/>
<feGaussianBlur stdDeviation="2"/>
<feComposite in2="hardAlpha" operator="out"/>
<feColorMatrix type="matrix" values="0 0 0 0 0 0 0 0 0 0 0 0 0 0 0 0 0 0 0.25 0"/>
<feBlend mode="normal" in2="BackgroundImageFix" result="effect1_dropShadow_14_728"/>
<feBlend mode="normal" in="SourceGraphic" in2="effect1_dropShadow_14_728" result="shape"/>
</filter>
<linearGradient id="paint0_linear_14_728" x1="-3.58726" y1="-20.1844" x2="119.604" y2="154.486" gradientUnits="userSpaceOnUse">
<stop stop-color="#E0FFD9"/>
<stop offset="1" stop-color="#9E00FF" stop-opacity="0"/>
</linearGradient>
<linearGradient id="paint1_linear_14_728" x1="-0.611674" y1="-21.6723" x2="122.58" y2="152.998" gradientUnits="userSpaceOnUse">
<stop stop-color="#E0FFD9"/>
<stop offset="1" stop-color="#9E00FF" stop-opacity="0"/>
</linearGradient>
<clipPath id="clip0_14_728">
<rect width="80.3423" height="96.4108" fill="white" transform="matrix(-1 0 0 1 86.2773 12.2501)"/>
</clipPath>
</defs>
</svg>
