<svg width="506" height="531" viewBox="0 0 506 531" fill="none" xmlns="http://www.w3.org/2000/svg">
<g clip-path="url(#clip0_168_2)">
<path d="M368.48 420.534L370.811 410.989L350.969 406.143C347.947 402.034 344.476 397.927 340.215 393.852C302.71 357.833 231.784 340.512 181.793 355.163C176.238 356.841 171.16 358.86 166.583 361.113L146.741 356.268L144.384 365.919C140.317 382.57 147.228 401.902 165.993 419.858C203.498 455.877 274.424 473.198 324.415 458.547C349.476 451.182 364.414 437.185 368.48 420.534Z" fill="url(#paint0_linear_168_2)"/>
<path d="M368.48 420.534L370.811 410.989L350.969 406.143C347.947 402.034 344.476 397.927 340.215 393.852C302.71 357.833 231.784 340.512 181.793 355.163C176.238 356.841 171.16 358.86 166.583 361.113L146.741 356.268L144.384 365.919C140.317 382.57 147.228 401.902 165.993 419.858C203.498 455.877 274.424 473.198 324.415 458.547C349.476 451.182 364.414 437.185 368.48 420.534Z" fill="url(#paint1_linear_168_2)"/>
<path d="M182.954 355.446C177.399 357.124 172.321 359.143 167.744 361.397L166.583 361.113C171.16 358.86 176.133 356.815 181.793 355.163C206.959 347.823 237.327 348.496 266.22 355.665C237.723 348.705 207.778 348.135 182.954 355.446Z" fill="#6DE0F6"/>
<path d="M147.902 356.551L145.545 366.203C141.478 382.854 148.388 402.185 167.154 420.142C185.814 438.072 212.651 451.37 241.148 458.329C212.309 451.398 184.944 437.972 165.993 419.858C147.253 401.796 140.317 382.57 144.384 365.919L146.741 356.268L147.902 356.551Z" fill="#F21CB1"/>
<path d="M242.952 448.655C181.106 433.551 138.078 392.2 146.847 356.293C155.616 320.387 212.861 303.524 274.707 318.628C336.553 333.731 379.581 375.083 370.812 410.989C362.043 446.895 304.799 463.759 242.952 448.655Z" fill="url(#paint2_linear_168_2)"/>
<path d="M190.912 318.28C215.973 310.915 246.552 311.64 275.34 318.782C246.922 311.955 216.977 311.385 192.178 318.59C142.293 333.267 132.243 374.417 169.748 410.436C188.408 428.367 215.166 441.532 243.637 448.597C214.692 441.641 187.327 428.215 168.376 410.101C130.845 374.188 140.895 333.038 190.912 318.28Z" fill="#F21CB1"/>
<path d="M369.651 410.705L367.294 420.357C363.227 437.008 348.184 450.978 323.254 458.264C298.43 465.575 268.484 465.005 239.987 458.045C268.775 465.188 299.248 465.887 324.415 458.547C349.371 451.156 364.414 437.185 368.455 420.64L370.812 410.989L369.651 410.705Z" fill="#6DE0F6"/>
<path d="M349.229 356.944C330.278 338.83 302.913 325.404 273.968 318.447C302.439 325.513 329.171 338.784 347.856 356.609C385.336 392.733 375.286 433.884 325.4 448.561C300.576 455.872 270.762 455.222 242.239 448.368C271.132 455.537 301.606 456.236 326.772 448.896C376.764 434.245 386.813 393.094 349.229 356.944Z" fill="#6DE0F6"/>
<path d="M301.708 425.131C269.776 434.527 224.498 423.47 200.491 400.412C189.269 389.58 184.58 378.096 186.276 367.946C188.129 357.609 198.496 347.217 215.37 342.235C247.302 332.838 290.998 343.509 315.004 366.567C327.788 378.792 332.958 391.967 329.237 403.083C325.984 412.741 316.635 420.797 301.708 425.131Z" fill="#6DE0F6"/>
<path d="M245.837 371.815C255.103 369.133 267.768 372.226 274.756 378.877C278.461 382.479 280.006 386.228 278.887 389.439C277.976 392.251 275.166 394.599 270.928 395.924C261.662 398.606 248.469 395.384 241.481 388.732C238.226 385.577 236.814 382.198 237.408 379.309C237.922 376.288 240.888 373.303 245.837 371.815ZM242.903 388.405C249.229 394.558 261.367 397.522 269.817 394.978C273.792 393.814 276.208 391.706 277.172 389.132C278.214 386.24 276.723 382.729 273.387 379.442C267.061 373.289 255.346 370.428 246.896 372.972C242.421 374.352 239.639 377.044 239.176 379.853C238.66 382.424 239.912 385.54 242.903 388.405Z" fill="#18D0F7"/>
<path d="M245.837 371.815C255.103 369.133 267.768 372.226 274.756 378.877C278.461 382.479 280.006 386.228 278.887 389.439C277.976 392.251 275.166 394.599 270.928 395.924C261.662 398.606 248.469 395.384 241.481 388.732C238.226 385.577 236.814 382.198 237.408 379.309C237.922 376.288 240.888 373.303 245.837 371.815ZM242.903 388.405C249.229 394.558 261.367 397.522 269.817 394.978C273.792 393.814 276.208 391.706 277.172 389.132C278.214 386.24 276.723 382.729 273.387 379.442C267.061 373.289 255.346 370.428 246.896 372.972C242.421 374.352 239.639 377.044 239.176 379.853C238.66 382.424 239.912 385.54 242.903 388.405Z" fill="#18D0F7"/>
<path d="M314.996 370.723C290.989 347.666 245.711 336.608 213.779 346.004C198.852 350.338 189.609 358.42 186.224 368.158C188.046 356.578 199.629 347.157 216.609 342.2C248.567 332.698 291.605 343.77 315.611 366.828C328.369 379.159 332.958 391.967 329.237 403.083C330.827 392.908 326.244 381.449 314.996 370.723Z" fill="#18D0F7"/>
<path d="M315.54 368.496C291.533 345.438 246.255 334.381 214.323 343.777C198.896 348.326 189.444 356.807 186.509 366.991C188.755 355.964 198.441 346.529 214.815 341.762C246.747 332.366 292.025 343.423 316.032 366.481C328.445 378.391 332.718 391.122 329.522 401.917C331.612 391.526 327.133 379.643 315.54 368.496Z" fill="#267FE5"/>
<path d="M335.757 362.644C334.699 361.937 333.064 361.762 332.144 362.324C331.224 362.886 331.439 363.838 332.497 364.545C333.554 365.253 335.189 365.428 336.109 364.866C337.029 364.304 336.814 363.352 335.757 362.644Z" fill="#6EE8FC"/>
<path opacity="0.8" d="M343.19 368.843C342.264 368.055 340.681 367.668 339.576 368.072C338.471 368.477 338.369 369.351 339.189 370.113C340.115 370.901 341.698 371.288 342.804 370.884C343.909 370.479 344.011 369.605 343.19 368.843Z" fill="#6EE8FC"/>
<path opacity="0.6" d="M348.86 375.397C348.171 374.554 346.639 373.956 345.454 374.228C344.19 374.369 343.746 375.272 344.435 376.114C345.124 376.957 346.655 377.556 347.84 377.283C349.104 377.142 349.523 376.345 348.86 375.397Z" fill="#6EE8FC"/>
<path opacity="0.4" d="M352.632 382.387C352.286 381.516 350.781 380.811 349.436 380.82C348.092 380.829 347.357 381.548 347.704 382.42C348.05 383.291 349.555 383.996 350.9 383.987C352.244 383.978 352.979 383.258 352.632 382.387Z" fill="#6EE8FC"/>
<path opacity="0.2" d="M354.191 389.286C354.056 388.466 352.813 387.601 351.39 387.478C349.966 387.355 348.94 387.891 349.049 388.817C349.185 389.637 350.427 390.502 351.851 390.625C353.275 390.748 354.327 390.106 354.191 389.286Z" fill="#6EE8FC"/>
<path opacity="0.1" d="M353.221 396.466C354.035 395.878 353.715 394.901 352.526 394.274C351.337 393.646 349.808 393.497 348.993 394.085C348.179 394.673 348.499 395.65 349.688 396.278C350.851 397.011 352.512 397.08 353.221 396.466Z" fill="#6EE8FC"/>
</g>
<mask id="mask0_168_2" style="mask-type:luminance" maskUnits="userSpaceOnUse" x="0" y="0" width="506" height="531">
<path d="M0 288.567C3.08762 295.402 193.197 364.192 199.372 368.601C207.312 393.295 272.373 418.65 300.602 415.343C307.88 413.579 326.185 407.406 328.17 406.303C340.3 399.248 332.802 544.103 331.92 529.772C331.92 529.551 425.43 510.81 425.43 510.59C425.21 507.503 484.536 407.626 484.316 404.539C484.095 401.453 505.488 222.644 505.488 222.644C335.007 -227.354 20.5106 134.232 11.4683 204.344L0 288.567Z" fill="white"/>
</mask>
<g mask="url(#mask0_168_2)">
<g filter="url(#filter0_d_168_2)">
<path d="M249.436 77.3479L252.744 78.4503C247.23 83.3009 244.143 93.4429 242.378 101.16H238.629C240.834 93.002 243.701 83.3009 249.436 77.3479Z" fill="black"/>
<path d="M197.608 171.493L237.306 201.698L229.808 212.722L188.566 273.134L186.14 276.661L152.617 251.086L197.608 171.493Z" fill="white"/>
<path d="M239.512 148.783C239.512 148.783 230.469 133.57 205.768 153.854C183.714 171.934 194.741 204.785 210.62 216.47C224.294 224.408 232.675 212.943 232.454 208.092L239.512 148.783Z" fill="black"/>
<path d="M193.858 498.464C201.798 556.67 233.997 609.585 231.571 645.082C236.203 653.681 247.671 659.634 256.493 658.752C256.713 658.752 256.713 658.752 256.934 658.752C258.919 658.532 260.463 657.87 262.007 656.988C264.874 655.225 267.3 652.138 268.182 647.508C274.578 562.403 255.611 543.441 243.922 506.621L259.36 425.485L265.094 395.059L215.251 337.734C203.342 383.373 192.094 440.919 193.858 498.464Z" fill="white"/>
<path d="M256.493 445.107C257.596 479.282 263.109 519.629 268.843 558.434C280.091 621.491 303.69 672.863 307.659 708.139C314.055 716.297 327.288 718.722 335.448 713.872C337.433 712.769 339.197 711.226 340.52 709.242C342.064 706.816 342.946 703.95 342.946 700.423C342.726 655.445 342.946 586.214 312.952 558.434L322.436 452.163L321.995 436.068L321.554 422.619C316.261 411.815 305.454 401.452 293.324 400.791L289.575 400.571C271.711 399.468 263.109 406.964 258.257 423.941C256.272 430.997 256.272 437.611 256.493 445.107Z" fill="white"/>
<path d="M245.686 512.574C229.586 522.055 213.707 525.362 198.269 522.275C188.344 516.322 186.139 491.408 193.638 484.573C204.003 494.715 224.514 498.684 245.245 498.243C248.333 503.094 248.553 507.944 245.686 512.574Z" fill="black"/>
<path d="M301.705 551.82L307.66 576.293C325.303 613.995 332.14 662.5 335.448 713.872L340.521 709.242C342.065 706.817 342.947 703.95 342.947 700.423C342.726 655.445 342.947 586.214 312.953 558.434L322.436 452.163L321.995 436.068H307.66L301.705 551.82Z" fill="#7CAFDB"/>
<path d="M256.493 658.752H256.934L262.007 656.988C264.874 655.224 267.3 652.138 268.182 647.508C274.578 562.403 255.611 543.441 243.922 506.621L259.36 425.485L241.055 417.548L229.146 503.976C249.656 547.63 258.698 599.223 256.493 658.752Z" fill="#7CAFDB"/>
<path d="M324.42 413.358L321.994 438.934C313.834 457.895 271.71 464.51 256.272 453.927L251.199 431.438L324.42 413.358Z" fill="black"/>
<path d="M257.375 435.186L252.523 442.241C229.587 437.391 213.928 428.351 200.695 406.744L205.547 379.846L257.375 435.186Z" fill="black"/>
<path d="M199.372 368.601C200.916 374.554 202.46 379.625 204.224 384.255C204.445 384.696 204.665 385.137 204.886 385.578C210.84 400.791 209.958 413.359 225.396 429.454C227.602 431.658 243.481 441.8 246.569 443.123C249.215 444.226 251.641 444.667 253.847 444.887C269.505 445.549 282.738 428.131 300.161 426.587C303.028 426.367 305.675 426.146 308.321 425.705C312.291 425.265 316.261 424.603 320.01 424.162C323.98 423.501 327.288 420.414 328.391 416.445C332.802 395.941 329.934 382.712 327.067 363.089C327.067 362.428 326.847 361.766 326.847 361.326C322.436 346.333 273.696 311.277 227.602 314.363C212.825 315.245 201.357 327.813 201.136 342.805C200.695 354.711 200.254 363.971 199.372 368.601Z" fill="black"/>
<path d="M307.659 283.055L301.704 348.758C301.704 348.758 284.061 387.342 240.834 367.719C216.574 356.475 223.411 325.387 223.411 325.387V269.606L307.659 283.055Z" fill="white"/>
<path d="M350.224 213.163C350.224 213.163 342.505 283.055 340.961 297.607C318.907 312.599 300.16 318.773 283.399 318.993C256.052 319.434 234.438 303.78 213.928 283.937C205.326 275.559 200.254 264.314 200.033 252.188C199.372 228.376 198.71 210.517 198.71 210.517C199.813 204.124 200.915 197.95 202.459 192.218C203.562 188.029 204.885 184.06 206.208 180.312C210.399 169.288 215.912 160.248 223.19 153.193C240.393 137.539 260.242 140.626 281.635 153.193C306.336 169.729 329.272 189.131 349.121 212.061C349.783 212.502 350.004 212.722 350.224 213.163Z" fill="#7CAFDB"/>
<path d="M228.263 188.029L230.248 185.824C230.248 185.824 226.057 182.076 225.616 173.477C224.955 165.319 235.982 146.799 235.982 146.579L233.556 145.035C233.115 145.917 222.088 164.437 222.749 173.477C223.19 183.619 228.042 187.808 228.263 188.029Z" fill="black"/>
<path d="M265.093 200.155C283.839 205.667 291.999 184.28 289.794 171.713C288.03 158.705 284.722 132.468 284.722 132.468L250.537 136.877C254.066 158.043 256.933 197.73 265.093 200.155Z" fill="black"/>
<path d="M230.027 144.594C230.027 144.594 232.233 182.737 235.761 186.926C239.29 191.115 243.481 191.556 248.994 191.336C252.302 191.115 258.698 189.572 265.094 186.485C269.505 184.281 273.916 181.635 277.665 178.107C286.707 169.508 291.559 149.445 291.559 149.445L300.381 146.138C300.381 146.138 309.864 124.972 308.1 113.066C307.659 110.861 307.218 108.656 306.556 106.451C302.586 94.5455 292.883 85.5058 278.547 83.5215C243.481 78.671 234.659 105.569 232.012 117.475C231.351 121.223 230.689 124.09 230.468 127.617C230.248 130.925 230.027 134.893 230.027 140.405C230.027 141.508 230.027 142.83 230.027 144.594Z" fill="white"/>
<path d="M265.094 186.265C269.505 184.06 273.916 181.414 277.665 177.887C286.707 169.288 291.559 149.224 291.559 149.224L300.381 145.917C300.381 145.917 309.864 124.751 308.1 112.845C307.659 110.64 307.218 108.436 306.556 106.231L289.354 116.593C279.429 122.767 272.592 132.909 270.828 144.594L265.094 186.265Z" fill="#7CAFDB"/>
<path d="M230.248 138.2C240.393 147.901 252.744 150.988 259.801 151.87C262.668 152.311 265.315 149.886 265.315 147.02V146.579C265.315 144.153 263.55 142.169 261.124 141.728C254.728 140.846 241.496 137.759 230.689 127.176C230.248 130.704 230.248 132.688 230.248 138.2Z" fill="black"/>
<path d="M293.324 135.996C295.529 134.673 297.514 134.673 298.837 135.555L303.028 137.98C304.351 138.862 305.233 140.405 305.233 142.83C305.233 147.681 301.704 153.634 297.514 156.059C295.088 157.382 292.882 157.382 291.559 156.059C291.78 156.28 292 156.28 292 156.5L287.81 154.075C286.487 153.193 285.604 151.65 285.604 149.224C285.604 144.374 288.913 138.421 293.324 135.996Z" fill="#E0F1FF"/>
<path d="M297.514 138.421C293.324 140.846 289.795 146.799 289.795 151.65C289.795 156.5 293.324 158.484 297.514 156.059C301.704 153.634 305.233 147.681 305.233 142.83C305.233 137.98 301.704 135.996 297.514 138.421Z" fill="#7CAFDB"/>
<path d="M298.837 143.271C299.94 142.61 300.822 142.61 301.484 143.051L303.689 144.374C304.351 144.815 304.792 145.697 304.792 146.799C304.792 149.224 303.027 152.311 301.042 153.414C299.719 154.075 298.837 154.075 297.955 153.414L298.175 153.634L295.97 152.311C295.308 151.87 294.867 150.988 294.867 149.886C294.867 147.461 296.632 144.374 298.837 143.271Z" fill="black"/>
<path d="M300.822 144.374C298.617 145.697 297.073 148.563 297.073 150.988C297.073 153.413 298.838 154.516 301.043 153.193C303.248 151.87 304.792 149.004 304.792 146.579C304.792 144.153 303.028 143.271 300.822 144.374Z" fill="black"/>
<path d="M283.399 318.773C300.161 318.552 318.907 312.379 340.962 297.386C342.505 282.835 350.224 212.943 350.224 212.943C350.004 212.722 349.783 212.281 349.563 212.061L314.937 235.432C299.72 245.794 289.575 262.33 287.59 280.85L283.399 318.773Z" fill="#7CAFDB"/>
<path d="M253.846 445.108C269.504 445.769 282.737 428.351 300.16 426.808C303.027 426.587 305.674 426.367 308.32 425.926C312.29 425.485 316.26 424.824 320.009 424.383C323.979 423.721 327.287 420.634 328.39 416.666C332.801 396.161 329.934 382.932 327.067 363.31L303.689 378.523C290.456 387.122 279.429 399.027 271.71 412.918L253.846 445.108Z" fill="#7CAFDB"/>
<path d="M223.411 259.464C223.411 272.252 229.586 282.835 237.305 282.835C245.024 282.835 251.2 272.472 251.2 259.464C251.2 246.676 245.024 236.093 237.305 236.093C229.586 236.093 223.411 246.456 223.411 259.464Z" fill="white"/>
<path d="M363.678 240.503C361.914 253.732 354.195 265.637 349.784 266.74C344.27 267.842 312.732 270.488 309.865 263.653C309.865 239.621 323.539 213.384 342.726 210.738C358.826 212.722 365.222 227.715 363.678 240.503Z" fill="black"/>
<path d="M188.565 273.134C188.786 273.354 187.683 290.552 175.553 294.741C172.465 295.843 169.598 296.064 167.172 295.843C162.541 295.182 158.571 292.315 155.704 288.567C147.103 277.764 144.677 259.023 144.677 259.023C144.677 259.023 145.779 253.732 152.837 251.306C160.777 248.66 190.771 259.464 188.565 273.134Z" fill="black"/>
<path d="M168.275 295.182C167.834 295.402 167.393 295.623 166.952 295.843C142.692 306.426 118.432 304.662 87.5556 294.52C86.6734 294.079 85.5707 293.859 84.6885 293.638L85.1296 266.74L144.677 259.023C149.308 258.582 173.788 261.889 168.275 295.182Z" fill="white"/>
<path d="M354.194 263.433L332.36 321.198C332.36 321.419 332.36 321.419 332.36 321.419L324.862 315.466L299.72 294.961L300.822 291.874L312.952 259.243C323.539 238.518 345.152 232.786 352.871 243.369C355.738 247.558 356.841 254.172 354.194 263.433Z" fill="white"/>
<path d="M332.36 321.198C332.36 321.419 332.36 321.419 332.36 321.419C332.36 321.419 320.672 343.246 302.807 339.278C298.838 338.396 295.529 337.073 293.103 335.309C288.913 332.443 286.487 328.474 284.943 324.285C281.194 312.82 285.826 299.371 285.826 299.371C285.826 299.371 286.487 298.709 287.81 297.607C290.016 295.843 294.427 293.197 301.043 292.316C305.675 291.654 311.188 291.654 318.246 292.977C324.641 294.3 328.611 297.166 331.037 300.473C336.11 308.19 333.022 319.214 332.36 321.198Z" fill="black"/>
<path d="M94.8336 271.149L88.6584 269.165L75.2052 253.731L56.4589 237.636C53.3712 234.55 49.8425 238.298 52.9302 242.046C52.9302 242.046 64.1779 253.511 63.0752 256.598C63.0752 256.598 52.048 261.669 25.8032 249.983C21.1717 247.779 17.8636 251.747 22.0539 254.834L33.0811 261.007L45.6522 266.96L28.4497 266.519L17.643 265.196C11.4678 264.755 9.70341 268.724 15.8787 271.149L28.6702 274.456L43.6673 276.661L30.8757 278.866L19.4074 279.087C13.4527 279.528 13.2321 283.496 19.1868 284.599L32.8606 285.921L45.2111 285.701L46.9754 287.024L31.9784 288.567C26.4648 289.449 26.6853 292.977 32.4195 293.638L51.3863 293.197L72.9997 294.079L85.7913 290.551C85.7913 290.551 87.7762 290.992 88.4378 290.992C95.9363 291.213 99.024 273.134 94.8336 271.149Z" fill="black"/>
<path d="M82.043 291.433L84.469 293.418C84.469 293.418 96.8195 298.048 98.5838 281.291C100.569 264.535 84.91 266.519 84.91 266.519L82.043 291.433Z" fill="black"/>
<path d="M254.288 73.8203C260.904 70.5132 268.844 72.0565 278.548 78.2299C297.073 90.1358 303.69 110.42 297.514 136.877C296.853 138.641 293.545 138.2 293.765 136.877C299.499 111.522 293.545 92.7816 275.901 81.3166C267.3 75.8047 260.463 74.2613 255.39 76.9071C254.508 77.348 253.626 78.0095 252.964 78.6709L249.656 77.5685C250.98 76.0251 252.523 74.7023 254.288 73.8203Z" fill="black"/>
<path d="M226.499 186.044C226.499 184.942 226.499 183.619 228.043 182.737C232.454 182.076 242.158 188.47 244.584 192.218C244.584 196.407 243.04 197.509 241.055 197.95C234.439 197.289 226.499 190.233 226.499 186.044Z" fill="black"/>
<path opacity="0.5" d="M223.19 287.024L223.411 315.686C223.411 315.686 265.756 355.593 301.925 348.758L303.91 326.049L223.19 287.024Z" fill="#7CAFDB"/>
<path d="M314.496 324.285C313.834 327.151 312.732 330.017 310.967 333.104C305.233 335.309 299.058 335.97 292.883 335.309C276.342 333.986 258.698 325.167 245.686 319.214C245.466 318.993 245.245 318.993 245.024 318.993L247.892 295.182L287.59 297.607L290.236 297.827C304.13 295.402 317.363 308.631 314.496 324.285Z" fill="white"/>
<path d="M242.599 313.702C247.672 311.718 254.288 301.796 248.113 279.969L245.687 263.874C243.702 254.173 239.512 256.157 241.055 261.448L239.291 252.409C237.747 246.456 232.234 245.133 232.895 250.865L228.925 241.826C226.279 235.432 220.986 235.652 222.309 241.605L222.53 243.59L218.78 238.959C214.59 233.888 209.076 235.652 212.164 241.164C212.164 241.164 226.499 261.448 221.427 270.929C218.119 277.102 204.004 264.535 204.004 264.535C197.608 259.684 194.079 265.417 199.372 269.386C199.372 269.386 209.076 278.425 213.487 287.024C217.457 295.843 233.336 317.23 242.599 313.702Z" fill="black"/>
<path d="M237.306 308.851L245.025 318.773L251.421 321.639C251.421 321.639 260.242 315.245 257.375 295.402L247.892 294.741L237.306 308.851Z" fill="black"/>
</g>
</g>
<g clip-path="url(#clip1_168_2)">
<path d="M430.313 175.166C430.312 175.047 430.311 174.81 430.31 174.691C430.309 174.572 430.309 174.572 430.308 174.454C430.306 174.217 430.304 173.861 430.183 173.624C430.06 173.032 429.936 172.321 429.813 171.729C429.811 171.492 429.691 171.255 429.69 171.137C429.567 170.544 429.326 170.071 429.084 169.48C429.083 169.361 428.963 169.125 428.962 169.006C428.721 168.534 428.599 168.06 428.358 167.587C427.153 165.105 425.355 162.864 423.087 161.101L279.316 46.4893C276.569 44.2554 273.354 42.8555 269.908 42.4063C266.58 41.8376 263.021 42.2198 259.707 43.5492L88.0711 110.538C81.4429 113.197 76.7376 119.045 75.6021 126.053L60.9774 241.579L65.5717 245.755L70.5835 249.932L90.3388 128.317C90.5631 126.536 91.7397 125.103 93.3972 124.498L265.033 57.5091C265.862 57.147 266.693 57.1409 267.524 57.2534C268.356 57.3659 269.19 57.7157 269.906 58.3036L413.44 172.917C413.559 173.035 413.679 173.153 413.799 173.27C413.918 173.388 414.038 173.506 414.157 173.624C414.277 173.741 414.277 173.741 414.278 173.86C414.397 173.978 414.398 174.096 414.518 174.214C414.519 174.333 414.638 174.451 414.638 174.451L414.759 174.687C415 175.278 415.242 175.87 415.247 176.582C415.25 176.937 415.253 177.293 415.255 177.649L387.153 359.251C386.928 361.033 385.752 362.465 384.094 363.07L212.458 430.059C211.63 430.421 210.799 430.427 209.967 430.315C209.135 430.202 208.302 429.853 207.585 429.265L64.1696 314.532L64.05 314.414C63.453 313.944 63.0934 313.472 62.732 312.763C62.7312 312.644 62.6125 312.645 62.6116 312.526C62.6107 312.408 62.4911 312.29 62.4903 312.171C62.3698 311.935 62.3681 311.698 62.2485 311.58C62.1254 310.988 62.1211 310.394 62.2354 309.8L65.0702 291.747L50.3326 289.364L47.4987 307.536C46.8179 311.812 47.5625 316.196 49.6075 319.859C49.6084 319.977 49.7271 319.977 49.728 320.095C49.7288 320.214 49.8484 320.332 49.968 320.449C50.0876 320.567 50.208 320.804 50.2089 320.922C50.4489 321.276 50.6889 321.63 50.929 321.985C51.0485 322.102 51.1681 322.22 51.2886 322.456C51.8873 323.164 52.4861 323.871 53.0849 324.579C53.2044 324.696 53.4436 324.932 53.5632 325.05C53.9219 325.403 54.2806 325.756 54.7581 326.109L198.292 440.722C201.038 442.956 204.253 444.237 207.7 444.805C211.027 445.255 214.586 444.992 217.9 443.662L389.536 376.555C396.165 374.015 400.869 368.048 402.005 361.04L430.107 179.438C430.334 178.013 430.324 176.589 430.313 175.166Z" fill="url(#paint3_linear_168_2)"/>
<path d="M64.162 313.464C64.1646 313.82 64.0485 314.177 64.1698 314.532C64.1751 315.243 64.4177 315.953 64.7782 316.544L62.734 313L62.7331 312.881C62.7323 312.763 62.6136 312.764 62.6127 312.645C62.6118 312.526 62.4922 312.408 62.4914 312.29C62.3709 312.053 62.3692 311.816 62.2496 311.698C62.1265 311.106 62.1221 310.513 62.2365 309.919L65.0713 291.865L67.5667 292.203L64.162 313.464Z" fill="url(#paint4_linear_168_2)"/>
<path d="M416.8 177.875C416.558 177.284 416.08 176.813 415.602 176.342L415.482 176.224L271.95 61.729C271.233 61.1411 270.399 60.7914 269.568 60.6789C268.736 60.5663 267.787 60.692 266.958 60.9354L95.3218 127.924C93.6643 128.53 92.4886 130.08 92.1447 131.744L72.2543 251.185L70.5836 249.932L90.1005 128.2C90.3248 126.419 91.5014 124.986 93.1589 124.381L264.795 57.3922C265.623 57.0302 266.454 57.0241 267.286 57.1366C268.118 57.2491 268.951 57.5988 269.668 58.1867L413.202 172.8C413.321 172.918 413.441 173.036 413.56 173.154C413.68 173.271 413.799 173.389 413.919 173.507C414.039 173.625 414.039 173.625 414.039 173.743C414.159 173.861 414.16 173.98 414.28 174.097C414.28 174.216 414.4 174.334 414.4 174.334L414.52 174.57L416.8 177.875Z" fill="url(#paint5_linear_168_2)"/>
<path d="M429.925 170.779L427.999 167.115C430.044 170.778 430.788 175.162 430.108 179.438L402.005 361.04C400.869 368.048 396.164 373.896 389.536 376.555L217.9 443.544C214.586 444.873 211.026 445.137 207.699 444.687C204.252 444.119 201.038 442.837 198.291 440.604L54.7583 326.109C52.6094 324.464 50.9318 322.341 49.7273 319.977L51.6537 323.64C52.8582 326.004 54.6536 328.008 56.6847 329.772L200.217 444.267C202.964 446.501 206.18 447.901 209.626 448.35C212.954 448.919 216.512 448.537 219.826 447.207L391.462 380.218C398.091 377.678 402.796 371.712 403.931 364.704L432.034 183.102C432.715 178.826 431.971 174.56 429.925 170.779Z" fill="url(#paint6_linear_168_2)"/>
<path d="M193.741 232.611L103.579 180.835V256.417L193.741 308.49V232.611Z" fill="url(#paint7_linear_168_2)"/>
<path d="M196.717 231.124L106.555 179.347V254.929L196.717 307.002V231.124Z" fill="url(#paint8_linear_168_2)"/>
<g clip-path="url(#clip2_168_2)" filter="url(#filter1_d_168_2)">
<path d="M112.738 215.446L109.978 221.572L116.479 217.55L144.323 233.824C146.408 235.062 148.125 234.319 148.125 232.215V216.312C148.125 214.208 146.408 211.485 144.323 210.248L112.738 191.869C110.652 190.631 108.935 191.374 108.935 193.478V209.381C108.935 211.485 110.652 214.208 112.738 215.446Z" fill="#0E92CF"/>
<path d="M113.781 198.119L143.28 215.322V213.589L113.781 196.386V198.119Z" fill="white"/>
<path d="M113.781 202.76L143.28 219.963V218.23L113.781 201.089V202.76Z" fill="white"/>
<path d="M127.396 215.384L143.28 224.604V222.933L127.396 213.651V215.384Z" fill="white"/>
<path d="M119.73 215.569L143.28 229.307V227.574L119.73 213.837V215.569Z" fill="white"/>
<path d="M161.556 245.705L179.281 256.04L184.064 265.507L183.512 258.453L185.659 259.691C187.621 260.866 189.277 260.186 189.277 258.144V243.106C189.277 241.126 187.683 238.527 185.659 237.351L161.556 223.304C159.594 222.129 157.938 222.809 157.938 224.852V239.889C157.999 241.931 159.594 244.53 161.556 245.705Z" fill="#D4EEFF"/>
<path d="M171.553 234.505L184.678 242.178V240.569L171.553 232.896V234.505Z" fill="#D4EEFF"/>
<path d="M162.599 238.094L184.678 250.965V249.356L162.599 236.485V238.094Z" fill="#D4EEFF"/>
<path d="M162.599 242.55L184.678 255.421V253.75L162.599 240.879V242.55Z" fill="#D4EEFF"/>
<path d="M161.556 245.705L179.281 256.04L184.064 265.507L183.512 258.453L185.659 259.691C187.621 260.866 189.277 260.186 189.277 258.144V243.106C189.277 241.126 187.683 238.527 185.659 237.351L161.556 223.304C159.594 222.129 157.938 222.809 157.938 224.852V239.889C157.999 241.931 159.594 244.53 161.556 245.705Z" fill="#ED343B"/>
<path d="M171.553 234.505L184.678 242.178V240.569L171.553 232.896V234.505Z" fill="white"/>
<path d="M162.599 238.094L184.678 250.965V249.356L162.599 236.485V238.094Z" fill="white"/>
<path d="M162.599 242.55L184.678 255.421V253.75L162.599 240.879V242.55Z" fill="white"/>
<path d="M125.801 259.629L125.004 264.27L129.174 261.547L143.771 270.087C146.04 271.386 147.818 270.644 147.818 268.354V251.399C147.818 249.109 145.978 246.262 143.771 244.901L125.74 234.443C123.47 233.144 121.692 233.886 121.692 236.176V253.131C121.753 255.421 123.532 258.267 125.801 259.629Z" fill="white"/>
<path d="M126.905 241.126L142.667 250.285V248.428L126.905 239.27V241.126Z" fill="#1A1A1A"/>
<path d="M126.905 246.077L142.667 255.297V253.441L126.905 244.282V246.077Z" fill="#1A1A1A"/>
<path d="M126.905 251.089L142.667 260.248V258.391L126.905 249.233V251.089Z" fill="#1A1A1A"/>
<path d="M126.905 256.04L142.667 265.198V263.403L126.905 254.183V256.04Z" fill="#1A1A1A"/>
<path d="M160.094 280.332C155.513 274.186 154.587 267.089 158.025 264.48C161.462 261.871 167.963 264.738 172.544 270.884C177.125 277.029 178.052 284.126 174.614 286.735C171.176 289.344 164.675 286.477 160.094 280.332Z" fill="#FBB03B"/>
</g>
</g>
<defs>
<filter id="filter0_d_168_2" x="-9.96387" y="54.1203" width="395.865" height="750.959" filterUnits="userSpaceOnUse" color-interpolation-filters="sRGB">
<feFlood flood-opacity="0" result="BackgroundImageFix"/>
<feColorMatrix in="SourceAlpha" type="matrix" values="0 0 0 0 0 0 0 0 0 0 0 0 0 0 0 0 0 0 127 0" result="hardAlpha"/>
<feOffset dy="4"/>
<feGaussianBlur stdDeviation="11"/>
<feComposite in2="hardAlpha" operator="out"/>
<feColorMatrix type="matrix" values="0 0 0 0 0 0 0 0 0 0.76 0 0 0 0 1 0 0 0 0.64 0"/>
<feBlend mode="normal" in2="BackgroundImageFix" result="effect1_dropShadow_168_2"/>
<feBlend mode="normal" in="SourceGraphic" in2="effect1_dropShadow_168_2" result="shape"/>
</filter>
<filter id="filter1_d_168_2" x="104.935" y="191.25" width="88.3428" height="104.411" filterUnits="userSpaceOnUse" color-interpolation-filters="sRGB">
<feFlood flood-opacity="0" result="BackgroundImageFix"/>
<feColorMatrix in="SourceAlpha" type="matrix" values="0 0 0 0 0 0 0 0 0 0 0 0 0 0 0 0 0 0 127 0" result="hardAlpha"/>
<feOffset dy="4"/>
<feGaussianBlur stdDeviation="2"/>
<feComposite in2="hardAlpha" operator="out"/>
<feColorMatrix type="matrix" values="0 0 0 0 0 0 0 0 0 0 0 0 0 0 0 0 0 0 0.25 0"/>
<feBlend mode="normal" in2="BackgroundImageFix" result="effect1_dropShadow_168_2"/>
<feBlend mode="normal" in="SourceGraphic" in2="effect1_dropShadow_168_2" result="shape"/>
</filter>
<linearGradient id="paint0_linear_168_2" x1="141.164" y1="379.492" x2="365.14" y2="434.19" gradientUnits="userSpaceOnUse">
<stop stop-color="#A31FA9"/>
<stop offset="0.0667915" stop-color="#8B17A0"/>
<stop offset="0.1494" stop-color="#740F98"/>
<stop offset="0.2393" stop-color="#640A92"/>
<stop offset="0.3408" stop-color="#5B078F"/>
<stop offset="0.4785" stop-color="#58068E"/>
<stop offset="0.6264" stop-color="#4D22A3"/>
<stop offset="0.9436" stop-color="#3168DA"/>
<stop offset="1" stop-color="#2C75E4"/>
</linearGradient>
<linearGradient id="paint1_linear_168_2" x1="141.164" y1="379.492" x2="365.14" y2="434.19" gradientUnits="userSpaceOnUse">
<stop stop-color="#A31FA9"/>
<stop offset="0.0667915" stop-color="#8B17A0"/>
<stop offset="0.1494" stop-color="#740F98"/>
<stop offset="0.2393" stop-color="#640A92"/>
<stop offset="0.3408" stop-color="#5B078F"/>
<stop offset="0.4785" stop-color="#58068E"/>
<stop offset="0.6264" stop-color="#4D22A3"/>
<stop offset="0.9436" stop-color="#3168DA"/>
<stop offset="1" stop-color="#2C75E4"/>
</linearGradient>
<linearGradient id="paint2_linear_168_2" x1="190.863" y1="318.315" x2="237.055" y2="475.29" gradientUnits="userSpaceOnUse">
<stop stop-color="#8D139B"/>
<stop offset="0.1651" stop-color="#851BA1"/>
<stop offset="0.4284" stop-color="#6E33B2"/>
<stop offset="0.7551" stop-color="#4958CD"/>
<stop offset="1" stop-color="#2979E4"/>
</linearGradient>
<linearGradient id="paint3_linear_168_2" x1="46.8006" y1="244.985" x2="430.799" y2="242.157" gradientUnits="userSpaceOnUse">
<stop stop-color="#FF9C45"/>
<stop offset="0.332" stop-color="#FFCD6C"/>
<stop offset="0.4941" stop-color="#FFC554"/>
<stop offset="0.7179" stop-color="#FF9F46"/>
<stop offset="0.8694" stop-color="#FF9C45"/>
</linearGradient>
<linearGradient id="paint4_linear_168_2" x1="60.2702" y1="311.416" x2="68.6133" y2="298.329" gradientUnits="userSpaceOnUse">
<stop stop-color="#A35137"/>
<stop offset="0.4488" stop-color="#F6B64D"/>
<stop offset="1" stop-color="#9C4833"/>
</linearGradient>
<linearGradient id="paint5_linear_168_2" x1="183.981" y1="261.653" x2="274.606" y2="119.499" gradientUnits="userSpaceOnUse">
<stop stop-color="#A35137"/>
<stop offset="0.4488" stop-color="#F6B64D"/>
<stop offset="1" stop-color="#9C4833"/>
</linearGradient>
<linearGradient id="paint6_linear_168_2" x1="71.4594" y1="87.5952" x2="308.009" y2="310.617" gradientUnits="userSpaceOnUse">
<stop stop-color="#A35137"/>
<stop offset="0.1541" stop-color="#AB5B39"/>
<stop offset="0.2854" stop-color="#FFC14F"/>
<stop offset="0.769" stop-color="#9C4833"/>
</linearGradient>
<linearGradient id="paint7_linear_168_2" x1="99.4132" y1="158.816" x2="222.605" y2="333.486" gradientUnits="userSpaceOnUse">
<stop stop-color="#E0FFD9"/>
<stop offset="1" stop-color="#9E00FF" stop-opacity="0"/>
</linearGradient>
<linearGradient id="paint8_linear_168_2" x1="102.389" y1="157.328" x2="225.58" y2="331.998" gradientUnits="userSpaceOnUse">
<stop stop-color="#E0FFD9"/>
<stop offset="1" stop-color="#9E00FF" stop-opacity="0"/>
</linearGradient>
<clipPath id="clip0_168_2">
<rect width="230.547" height="143.674" fill="white" transform="matrix(-0.971451 -0.237242 -0.237242 0.971451 386.689 345.975)"/>
</clipPath>
<clipPath id="clip1_168_2">
<rect width="385.916" height="405.963" fill="white" transform="translate(46.7773 36.5085)"/>
</clipPath>
<clipPath id="clip2_168_2">
<rect width="80.3423" height="96.4108" fill="white" transform="matrix(-1 0 0 1 189.277 191.25)"/>
</clipPath>
</defs>
</svg>
