<svg width="265" height="218" viewBox="0 0 265 218" fill="none" xmlns="http://www.w3.org/2000/svg">
<g clip-path="url(#clip0_14_788)">
<path d="M90.4227 73.0049C90.082 72.9373 89.6732 72.8696 89.1962 72.9373C87.1519 73.2079 84.8352 74.8994 84.0175 76.7939C83.4723 78.0794 83.7449 79.0943 84.6307 79.5679C84.6989 79.6356 84.767 79.6356 84.8352 79.6356C95.8058 84.2364 112.909 83.7628 128.718 68.3364L122.994 62.5176C111.274 74.0875 98.9403 75.576 90.4227 73.0049Z" fill="#263238"/>
<path d="M141.119 66.5096C141.188 67.0509 140.983 67.6598 140.506 67.9981C137.099 70.7722 132.602 71.1781 128.786 68.9453C127.968 68.4717 127.696 67.4568 128.173 66.6449C128.65 65.833 129.672 65.5623 130.489 66.036C133.011 67.5245 136.009 67.2538 138.326 65.427C139.075 64.8181 140.097 64.9534 140.711 65.63C140.915 65.9006 141.051 66.2389 141.119 66.5096Z" fill="#263238"/>
<path d="M125.992 73.2079C130.32 73.2079 133.829 69.7243 133.829 65.427C133.829 61.1297 130.32 57.6461 125.992 57.6461C121.665 57.6461 118.156 61.1297 118.156 65.427C118.156 69.7243 121.665 73.2079 125.992 73.2079Z" fill="#BA68C8"/>
<path opacity="0.2" d="M130.285 58.9316C131.444 59.8112 132.943 63.8032 129.604 66.9155C125.72 70.5691 118.769 68.4717 118.224 64.2091C117.952 65.9006 118.224 67.6598 119.178 69.2836C121.291 73.0049 126.129 74.3581 129.876 72.2606C133.624 70.1632 134.987 65.3593 132.874 61.638C132.193 60.4878 131.307 59.6082 130.285 58.9316Z" fill="black"/>
<path opacity="0.3" d="M120.2 61.4351C120.132 61.5028 120.132 61.5704 120.064 61.6381C119.791 62.044 119.587 62.45 119.451 62.9236C119.314 63.3972 119.178 64.0062 119.383 64.5474C119.587 65.0887 120.132 65.4947 120.677 65.3594C121.222 65.224 121.427 64.6151 121.563 64.0738C122.04 62.7206 122.585 61.4351 123.267 60.2172C123.335 60.0819 123.403 59.9466 123.335 59.8113C123.267 59.6083 123.062 59.6083 122.858 59.6083C121.836 59.7436 120.95 60.6232 120.2 61.4351Z" fill="white"/>
<path d="M134.305 52.91C134.442 53.7895 133.828 54.5338 133.011 54.7368C130.149 55.4134 128.104 57.5785 127.764 60.4879C127.627 61.4351 126.81 62.044 125.856 61.9764C124.902 61.8411 124.289 61.0291 124.357 60.0819C124.902 55.7517 127.9 52.4363 132.193 51.4214C133.079 51.2185 134.033 51.7597 134.237 52.707C134.305 52.8423 134.305 52.91 134.305 52.91Z" fill="#263238"/>
<path d="M11.4473 65.4271C11.4473 94.5208 24.3259 155.279 54.7849 155.279C85.2439 155.279 98.1225 94.5208 98.1225 65.4271H11.4473Z" fill="#BA68C8"/>
<path opacity="0.8" d="M11.4473 65.4271C11.4473 94.5208 24.3259 155.279 54.7849 155.279C85.2439 155.279 98.1225 94.5208 98.1225 65.4271H11.4473Z" fill="white"/>
<path d="M98.0544 65.4271C96.8278 82.951 91.9898 94.8591 84.358 99.054C81.1554 100.813 76.6581 100.813 72.7741 99.054C66.3007 96.077 61.8034 88.8374 61.122 85.3867L59.4185 85.725C60.168 89.5816 64.9379 97.3625 72.0245 100.61C74.205 101.625 77.2714 102.099 79.3156 102.099C81.3598 102.099 83.3359 101.625 85.1757 100.61C90.4226 97.7008 94.4429 91.6114 96.9641 82.748C97.7137 76.3203 98.1225 70.4339 98.0544 65.4271Z" fill="#BA68C8"/>
<path d="M84.7667 81.8684C84.7667 112.248 79.7242 134.981 69.7075 149.799C70.9341 148.784 72.1606 147.701 73.319 146.484C81.7685 131.463 86.0613 109.88 86.0613 81.8684H84.7667Z" fill="#BA68C8"/>
<path opacity="0.2" d="M51.923 143.033C38.7036 131.125 36.1824 96.3476 39.9302 88.7697V65.4271H11.4473C11.4473 94.5208 24.3259 155.279 54.7849 155.279C65.006 155.279 73.2511 148.446 79.7245 138.229C79.6563 138.229 65.1423 154.941 51.923 143.033Z" fill="#BA68C8"/>
<path d="M85.4485 83.0186C68.5496 92.694 41.0888 92.694 24.1898 83.0186C15.7404 78.1471 11.5156 71.7871 11.5156 65.4271C11.5156 59.067 15.7404 52.707 24.1898 47.8355C41.0888 38.1601 68.5496 38.1601 85.4485 47.8355C93.898 52.707 98.1227 59.067 98.1227 65.4271C98.1227 71.7871 93.898 78.1471 85.4485 83.0186Z" fill="#BA68C8"/>
<path opacity="0.6" d="M85.4485 83.0186C68.5496 92.694 41.0888 92.694 24.1898 83.0186C15.7404 78.1471 11.5156 71.7871 11.5156 65.4271C11.5156 59.067 15.7404 52.707 24.1898 47.8355C41.0888 38.1601 68.5496 38.1601 85.4485 47.8355C93.898 52.707 98.1227 59.067 98.1227 65.4271C98.1227 71.7871 93.898 78.1471 85.4485 83.0186Z" fill="white"/>
<path opacity="0.3" d="M85.9252 70.8399C91.6491 65.1564 92.9437 58.6611 92.2623 52.91C90.4225 51.0832 88.1739 49.3917 85.5164 47.9032C68.6174 38.2278 41.1567 38.2278 24.2577 47.9032C15.8082 52.7747 11.5835 59.1347 11.5835 65.4947C11.5835 71.8548 15.8082 78.2148 24.2577 83.0863C38.7036 91.3408 60.7131 92.5587 77.4076 86.7399C60.3724 91.9497 38.2266 87.2812 36.3868 78.1471C46.4716 82.342 72.5015 84.1012 85.9252 70.8399Z" fill="#BA68C8"/>
<path d="M12.47 84.1011C4.9745 88.3637 2.38514 97.9037 6.74616 105.346C11.039 112.789 20.6469 115.36 28.1424 111.03C30.1185 109.88 31.4132 107.444 31.4132 103.925C31.4132 96.8888 26.4389 88.3637 20.3743 84.9131C17.2399 83.0862 14.4461 82.9509 12.47 84.1011Z" fill="#455A64"/>
<path d="M19.4885 109.203C11.4478 109.947 5.65585 103.52 4.77002 95.6033C4.36118 98.851 4.97444 102.302 6.74611 105.346C11.039 112.789 20.6469 115.36 28.1424 111.03C30.1184 109.88 31.4131 107.444 31.4131 103.925C31.4131 102.505 31.2087 101.016 30.7999 99.5276C30.7317 103.925 28.0742 108.391 19.4885 109.203Z" fill="#37474F"/>
<path d="M11.1753 97.7008C8.72218 96.2799 6.74609 97.4301 6.74609 100.272C6.74609 103.046 8.72218 106.497 11.1753 107.917C13.6283 109.338 15.6044 108.188 15.6044 105.346C15.6044 102.505 13.6283 99.054 11.1753 97.7008Z" fill="#263238"/>
<path d="M8.38135 99.3246C8.38135 102.099 10.3574 105.549 12.8105 106.97C13.6282 107.444 14.3777 107.647 15.0592 107.579C15.468 107.038 15.6724 106.294 15.6724 105.346C15.6724 102.572 13.6963 99.1216 11.2433 97.7008C10.4256 97.2272 9.67602 97.0242 8.99462 97.0918C8.58577 97.6331 8.38135 98.3774 8.38135 99.3246Z" fill="#BA68C8"/>
<path opacity="0.1" d="M8.51807 100.881C9.06319 103.249 10.7667 105.752 12.7428 106.903C13.5605 107.376 14.31 107.579 14.9915 107.511C15.4003 106.97 15.6047 106.226 15.6047 105.279C15.6047 104.534 15.4684 103.79 15.264 103.046C13.9012 105.549 9.26762 103.317 8.51807 100.881Z" fill="black"/>
<path d="M14.2415 106.023C14.3778 105.685 14.4459 105.279 14.4459 104.873C14.4459 102.843 13.0149 100.34 11.1751 99.3246C9.9486 98.648 8.85835 98.7833 8.38136 99.5953C8.31322 99.6629 8.31322 99.7306 8.24508 99.7982C2.38496 110.015 0.749579 126.93 14.3096 144.454L20.783 139.515C10.6982 126.456 10.6982 114.074 14.2415 106.023Z" fill="#263238"/>
<path d="M14.6502 156.768C14.1051 156.768 13.56 156.497 13.2193 156.024C10.8344 152.37 11.0388 147.904 13.6281 144.386C14.1733 143.642 15.2635 143.506 16.0131 144.048C16.7626 144.589 16.8989 145.672 16.3538 146.416C14.5821 148.784 14.4458 151.761 16.0812 154.197C16.5582 155.009 16.3538 156.024 15.5361 156.565C15.2635 156.632 14.991 156.768 14.6502 156.768Z" fill="#263238"/>
<path d="M23.5759 146.916C26.3518 143.619 25.9104 138.712 22.5901 135.956C19.2698 133.199 14.3279 133.638 11.552 136.934C8.77616 140.231 9.21751 145.138 12.5378 147.895C15.8581 150.651 20.8 150.213 23.5759 146.916Z" fill="#BA68C8"/>
<path opacity="0.2" d="M23.5767 147.025C22.5546 148.04 18.398 149.055 15.6723 145.333C12.4697 141.071 15.4679 134.44 19.7608 134.44C18.1254 133.966 16.2856 134.034 14.5821 134.711C10.5618 136.402 8.65381 140.935 10.3573 144.927C12.0609 148.919 16.6263 150.814 20.6466 149.122C21.7369 148.649 22.759 147.904 23.5767 147.025Z" fill="black"/>
<path opacity="0.3" d="M22.2141 136.741C22.1459 136.673 22.0778 136.605 22.0096 136.538C21.6689 136.199 21.1919 135.996 20.7831 135.793C20.3061 135.59 19.6928 135.387 19.2159 135.523C18.6707 135.658 18.1937 136.199 18.2619 136.741C18.33 137.282 18.9433 137.552 19.4203 137.823C20.715 138.432 21.9415 139.176 23.0317 139.988C23.168 140.056 23.3043 140.191 23.4406 140.124C23.645 140.056 23.7132 139.853 23.7132 139.65C23.7813 138.567 23.0317 137.552 22.2141 136.741Z" fill="white"/>
<path d="M29.096 151.693C28.2101 151.693 27.5287 151.084 27.3925 150.205C27.0517 147.295 25.0757 145.063 22.2137 144.318C21.3279 144.115 20.7146 143.168 20.9872 142.289C21.1916 141.409 22.1456 140.868 23.0314 141.071C27.3243 142.153 30.2544 145.536 30.7314 149.867C30.7995 150.814 30.1862 151.626 29.2323 151.761C29.1641 151.693 29.096 151.693 29.096 151.693Z" fill="#263238"/>
<path d="M89.7412 52.1657C89.7412 47.0236 86.3341 41.8814 79.5201 38.0248C65.8919 30.1763 43.7461 30.1763 30.0497 38.0248C23.2357 41.9491 19.8286 47.0913 19.8286 52.1657C19.8286 53.2483 19.8286 57.4432 19.8286 58.5258C19.8286 63.6679 23.2357 68.8101 30.0497 72.6667C43.6779 80.5152 65.8237 80.5152 79.5201 72.6667C86.3341 68.7424 89.7412 63.6003 89.7412 58.5258C89.7412 57.5109 89.7412 53.2483 89.7412 52.1657Z" fill="#37474F"/>
<path d="M60.2362 78.3501C51.8548 78.4854 40.8842 74.6965 43.6779 64.8858V33.221C38.7036 34.1682 34.0019 35.7921 30.0497 38.0249C23.2357 41.9491 19.8286 47.0913 19.8286 52.1658C19.8286 53.2483 19.8286 57.4432 19.8286 58.5258C19.8286 63.6679 23.2357 68.8101 30.0497 72.6667C38.2948 77.4029 49.6062 79.2974 60.2362 78.3501Z" fill="#263238"/>
<path d="M79.5201 66.3743C65.8919 74.2229 43.7461 74.2229 30.0497 66.3743C23.2357 62.4501 19.8286 57.3079 19.8286 52.2334C19.8286 47.0913 23.2357 41.9491 30.0497 38.0925C43.6779 30.244 65.8237 30.244 79.5201 38.0925C86.3341 42.0168 89.7412 47.1589 89.7412 52.2334C89.7412 57.3079 86.3341 62.4501 79.5201 66.3743Z" fill="#263238"/>
<path d="M101.802 61.5704L100.303 60.2173C101.734 58.5934 103.438 56.1577 103.165 53.4513C102.961 51.4891 101.598 49.5947 99.2131 47.9708C95.806 45.6027 92.6034 44.2495 90.3547 43.4376C90.1503 42.6257 89.7415 41.4078 89.6733 41.0695C91.9901 41.7461 95.9423 43.3023 100.371 46.2793C103.302 48.2415 104.869 50.6096 105.209 53.1806C105.55 56.6313 103.574 59.6083 101.802 61.5704Z" fill="#263238"/>
<path d="M102.416 58.9993C100.44 57.4432 99.1449 58.3227 96.4874 61.5028C93.8299 64.6828 94.5794 65.9683 96.2148 67.2538C97.8502 68.5394 99.6218 67.7275 101.734 65.0887C104.051 62.1117 104.801 60.8262 102.416 58.9993Z" fill="#BA68C8"/>
<path opacity="0.3" d="M97.9183 61.1645C97.2369 61.8411 96.5555 62.5177 96.1466 63.3972C95.874 63.9385 95.6696 64.6151 95.9422 65.2241C96.0785 65.4947 96.2829 65.6977 96.4873 65.9007C96.9643 66.3066 97.5094 66.5773 98.1227 66.6449C98.259 66.6449 98.3271 66.6449 98.4634 66.5773C98.5997 66.5096 98.5997 66.3066 98.6678 66.1713C98.736 65.5624 98.5997 64.8858 98.6678 64.2768C98.8722 62.653 100.508 61.5028 100.576 59.8789C100.576 59.8113 100.576 59.676 100.508 59.6083C100.303 59.27 99.8262 59.473 99.5537 59.6083C99.4174 59.676 99.3492 59.8113 99.213 59.8789C99.0085 60.0819 98.8722 60.2172 98.6678 60.4202C98.3271 60.6909 98.1227 60.9615 97.9183 61.1645Z" fill="white"/>
<path d="M93.8981 50.6095C93.8981 29.1613 76.3859 11.7728 54.7852 11.7728C33.1846 11.7728 15.6724 29.1613 15.6724 50.6095C15.6724 56.3606 19.4883 62.1117 27.12 66.5096C42.3836 75.3054 67.1869 75.3054 82.4505 66.5096C90.0822 62.1117 93.8981 56.3606 93.8981 50.6095Z" fill="#BA68C8"/>
<path opacity="0.8" d="M93.8981 50.6095C93.8981 29.1613 76.3859 11.7728 54.7852 11.7728C33.1846 11.7728 15.6724 29.1613 15.6724 50.6095C15.6724 56.3606 19.4883 62.1117 27.12 66.5096C42.3836 75.3054 67.1869 75.3054 82.4505 66.5096C90.0822 62.1117 93.8981 56.3606 93.8981 50.6095Z" fill="white"/>
<path opacity="0.3" d="M88.7873 61.7057C68.4132 74.1551 41.5657 72.8696 40.9524 59.6083C40.5436 50.6095 35.8419 43.0316 29.7092 39.5809C30.3224 25.3724 39.794 14.1409 50.0833 12.0434C30.6631 14.3438 15.604 30.7175 15.604 50.6095C15.604 56.3606 19.4199 62.1117 27.0517 66.5096C42.3152 75.3053 67.1185 75.3053 82.3821 66.5096C84.1538 65.4947 85.721 64.4121 87.0838 63.2619L88.7873 61.7057C88.7873 61.7734 88.7192 61.7734 88.7873 61.7057Z" fill="#BA68C8"/>
<path d="M92.7396 41.1371C90.9679 34.1682 87.3564 27.9435 82.3821 23.072C82.3821 27.1316 79.7246 31.1911 74.3415 34.2358C68.0044 37.8895 59.2824 39.378 51.0373 38.7014C47.2896 38.4307 43.9507 40.9342 43.3374 44.6554C42.7241 48.3091 42.3834 51.8951 42.179 55.0751C41.9064 58.864 44.7002 62.1793 48.5161 62.5853C60.2363 63.7355 72.638 61.7057 81.6326 56.4959C89.0599 52.2333 92.7396 46.6852 92.7396 41.1371Z" fill="#455A64"/>
<path d="M58.3282 53.1129C58.192 53.1129 58.1238 53.1129 57.9875 53.1129C57.0336 52.9099 56.4884 52.0304 56.6247 51.1508C57.3061 47.5648 60.5088 44.9261 64.1884 44.9261C66.7777 44.9261 69.1627 46.2116 70.5936 48.3091C71.1387 49.0533 70.9343 50.1359 70.1166 50.6772C69.3671 51.2185 68.2768 51.0155 67.7317 50.2036C66.914 48.9857 65.5512 48.3091 64.1202 48.3091C62.076 48.3091 60.2362 49.7976 59.8955 51.7597C59.8274 52.5716 59.1459 53.1129 58.3282 53.1129Z" fill="#BA68C8"/>
<path opacity="0.3" d="M58.3282 53.1129C58.192 53.1129 58.1238 53.1129 57.9875 53.1129C57.0336 52.9099 56.4884 52.0304 56.6247 51.1508C57.3061 47.5648 60.5088 44.9261 64.1884 44.9261C66.7777 44.9261 69.1627 46.2116 70.5936 48.3091C71.1387 49.0533 70.9343 50.1359 70.1166 50.6772C69.3671 51.2185 68.2768 51.0155 67.7317 50.2036C66.914 48.9857 65.5512 48.3091 64.1202 48.3091C62.076 48.3091 60.2362 49.7976 59.8955 51.7597C59.8274 52.5716 59.1459 53.1129 58.3282 53.1129Z" fill="white"/>
<path d="M89.6729 32.9503C87.1517 34.0329 85.3119 36.401 85.0394 39.2427C84.9712 40.1899 85.6526 41.0018 86.5385 41.0695C86.6747 41.0695 86.7429 41.0695 86.8792 41.0695C87.6969 41.0018 88.3101 40.3929 88.4464 39.581C88.5827 37.9571 89.6729 36.6039 91.1039 36.0627C90.6269 34.9801 90.1499 33.9652 89.6729 32.9503Z" fill="#BA68C8"/>
<path opacity="0.3" d="M89.6729 32.9503C87.1517 34.0329 85.3119 36.401 85.0394 39.2427C84.9712 40.1899 85.6526 41.0018 86.5385 41.0695C86.6747 41.0695 86.7429 41.0695 86.8792 41.0695C87.6969 41.0018 88.3101 40.3929 88.4464 39.581C88.5827 37.9571 89.6729 36.6039 91.1039 36.0627C90.6269 34.9801 90.1499 33.9652 89.6729 32.9503Z" fill="white"/>
<g opacity="0.1">
<path d="M74.5459 34.1005C77.8848 40.2575 80.7467 47.5648 82.5184 55.9546C84.1538 54.9397 85.5847 53.9248 86.8113 52.7746C85.244 46.8205 82.5184 38.8367 78.0211 31.5294C77.0671 32.409 75.8406 33.2886 74.5459 34.1005Z" fill="white"/>
<path d="M71.3435 35.6567C68.9585 36.6716 66.3692 37.4835 63.6436 38.0248C65.0064 45.332 65.9603 53.5189 66.3692 61.841C70.3214 61.0968 74.1373 60.0142 77.6124 58.5257C76.3178 51.895 74.3417 43.5052 71.3435 35.6567Z" fill="white"/>
</g>
<path d="M5.72329 32.815C7.01797 34.1005 7.01797 36.2656 5.72329 37.5512C4.42862 38.8367 2.24811 38.8367 0.95343 37.5512C-0.341247 36.2656 -0.341247 34.1005 0.95343 32.815C2.24811 31.5294 4.42862 31.5294 5.72329 32.815Z" fill="#BA68C8"/>
<path opacity="0.3" d="M5.72344 32.815C7.01812 34.1005 7.01812 36.2657 5.72344 37.5512C4.42877 38.8367 2.24826 38.8367 0.953581 37.5512C-0.0685329 36.5363 -0.272956 35.0478 0.272172 33.7623C0.272172 33.8299 0.272172 33.8976 0.340313 34.0329C0.681017 35.0478 2.04384 35.4537 3.40665 35.0478C4.76947 34.6418 5.6553 33.4916 5.3146 32.5444C5.51902 32.612 5.6553 32.6797 5.72344 32.815Z" fill="black"/>
<path d="M5.24668 35.9273C4.76969 36.0626 4.22457 36.5363 4.08828 37.0775C4.02014 37.3482 4.08828 37.5512 4.15642 37.6865L18.466 51.895L20.1695 50.2035L5.85995 35.995C5.72367 35.8597 5.51924 35.8597 5.24668 35.9273Z" fill="#263238"/>
<path opacity="0.3" d="M1.22592 33.0179C1.08964 33.1533 1.0215 33.4239 1.15778 33.5592C1.29406 33.7622 1.56663 33.6945 1.83919 33.6269C2.65688 33.4239 3.54271 33.4239 4.42854 33.3562C4.56483 33.3562 4.76925 33.3562 4.90553 33.2209C5.10995 33.0856 5.04181 32.8826 4.97367 32.7473C4.83739 32.5443 4.63297 32.4767 4.49669 32.3414C4.08784 32.1384 3.61085 32.0031 3.06573 32.0031C2.65688 32.0707 2.17989 32.1384 1.83919 32.3414C1.56663 32.612 1.3622 32.815 1.22592 33.0179Z" fill="white"/>
<path d="M19.2835 40.3253C11.788 44.5878 9.19862 54.1279 13.5596 61.5704C17.8525 69.013 27.4604 71.5841 34.9559 67.2539C36.932 66.1037 38.2266 63.6679 38.2266 60.1496C38.2266 53.113 33.2524 44.5878 27.1878 41.1372C24.0533 39.3104 21.2596 39.175 19.2835 40.3253Z" fill="#455A64"/>
<path d="M26.3019 65.4271C18.2613 66.1713 12.4693 59.8113 11.5835 51.8275C11.1747 55.0751 11.7879 58.5258 13.5596 61.5705C17.8525 69.0131 27.4603 71.5841 34.9558 67.2539C36.9319 66.1037 38.2266 63.6679 38.2266 60.1496C38.2266 58.7288 38.0222 57.2402 37.6133 55.7517C37.5452 60.1496 34.8877 64.6828 26.3019 65.4271Z" fill="#37474F"/>
<path d="M17.9887 53.9249C15.5357 52.504 13.5596 53.6543 13.5596 56.496C13.5596 59.3377 15.5357 62.7207 17.9887 64.1415C20.4418 65.5624 22.4179 64.4122 22.4179 61.5705C22.4179 58.7287 20.4418 55.3458 17.9887 53.9249Z" fill="#263238"/>
<path d="M15.127 55.5487C15.127 58.3228 17.103 61.7734 19.5561 63.1943C20.3738 63.6679 21.1234 63.8709 21.8048 63.8032C22.2136 63.262 22.418 62.5177 22.418 61.5705C22.418 58.7964 20.4419 55.3458 17.9889 53.9249C17.1712 53.4513 16.4216 53.2483 15.7402 53.316C15.3995 53.8572 15.127 54.6015 15.127 55.5487Z" fill="#BA68C8"/>
<path opacity="0.1" d="M15.3315 57.1725C15.8767 59.5406 17.5802 62.0441 19.5563 63.1943C20.374 63.6679 21.1235 63.8709 21.8049 63.8032C22.2138 63.2619 22.4182 62.5177 22.4182 61.5704C22.4182 60.8262 22.2819 60.0819 22.0775 59.3377C20.7147 61.7734 16.0811 59.5406 15.3315 57.1725Z" fill="black"/>
<path d="M66.9823 2.16512C61.9399 -0.74425 55.9435 -0.74425 50.9692 2.16512L42.5198 7.03663C30.1181 14.1409 22.4863 27.3346 22.4863 41.5431C22.4863 41.7461 22.6226 41.9491 22.8952 42.0844C23.4403 42.4227 24.258 42.4227 24.8031 42.0844C25.0757 41.9491 25.212 41.7461 25.212 41.5431C25.212 28.3495 32.3668 16.0354 43.8826 9.40472L52.3321 4.53322C56.4886 2.16512 61.4629 2.16512 65.6195 4.53322C69.5717 6.76599 72.0248 10.7579 72.2292 15.2235V15.8324C73.5239 16.4413 74.9548 17.3209 74.9548 17.3209V15.9677C74.9548 10.2166 71.9566 5.00684 66.9823 2.16512Z" fill="#263238"/>
<path d="M22.827 43.3699C20.7828 42.2197 18.8067 41.6784 17.035 41.8814C16.6943 42.152 16.3536 42.4227 16.0811 42.761C16.6262 42.6257 17.1032 42.558 17.7164 42.558C19.1474 42.558 20.7828 43.0316 22.4863 44.0465C28.4827 47.4972 33.3888 55.887 33.3888 62.7883C33.3888 65.427 32.6393 67.5245 31.3446 68.81C31.7535 68.6747 32.1623 68.5394 32.5712 68.4041C33.5933 66.9832 34.0703 65.0887 34.0703 62.7883C34.0703 55.6164 29.0278 46.9559 22.827 43.3699Z" fill="#BA68C8"/>
<g opacity="0.3">
<path d="M22.827 43.3699C20.7828 42.2197 18.8067 41.6784 17.035 41.8814C16.6943 42.152 16.3536 42.4227 16.0811 42.761C16.6262 42.6257 17.1032 42.558 17.7164 42.558C19.1474 42.558 20.7828 43.0316 22.4863 44.0465C28.4827 47.4972 33.3888 55.887 33.3888 62.7883C33.3888 65.427 32.6393 67.5245 31.3446 68.81C31.7535 68.6747 32.1623 68.5394 32.5712 68.4041C33.5933 66.9832 34.0703 65.0887 34.0703 62.7883C34.0703 55.6164 29.0278 46.9559 22.827 43.3699Z" fill="white"/>
</g>
<path d="M217.574 102.64C220.777 101.49 224.456 104.534 230.657 105.82C242.173 108.188 247.965 111.571 254.166 115.834C260.366 120.164 261.934 118.743 264.25 121.788C266.567 124.832 262.956 127.336 262.274 132.749C261.184 141.815 258.595 148.31 255.256 152.844C249.396 160.76 251.644 164.684 248.237 165.496C244.626 166.376 244.081 163.263 237.948 162.519C223.298 160.76 216.62 157.58 208.171 150.069C204.832 147.16 201.902 148.243 200.402 144.927C199.653 143.304 201.902 141.747 202.787 135.793C204.218 125.915 208.102 116.104 212.804 110.286C214.848 107.85 214.303 103.858 217.574 102.64Z" fill="#BA68C8"/>
<path opacity="0.2" d="M262.07 128.486C260.298 133.155 261.661 137.011 257.777 145.739C254.03 154.129 250.486 157.106 249.669 160.692C248.987 163.669 247.352 165.361 246.125 162.384C244.899 159.474 245.035 150.137 248.715 141.206C252.939 130.989 256.21 126.659 258.663 124.697C262.547 121.652 263.501 124.832 262.07 128.486Z" fill="black"/>
<path opacity="0.2" d="M222.003 159.001C226.296 160.692 231.271 161.775 237.948 162.587C241.219 162.993 242.923 164.075 244.354 164.819C241.832 162.79 240.878 159.61 236.858 159.271C233.928 159.001 227.318 160.218 222.003 159.001ZM200.812 145.739C202.379 148.107 205.104 147.431 208.171 150.069C211.101 152.641 213.826 154.738 216.756 156.43C213.077 153.52 212.395 149.799 209.534 148.31C206.127 146.484 203.469 147.769 200.812 145.739Z" fill="black"/>
<path opacity="0.05" d="M224.184 109.338C232.429 108.797 241.287 110.827 248.237 115.428C249.532 116.375 250.554 117.863 250.827 119.555C251.168 121.72 250.622 123.682 248.919 125.306C247.352 126.795 244.626 127.471 242.65 127.742C238.425 128.283 235.768 127.809 230.521 129.095C228.954 129.433 226.841 130.516 225.342 131.869C223.094 133.966 221.594 136.064 219.618 137.823C216.893 140.259 211.169 140.935 208.784 139.515C206.195 138.026 204.968 135.049 205.786 130.719C207.694 121.179 213.145 110.894 224.184 109.338Z" fill="white"/>
<path d="M177.507 95.5357C174.918 94.5208 171.919 96.9565 166.945 97.8361C157.61 99.5276 150.591 102.64 145.549 105.955C140.506 109.271 139.28 108.12 137.304 110.556C135.328 112.992 138.258 115.022 138.667 119.352C139.348 126.659 141.324 131.937 143.913 135.658C148.411 142.153 146.571 145.266 149.297 146.01C152.158 146.754 152.635 144.251 157.678 143.845C169.466 142.762 177.234 139.785 184.185 133.966C186.91 131.666 189.295 132.613 190.522 130.042C191.135 128.757 189.363 127.471 188.75 122.667C187.796 114.751 184.934 106.7 181.255 101.963C179.551 99.7306 180.096 96.5506 177.507 95.5357Z" fill="#BA68C8"/>
<path opacity="0.3" d="M177.507 95.5357C174.918 94.5208 171.919 96.9565 166.945 97.8361C157.61 99.5276 150.591 102.64 145.549 105.955C140.506 109.271 139.28 108.12 137.304 110.556C135.328 112.992 138.258 115.022 138.667 119.352C139.348 126.659 141.324 131.937 143.913 135.658C148.411 142.153 146.571 145.266 149.297 146.01C152.158 146.754 152.635 144.251 157.678 143.845C169.466 142.762 177.234 139.785 184.185 133.966C186.91 131.666 189.295 132.613 190.522 130.042C191.135 128.757 189.363 127.471 188.75 122.667C187.796 114.751 184.934 106.7 181.255 101.963C179.551 99.7306 180.096 96.5506 177.507 95.5357Z" fill="black"/>
<path opacity="0.2" d="M138.871 115.969C140.234 119.758 139.007 122.803 142.006 129.975C144.868 136.808 147.593 139.244 148.207 142.153C148.752 144.521 149.978 145.942 151 143.642C152.022 141.341 152.091 133.831 149.365 126.592C146.162 118.269 143.641 114.751 141.665 113.127C138.599 110.421 137.781 112.924 138.871 115.969Z" fill="black"/>
<path opacity="0.2" d="M158.495 141.138C155.293 141.341 154.407 143.845 152.363 145.469C153.521 144.86 154.884 144.048 157.541 143.777C162.925 143.236 166.945 142.492 170.42 141.206C166.127 142.153 160.812 141.003 158.495 141.138ZM183.026 132.41C180.709 133.561 180.096 136.605 177.098 138.838C179.483 137.552 181.663 135.929 184.116 133.899C186.57 131.801 188.818 132.41 190.113 130.516C187.864 132.072 185.82 130.989 183.026 132.41Z" fill="black"/>
<path opacity="0.3" d="M172.056 100.813C165.446 100.204 156.929 101.557 151.273 105.143C150.183 105.888 148.343 107.714 148.07 109.068C147.798 110.759 148.138 112.383 149.501 113.736C150.728 114.954 152.908 115.563 154.475 115.834C157.814 116.307 161.017 115.495 165.446 116.307C166.741 116.51 169.466 117.796 170.625 118.946C172.397 120.637 173.555 122.397 175.054 123.885C177.166 125.915 181.8 126.524 183.776 125.441C185.888 124.291 186.979 121.923 186.365 118.405C185.071 110.624 180.846 102.234 172.056 100.813Z" fill="#BA68C8"/>
<path d="M178.461 177.539L171.852 165.699L158.019 173.953L172.942 191.342C172.942 191.342 181.255 190.868 182.618 186.944C184.117 183.02 180.506 178.96 178.461 177.539Z" fill="#F28F8F"/>
<path d="M186.093 183.358C186.842 183.899 187.251 184.576 187.728 185.32C188.205 186.065 187.864 189.651 188.273 191.342C188.682 193.034 189.023 193.507 189.704 195.605C190.454 197.973 192.021 200.138 189.909 206.024C187.728 211.978 184.662 214.617 182.072 215.97C180.71 216.647 179.006 216.579 179.006 216.579C179.006 216.579 175.735 215.158 176.349 213.264C176.962 211.369 186.093 183.358 186.093 183.358Z" fill="#263238"/>
<path d="M171.306 189.245C171.374 189.853 172.192 190.868 172.533 191.342C173.623 193.101 174.1 195.402 174.373 197.431C175.872 206.971 171.851 211.572 176.826 215.361C178.257 216.376 181.323 216.241 186.297 210.49C188.819 207.58 190.454 201.356 189.704 198.514C188.887 195.672 187.728 193.71 187.251 191.545C186.774 189.312 187.251 185.32 186.161 183.358C185.48 182.208 184.389 181.396 183.299 180.719C182.413 180.11 181.459 178.69 180.505 178.148C179.551 177.539 179.143 176.998 178.529 177.607L179.551 178.96C181.119 181.328 179.688 182.208 179.551 183.426C179.483 184.711 179.824 186.065 179.96 187.35C178.87 185.794 178.393 184.508 177.098 184.644C175.872 184.779 175.667 184.711 173.691 186.403C171.783 188.027 171.238 188.636 171.306 189.245Z" fill="#BA68C8"/>
<path opacity="0.4" d="M171.306 189.245C171.374 189.853 172.192 190.868 172.533 191.342C173.623 193.101 174.1 195.402 174.373 197.431C175.872 206.971 171.851 211.572 176.826 215.361C178.257 216.376 181.323 216.241 186.297 210.49C188.819 207.58 190.454 201.356 189.704 198.514C188.887 195.672 187.728 193.71 187.251 191.545C186.774 189.312 187.251 185.32 186.161 183.358C185.48 182.208 184.389 181.396 183.299 180.719C182.413 180.11 181.459 178.69 180.505 178.148C179.551 177.539 179.143 176.998 178.529 177.607L179.551 178.96C181.119 181.328 179.688 182.208 179.551 183.426C179.483 184.711 179.824 186.065 179.96 187.35C178.87 185.794 178.393 184.508 177.098 184.644C175.872 184.779 175.667 184.711 173.691 186.403C171.783 188.027 171.238 188.636 171.306 189.245Z" fill="black"/>
<path opacity="0.3" d="M186.297 210.49C188.819 207.58 190.454 201.356 189.705 198.514C189.432 197.499 189.091 196.552 188.751 195.74C188.751 195.943 188.819 196.146 188.819 196.281C188.887 196.619 188.887 197.025 188.887 197.364C188.955 198.785 188.887 200.341 188.205 201.626C187.592 202.776 186.229 205.686 184.662 205.686C183.776 205.686 183.027 204.739 182.754 203.724C182.618 203.318 182.413 202.168 182.413 202.168C182.413 202.168 180.029 202.574 178.189 203.656C175.804 205.077 175.872 205.415 175.872 205.415C175.94 205.957 176.008 206.836 175.872 207.445C175.736 208.054 175.327 209.069 174.918 209.407C174.714 209.61 174.509 209.745 174.305 209.881C174.305 212.046 174.782 213.805 176.894 215.361C178.257 216.308 181.391 216.173 186.297 210.49Z" fill="black"/>
<path d="M174.372 197.364C174.849 200.341 174.781 202.777 174.645 204.942C175.395 207.377 176.144 207.377 176.349 206.092C176.485 204.806 175.054 199.596 174.032 195.199C174.168 196.011 174.304 196.687 174.372 197.364Z" fill="#37474F"/>
<path d="M180.846 182.546C181.05 181.396 181.664 179.569 181.05 178.487C180.846 178.351 180.641 178.284 180.437 178.148C179.483 177.539 179.074 176.998 178.461 177.607L179.483 178.96C181.05 181.328 179.619 182.208 179.483 183.426C179.415 184.711 179.756 186.065 179.892 187.35C180.641 191.477 181.459 192.898 181.732 196.822C182.004 200.679 181.118 203.25 181.664 203.521C182.209 203.791 183.367 203.385 183.708 200.273C184.049 197.161 182.89 191.883 182.072 189.38C181.255 186.876 180.573 184.17 180.846 182.546Z" fill="#37474F"/>
<path d="M182.686 202.371C182.618 202.438 182.549 202.438 182.481 202.438C179.688 202.844 178.257 203.453 176.076 205.754C175.94 205.889 175.667 205.889 175.531 205.754C175.395 205.618 175.395 205.348 175.531 205.212C177.78 202.776 179.415 202.1 182.345 201.626C182.549 201.626 182.754 201.762 182.822 201.965C182.822 202.168 182.754 202.303 182.686 202.371Z" fill="#EBEBEB"/>
<path d="M182.345 199.123C182.277 199.191 182.209 199.191 182.141 199.191C179.279 199.732 177.644 200.408 175.395 202.844C175.19 203.047 174.986 202.979 174.85 202.844C174.713 202.709 174.713 202.438 174.85 202.303C177.235 199.799 179.006 198.988 182.005 198.446C182.209 198.379 182.413 198.582 182.482 198.785C182.482 198.92 182.413 199.055 182.345 199.123Z" fill="#EBEBEB"/>
<path d="M182.549 195.605C182.481 195.672 182.413 195.672 182.345 195.74C179.21 196.281 177.302 197.161 174.781 199.867C174.645 200.07 174.304 200.07 174.168 199.867C173.964 199.732 173.964 199.393 174.168 199.258C176.825 196.484 178.87 195.469 182.209 194.86C182.481 194.793 182.686 194.996 182.754 195.199C182.754 195.334 182.686 195.537 182.549 195.605Z" fill="#EBEBEB"/>
<path d="M182.209 192.56C182.141 192.628 182.072 192.627 182.004 192.695C178.938 193.236 177.098 194.116 174.645 196.687C174.509 196.822 174.236 196.89 174.032 196.687C173.827 196.552 173.827 196.281 174.032 196.078C176.621 193.372 178.597 192.425 181.868 191.816C182.072 191.748 182.345 191.951 182.345 192.154C182.345 192.289 182.277 192.425 182.209 192.56Z" fill="#EBEBEB"/>
<path d="M181.187 189.515C181.119 189.583 181.05 189.583 180.982 189.65C177.916 190.192 176.076 191.071 173.623 193.642C173.487 193.778 173.214 193.845 173.01 193.642C172.805 193.507 172.805 193.236 173.01 193.033C175.599 190.327 177.575 189.38 180.846 188.771C181.05 188.703 181.323 188.906 181.323 189.109C181.391 189.312 181.323 189.448 181.187 189.515Z" fill="#EBEBEB"/>
<path d="M190.182 135.658C190.182 135.658 168.24 131.328 150.728 134.372C138.054 136.538 139.212 146.754 141.461 153.114C145.958 165.564 166.605 185.185 166.605 185.185C166.605 185.185 176.144 181.058 178.189 174.833L172.942 163.872L188.682 168.338L190.386 166.105L190.182 135.658Z" fill="#455A64"/>
<path d="M162.857 181.464C165.106 183.764 166.605 185.185 166.605 185.185C166.605 185.185 176.144 181.058 178.189 174.833L176.076 170.367L162.857 181.464Z" fill="#37474F"/>
<path d="M170.148 154.4C173.487 159.068 175.668 162.519 176.962 164.955L173.01 163.804C168.24 153.452 167.218 150.408 159.995 145.739C159.995 145.739 165.106 147.498 170.148 154.4Z" fill="#37474F"/>
<path d="M172.328 179.366L164.22 185.929L159.586 188.771L164.356 198.852L179.619 191.613L172.328 179.366Z" fill="#F28F8F"/>
<path d="M141.052 193.913C137.577 195.266 135.464 196.619 133.829 198.717C132.194 200.814 131.717 202.912 133.284 205.415C134.783 207.919 137.577 210.896 140.916 210.693C144.254 210.49 146.299 209.678 149.365 207.986L141.052 193.913Z" fill="#263238"/>
<path d="M168.785 196.822C168.853 197.837 164.424 199.935 159.927 202.1C155.021 204.4 153.862 205.889 149.842 207.851C145.277 210.084 143.573 210.219 140.03 209.204C136.486 208.257 132.125 203.183 135.192 198.582C137.645 194.793 140.847 193.778 145.754 192.492C150.796 191.207 153.453 190.26 157.133 188.839C160.676 187.485 163.538 185.05 164.288 185.862C163.811 186.132 161.017 188.636 160.813 188.974C160.608 189.312 160.268 189.921 161.222 189.583C161.63 189.448 162.244 189.245 162.652 189.448C163.061 189.651 164.492 191.816 164.969 192.898C165.242 193.507 166.128 195.672 165.651 196.552C165.446 196.89 164.152 197.837 164.56 198.108C164.833 198.243 165.651 198.04 165.923 197.905C166.264 197.77 166.605 197.702 166.945 197.567C167.15 197.567 167.967 197.228 168.785 196.822Z" fill="#BA68C8"/>
<path opacity="0.4" d="M168.785 196.822C168.853 197.837 164.424 199.935 159.927 202.1C155.021 204.4 153.862 205.889 149.842 207.851C145.277 210.084 143.573 210.219 140.03 209.204C136.486 208.257 132.125 203.183 135.192 198.582C137.645 194.793 140.847 193.778 145.754 192.492C150.796 191.207 153.453 190.26 157.133 188.839C160.676 187.485 163.538 185.05 164.288 185.862C163.811 186.132 161.017 188.636 160.813 188.974C160.608 189.312 160.268 189.921 161.222 189.583C161.63 189.448 162.244 189.245 162.652 189.448C163.061 189.651 164.492 191.816 164.969 192.898C165.242 193.507 166.128 195.672 165.651 196.552C165.446 196.89 164.152 197.837 164.56 198.108C164.833 198.243 165.651 198.04 165.923 197.905C166.264 197.77 166.605 197.702 166.945 197.567C167.15 197.567 167.967 197.228 168.785 196.822Z" fill="black"/>
<path opacity="0.3" d="M151.341 207.107C150.66 207.445 146.571 209.34 145.277 208.189C143.846 206.971 147.185 205.009 147.185 205.009C147.185 205.009 147.662 201.897 143.914 197.364C143.232 197.837 140.575 197.837 140.575 196.281C140.643 194.725 145.14 192.763 145.208 192.695C140.575 193.913 137.509 194.996 135.055 198.649C131.989 203.25 136.35 208.257 139.893 209.272C143.437 210.219 145.14 210.151 149.706 207.919C150.251 207.648 151 207.31 151.341 207.107Z" fill="black"/>
<path d="M146.776 204.671C145.072 205.212 146.231 206.768 148.752 206.295C152.568 205.551 155.702 203.385 159.859 202.1C164.424 199.935 169.058 197.905 168.717 196.822C167.899 197.093 166.128 197.837 166.128 197.837C165.787 197.973 164.901 198.311 164.901 198.311C161.426 199.799 157.61 202.168 153.931 203.182C150.728 203.994 148.479 204.13 146.776 204.671Z" fill="#37474F"/>
<path d="M144.186 197.905C145.754 197.025 146.026 196.214 149.161 194.793C152.227 193.372 157.474 190.395 160.745 188.5C161.767 187.959 164.22 185.929 164.22 185.929C163.675 185.32 161.699 185.862 159.722 187.147C157.746 188.365 156.52 189.177 154.612 190.192C150.796 192.425 146.503 193.981 144.323 195.402C142.142 196.755 142.619 198.852 144.186 197.905Z" fill="#37474F"/>
<path d="M143.982 197.499C143.982 197.567 144.05 197.567 144.05 197.634C144.05 197.634 146.571 200.341 146.98 205.212C146.98 205.483 147.184 205.618 147.389 205.618C147.593 205.618 147.73 205.415 147.73 205.212C147.253 200.002 144.663 197.228 144.527 197.025C144.391 196.822 144.118 196.822 143.982 197.025C143.914 197.161 143.914 197.364 143.982 197.499Z" fill="#F0F0F0"/>
<path d="M147.048 195.266C147.048 195.334 147.116 195.334 147.116 195.402C147.116 195.469 150.114 198.988 150.796 204.333C150.796 204.536 151 204.739 151.273 204.739C151.477 204.739 151.613 204.536 151.613 204.265C150.932 198.582 147.866 194.928 147.729 194.793C147.593 194.59 147.321 194.59 147.184 194.725C146.98 194.928 146.912 195.131 147.048 195.266Z" fill="#F0F0F0"/>
<path d="M153.726 204.062C153.794 204.197 153.931 204.333 154.067 204.333C154.271 204.333 154.476 204.13 154.476 203.927C154.271 198.446 150.728 193.304 150.592 193.101C150.455 192.898 150.183 192.898 150.047 193.101C149.91 193.236 149.91 193.507 150.047 193.71C150.115 193.778 153.522 198.785 153.658 203.859C153.726 203.927 153.726 203.994 153.726 204.062Z" fill="#F0F0F0"/>
<path d="M156.588 202.235C156.656 202.371 156.792 202.506 156.928 202.506C157.133 202.506 157.337 202.371 157.337 202.1C157.201 196.011 153.385 192.019 153.249 191.816C153.044 191.68 152.84 191.68 152.704 191.816C152.567 192.019 152.636 192.289 152.772 192.425C152.84 192.492 156.52 196.349 156.588 201.965C156.52 202.1 156.588 202.168 156.588 202.235Z" fill="#F0F0F0"/>
<path d="M160.268 200.679C160.336 200.814 160.472 200.95 160.608 200.95C160.813 200.95 161.017 200.814 161.017 200.544C161.017 194.86 156.929 190.395 156.792 190.259C156.656 190.124 156.384 190.124 156.247 190.259C156.111 190.395 156.111 190.733 156.315 190.868C156.384 190.936 160.268 195.199 160.268 200.476C160.199 200.611 160.199 200.679 160.268 200.679Z" fill="#EBEBEB"/>
<path d="M188.819 135.455L234.269 143.709C234.269 143.709 238.766 160.624 234.882 170.638C230.998 180.652 220.845 183.832 216.007 184.238C209.057 184.779 201.016 182.614 201.016 182.614C201.016 182.614 196.996 185.726 192.975 187.35C188.887 188.974 171.102 196.349 171.102 196.349C171.102 196.349 163.879 194.048 164.356 185.253L185.412 163.466L188.819 135.455Z" fill="#455A64"/>
<path d="M204.763 176.727C204.763 176.727 202.106 180.584 193.384 184.238C188.75 186.2 173.964 193.169 168.444 194.86C169.875 195.943 171.102 196.349 171.102 196.349C171.102 196.349 188.887 188.974 192.975 187.35C197.064 185.726 201.016 182.614 201.016 182.614C204.832 179.299 204.763 176.727 204.763 176.727Z" fill="#37474F"/>
<path d="M210.351 180.99C214.712 181.667 226.433 179.569 230.249 171.315C233.996 163.263 232.702 153.723 231.884 145.469L233.315 145.807L234.95 146.213C236.04 151.287 238.017 162.993 235.018 170.706C231.134 180.719 220.981 183.899 216.143 184.305C209.193 184.847 201.152 182.682 201.152 182.682L203.469 179.163C203.333 179.096 205.922 180.246 210.351 180.99Z" fill="#37474F"/>
<path d="M182.482 166.511C182.482 166.511 184.185 164.684 185.889 162.654C187.592 160.624 190.386 156.835 197.541 157.106C204.695 157.377 218.392 158.595 218.392 158.595C218.392 158.595 204.082 156.159 199.108 155.347C194.134 154.535 190.863 155.076 188.069 157.58C185.275 160.083 180.233 165.834 180.233 165.834L182.482 166.511Z" fill="#37474F"/>
<path d="M192.976 156.565C192.976 156.565 189.364 152.911 189.637 146.754C189.637 146.754 187.933 153.249 190.659 157.918L192.976 156.565Z" fill="#37474F"/>
<path d="M196.587 87.0106C191.135 88.0255 186.638 89.3786 183.367 95.0621C180.233 100.407 167.286 122.938 167.286 122.938L182.345 130.786L193.384 111.977L196.587 87.0106Z" fill="#BA68C8"/>
<path opacity="0.55" d="M196.587 87.0106C191.135 88.0255 186.638 89.3786 183.367 95.0621C180.233 100.407 167.286 122.938 167.286 122.938L182.345 130.786L193.384 111.977L196.587 87.0106Z" fill="white"/>
<path d="M188.955 106.835C190.794 91.4085 196.45 87.4842 199.312 86.6046L210.555 85.4544C213.894 86.131 227.863 91.7468 231.747 93.0323C234.268 93.9119 235.29 99.1217 235.836 107.376C236.244 114.075 236.313 119.69 236.108 128.892C235.904 136.673 235.699 145.469 233.314 156.227C215.325 159.948 195.496 151.761 186.365 134.305C186.842 132.14 187.115 129.501 187.455 124.156C187.932 118.878 188.478 111.03 188.955 106.835Z" fill="#263238"/>
<path d="M233.11 93.4382L221.049 88.0255C221.049 88.0255 219.55 91.5438 216.279 98.2421C213.008 104.94 212.872 108.053 212.6 119.758C212.327 131.531 212.6 156.903 211.237 161.639C216.416 162.384 233.723 161.098 236.858 159.204C236.858 159.204 237.13 139.988 237.607 128.012C238.016 115.969 239.038 96.8212 233.11 93.4382Z" fill="#BA68C8"/>
<path opacity="0.35" d="M233.11 93.4382L221.049 88.0255C221.049 88.0255 219.55 91.5438 216.279 98.2421C213.008 104.94 212.872 108.053 212.6 119.758C212.327 131.531 212.6 156.903 211.237 161.639C216.416 162.384 233.723 161.098 236.858 159.204C236.858 159.204 237.13 139.988 237.607 128.012C238.016 115.969 239.038 96.8212 233.11 93.4382Z" fill="white"/>
<path d="M205.445 87.0106C200.675 88.8374 197.131 94.1148 196.041 101.422C194.883 108.729 193.793 123.615 192.975 129.095C192.157 134.575 189.091 142.762 189.091 142.762C186.91 141.409 184.594 136.673 184.525 133.29C185.684 129.907 185.888 128.283 186.365 123.682C186.842 119.081 188.069 108.459 188.75 102.911C189.432 97.2948 191.476 90.3259 196.518 86.9429C201.561 85.8603 205.308 85.6573 205.308 85.6573L205.445 87.0106Z" fill="#BA68C8"/>
<path opacity="0.35" d="M205.445 87.0106C200.675 88.8374 197.131 94.1148 196.041 101.422C194.883 108.729 193.793 123.615 192.975 129.095C192.157 134.575 189.091 142.762 189.091 142.762C186.91 141.409 184.594 136.673 184.525 133.29C185.684 129.907 185.888 128.283 186.365 123.682C186.842 119.081 188.069 108.459 188.75 102.911C189.432 97.2948 191.476 90.3259 196.518 86.9429C201.561 85.8603 205.308 85.6573 205.308 85.6573L205.445 87.0106Z" fill="white"/>
<path d="M195.496 105.617C196.178 100.272 199.244 90.6642 205.104 88.7021C205.445 87.9578 205.445 87.0106 205.445 87.0106L205.377 84.2365C205.377 84.2365 202.924 85.0484 200.402 86.6723C197.881 88.2961 193.52 93.5059 192.362 97.6332C194.883 95.468 195.905 98.9864 195.496 105.617Z" fill="#BA68C8"/>
<path opacity="0.55" d="M195.496 105.617C196.178 100.272 199.244 90.6642 205.104 88.7021C205.445 87.9578 205.445 87.0106 205.445 87.0106L205.377 84.2365C205.377 84.2365 202.924 85.0484 200.402 86.6723C197.881 88.2961 193.52 93.5059 192.362 97.6332C194.883 95.468 195.905 98.9864 195.496 105.617Z" fill="white"/>
<path d="M220.436 81.5978C221.458 77.9441 225.546 74.3582 227.522 71.2458C229.43 68.2688 230.657 65.9007 230.725 62.9236C230.793 61.1645 229.907 58.6611 228.612 58.0521C230.725 51.6921 226.091 48.1738 223.57 47.3619C222.616 47.0236 220.981 46.4823 220.027 46.0087C218.664 45.2644 218.459 44.1142 217.369 43.0317C215.529 41.2048 212.259 40.8665 210.759 43.2346C209.601 41.4078 207.829 41.2725 205.717 41.6108C203.741 41.9491 202.651 43.5053 202.651 45.3321C200.061 43.5729 197.336 45.2644 196.927 46.8206C196.654 47.9708 196.791 48.9857 195.905 50.0006C194.883 51.0832 193.247 50.9479 192.838 49.933C192.361 51.5568 192.907 52.91 194.746 53.0453C193.997 53.9249 193.724 55.0751 193.929 56.2253C194.201 57.7815 195.632 58.7964 196.859 58.9317C196.995 59.879 196.927 60.6909 197.404 61.5705C197.881 62.3824 198.562 63.1943 199.38 63.7356C202.037 65.2917 205.104 66.036 208.034 66.9156C209.192 67.2539 210.351 67.6598 211.509 67.9981C211.713 68.0658 212.804 68.2011 212.872 68.4041C213.144 68.3364 220.436 81.5978 220.436 81.5978Z" fill="#263238"/>
<path d="M225.478 77.1999C222.684 78.5531 221.049 76.6586 221.049 76.6586L220.64 84.2365V90.3936C220.64 90.3936 213.144 98.3774 202.923 97.9038C202.378 95.6034 203.128 91.6114 204.763 89.6493L205.036 83.8306C205.036 83.8306 202.31 83.6276 200.538 83.2216C197.608 82.545 195.36 79.974 194.815 76.7263C194.269 73.3433 194.542 67.8628 195.632 63.9386C195.905 62.9237 196.109 61.9088 196.109 60.8939C196.109 58.1198 196.723 56.5637 197.676 54.3985C201.152 52.0981 209.056 52.0304 215.666 56.9019C214.439 60.9615 215.802 64.4122 218.664 66.239C218.391 67.3216 217.982 70.1633 219.89 70.2986C221.253 70.3663 221.458 68.7424 222.957 67.3892C224.524 66.036 227.727 65.9684 228.749 68.2688C230.112 71.3812 228.544 75.779 225.478 77.1999Z" fill="#F28F8F"/>
<path d="M204.968 83.8305C209.737 83.6952 213.349 83.5599 216.075 80.3799C217.778 78.4178 219.413 75.1024 219.413 75.1024C219.413 75.1024 218.528 79.162 216.756 81.8007C215.393 83.8305 212.327 85.3867 204.899 85.3191L204.968 83.8305Z" fill="#B16668"/>
<path d="M208.102 65.5624C208.034 66.3067 208.511 66.9832 209.26 67.0509C210.01 67.1186 210.623 66.5773 210.759 65.833C210.827 65.0888 210.35 64.4122 209.601 64.3445C208.851 64.2769 208.238 64.8181 208.102 65.5624Z" fill="#263238"/>
<path d="M209.601 61.5705L212.122 63.6002C212.667 62.856 212.531 61.8411 211.85 61.2998C211.168 60.7585 210.146 60.8939 209.601 61.5705Z" fill="#263238"/>
<path d="M197.336 60.6909L200.538 60.2849C200.47 59.4054 199.653 58.7288 198.767 58.8641C197.881 58.9994 197.268 59.8113 197.336 60.6909Z" fill="#263238"/>
<path d="M197.336 63.8709C197.267 64.6152 197.744 65.2918 198.494 65.3594C199.243 65.4271 199.857 64.8858 199.993 64.1416C200.061 63.3973 199.584 62.7207 198.835 62.653C198.153 62.5854 197.472 63.1267 197.336 63.8709Z" fill="#263238"/>
<path d="M198.494 69.0131L202.787 71.6518L205.445 62.9913C203.877 62.1794 201.083 65.9684 198.494 69.0131Z" fill="#B16668"/>
<path d="M207.897 74.5612L202.242 74.9671C202.31 76.591 203.605 77.7412 205.172 77.6735C206.807 77.5382 207.966 76.1173 207.897 74.5612Z" fill="#B16668"/>
<path d="M207.148 75.3054C207.352 75.3054 207.625 75.3731 207.829 75.4407C207.488 76.591 206.466 77.5382 205.24 77.6059C204.899 77.6059 204.627 77.6059 204.354 77.5382C204.422 76.2527 205.649 75.3054 207.148 75.3054Z" fill="#FFA8A7"/>
<path d="M213.077 109.203C214.371 98.6481 218.869 98.1068 219.891 101.557C223.775 95.8064 223.911 90.8672 223.843 88.9051C222.821 87.0782 221.935 85.5897 221.594 84.9131C221.117 84.0335 220.572 84.1689 220.572 84.1689V86.8753C220.572 86.8753 219.959 89.92 216.756 93.8442C214.508 96.6859 213.69 100.34 213.077 109.203Z" fill="#BA68C8"/>
<path opacity="0.55" d="M213.077 109.203C214.371 98.6481 218.869 98.1068 219.891 101.557C223.775 95.8064 223.911 90.8672 223.843 88.9051C222.821 87.0782 221.935 85.5897 221.594 84.9131C221.117 84.0335 220.572 84.1689 220.572 84.1689V86.8753C220.572 86.8753 219.959 89.92 216.756 93.8442C214.508 96.6859 213.69 100.34 213.077 109.203Z" fill="white"/>
<path d="M160.131 112.18L161.154 111.165C161.426 110.962 161.767 110.894 162.312 110.962L175.395 114.007C176.485 114.277 177.78 115.36 178.189 116.375L187.729 140.597C187.933 141.138 187.865 141.612 187.592 141.883L186.502 142.898C186.229 143.101 185.889 143.168 185.344 143.101L172.261 140.056C171.17 139.785 169.876 138.703 169.467 137.688C167.559 132.952 161.767 118.202 159.927 113.466C159.723 112.857 159.859 112.383 160.131 112.18Z" fill="#455A64"/>
<path d="M175.599 115.631C176.212 116.104 176.826 116.713 177.03 117.39L186.57 141.612C186.774 142.153 186.774 142.559 186.502 142.83L187.524 141.883C187.796 141.612 187.864 141.206 187.66 140.597L178.12 116.375C177.916 115.766 177.371 115.157 176.758 114.683L175.599 115.631Z" fill="#455A64"/>
<path d="M186.638 141.612L177.098 117.39C176.689 116.307 175.463 115.292 174.304 115.022L161.221 111.977C160.131 111.706 159.518 112.383 159.927 113.466C161.835 118.202 167.627 132.952 169.466 137.688C169.875 138.77 171.102 139.785 172.26 140.056L185.343 143.101C186.502 143.371 187.047 142.695 186.638 141.612Z" fill="#263238"/>
<path d="M177.303 122.532L175.531 117.999C175.463 117.796 175.19 117.593 174.986 117.525L172.737 116.984C172.533 116.916 172.397 117.052 172.533 117.254C172.874 118.134 173.964 120.908 174.305 121.788C174.373 121.991 174.645 122.194 174.85 122.261L177.098 122.803C177.235 122.87 177.371 122.735 177.303 122.532Z" fill="#455A64"/>
<path d="M175.395 119.149C175.19 118.675 174.645 118.202 174.1 118.066C173.555 117.931 173.282 118.202 173.487 118.743C173.691 119.217 174.236 119.69 174.781 119.826C175.327 119.893 175.599 119.623 175.395 119.149Z" fill="#263238"/>
<path d="M176.281 121.449C176.076 120.976 175.531 120.502 174.986 120.367C174.441 120.232 174.168 120.502 174.373 121.043C174.577 121.517 175.122 121.991 175.667 122.126C176.212 122.194 176.485 121.923 176.281 121.449Z" fill="#263238"/>
<path d="M163.061 127.606C161.767 126.186 161.903 125.983 162.38 125.171C162.857 124.359 164.083 122.87 166.128 122.735C167.491 122.6 168.853 122.464 169.603 122.735C170.352 123.006 169.875 124.562 168.172 125.103C165.446 126.05 165.583 126.795 165.583 126.795C165.583 126.795 168.104 125.983 169.126 125.78C170.148 125.644 172.056 125.915 173.283 125.915C174.441 125.983 174.85 127.471 172.942 128.148C172.942 128.148 174.441 128.215 175.122 128.283C176.621 128.351 177.235 129.095 176.144 130.178C175.872 130.448 175.531 130.719 174.85 130.854C174.85 130.854 176.417 130.651 176.553 131.192C176.826 132.681 175.872 133.222 172.737 134.508C169.739 135.726 169.33 137.417 170.012 138.5C170.012 138.5 168.717 137.891 167.491 137.282C166.605 136.808 165.855 136.267 166.06 134.981C166.06 134.981 164.288 135.184 164.083 134.169C163.879 133.087 164.22 131.801 164.22 131.801C164.22 131.801 163.13 131.395 163.061 130.11C162.993 128.824 163.47 128.148 163.47 128.148L163.061 127.606Z" fill="#F28F8F"/>
<path d="M172.873 128.148C172.192 128.148 171.579 128.08 170.897 128.148C170.216 128.283 169.603 128.621 169.058 128.96C167.967 129.636 166.877 130.313 165.855 131.125C167.082 130.651 168.24 130.11 169.33 129.433C169.875 129.095 170.42 128.757 170.966 128.554C171.579 128.418 172.26 128.351 172.873 128.148Z" fill="#B16668"/>
<path d="M174.782 130.786C174.1 130.651 173.351 130.719 172.669 130.922C171.988 131.125 171.375 131.463 170.761 131.801C169.535 132.478 168.376 133.222 167.286 134.169C168.581 133.628 169.807 132.952 171.034 132.343C172.26 131.666 173.419 130.989 174.782 130.786Z" fill="#B16668"/>
<path d="M195.564 144.251C191.34 143.304 189.296 143.371 184.458 141.003C182.413 140.056 180.914 139.312 179.688 138.364C178.393 137.417 177.303 136.199 176.553 134.711C176.417 134.44 176.349 134.169 176.144 133.899C175.94 133.696 175.735 133.493 175.531 133.29C175.122 132.952 174.645 132.613 174.373 132.14C174.032 131.666 173.896 131.057 173.623 130.516C173.487 130.245 173.419 129.975 173.282 129.772C173.146 129.501 172.942 129.298 172.805 129.095C172.328 128.554 171.783 128.012 171.511 127.268C171.238 126.592 171.647 126.186 171.647 126.186C171.647 126.186 170.966 125.577 170.693 125.306C170.352 124.968 170.08 124.629 169.807 124.223C169.739 124.088 169.603 123.885 169.671 123.75C169.671 123.682 169.739 123.547 169.807 123.479C170.966 122.397 172.465 123.006 173.759 123.614C177.166 125.238 180.914 127.606 182.481 128.418C184.049 129.23 185.684 129.636 185.548 128.689C185.411 127.742 183.435 125.306 183.163 122.397C183.027 120.976 184.253 119.352 185.48 120.976C187.728 124.156 187.796 123.479 190.59 126.389C192.43 128.283 193.588 130.922 196.587 131.666C199.585 132.41 218.392 134.034 218.392 134.034L224.388 111.3C224.388 111.3 227.25 97.2272 233.042 93.2352C239.107 95.9416 242.377 100.407 242.718 103.452C243.399 108.797 242.105 113.466 238.902 125.915C236.176 136.402 233.519 142.965 231.475 146.687C229.022 151.287 227.386 150.746 217.301 149.19C210.01 148.243 199.789 145.198 195.564 144.251Z" fill="#F28F8F"/>
<path d="M218.46 134.237C222.412 133.696 226.978 135.59 226.978 135.59C226.978 135.59 223.502 133.087 218.801 133.019L218.46 134.237Z" fill="#B16668"/>
<path d="M171.715 126.389C172.397 127.065 173.146 127.674 173.896 128.283C174.645 128.892 175.395 129.433 176.144 130.042C176.485 130.313 176.894 130.651 177.303 130.922C177.712 131.192 178.121 131.463 178.461 131.734C179.279 132.207 180.097 132.681 180.914 133.087L179.756 132.275C179.347 132.004 179.006 131.734 178.598 131.463C178.189 131.192 177.848 130.922 177.439 130.651C177.098 130.38 176.69 130.042 176.349 129.772C175.599 129.163 174.85 128.621 174.032 128.08L171.715 126.389Z" fill="#B16668"/>
<path d="M173.214 129.704C173.623 130.313 174.168 130.922 174.713 131.395C175.259 131.937 175.804 132.41 176.349 132.884C176.894 133.357 177.507 133.831 178.052 134.237C178.666 134.643 179.279 135.049 179.892 135.387C179.347 134.914 178.734 134.44 178.189 133.966L176.485 132.546L174.782 131.125C174.305 130.719 173.759 130.177 173.214 129.704Z" fill="#B16668"/>
<path d="M209.806 133.425C211.645 135.658 211.032 145.807 209.806 148.243C218.391 150.746 225.751 151.152 227.999 151.22C230.248 151.287 231.406 149.799 233.451 145.063C235.495 140.326 239.788 128.283 241.627 119.487C243.535 110.691 244.489 104.399 242.581 100.475C240.605 96.4829 237.13 94.9267 233.11 93.3705C230.521 94.8591 226.432 99.1893 223.843 110.083L218.119 133.763L209.806 133.425Z" fill="#BA68C8"/>
<path opacity="0.55" d="M209.806 133.425C211.645 135.658 211.032 145.807 209.806 148.243C218.391 150.746 225.751 151.152 227.999 151.22C230.248 151.287 231.406 149.799 233.451 145.063C235.495 140.326 239.788 128.283 241.627 119.487C243.535 110.691 244.489 104.399 242.581 100.475C240.605 96.4829 237.13 94.9267 233.11 93.3705C230.521 94.8591 226.432 99.1893 223.843 110.083L218.119 133.763L209.806 133.425Z" fill="white"/>
<path opacity="0.35" d="M218.119 133.831C222.548 134.508 226.296 136.943 226.296 136.943C226.296 136.943 224.524 133.222 218.459 132.207L218.119 133.831Z" fill="#BA68C8"/>
<path d="M72.3657 218C71.071 218 69.9127 217.053 69.6401 215.767L69.1631 213.331C68.0729 213.129 67.0507 212.858 66.0968 212.587L61.395 214.752C60.9862 214.955 60.5092 215.023 60.0322 215.023C59.6234 215.023 59.0101 214.955 58.3968 214.617L53.5588 211.843C52.8093 211.437 52.3323 210.693 52.3323 209.881C52.2642 209.069 52.673 208.325 53.3544 207.783L55.8756 205.957C55.7393 205.754 55.6712 205.618 55.5349 205.415L49.6067 205.077C48.1757 205.009 47.0854 203.791 47.0854 202.438V198.852C47.0854 197.431 48.1757 196.281 49.6067 196.214L55.5349 195.875C55.6712 195.672 55.7393 195.537 55.8756 195.334L53.3544 193.507C52.673 193.034 52.2642 192.222 52.3323 191.41C52.4004 190.598 52.8093 189.854 53.5588 189.448L58.3968 186.674C59.0101 186.335 59.6234 186.268 60.0322 186.268C60.5092 186.268 60.9862 186.335 61.395 186.538L66.0968 188.703C67.1189 188.433 68.141 188.162 69.1631 187.959L69.6401 185.523C69.9127 184.238 71.071 183.291 72.3657 183.291H79.4524C80.7471 183.291 81.9055 184.238 82.178 185.523L82.655 187.959C83.7453 188.162 84.7674 188.433 85.7213 188.703L90.4231 186.538C90.8319 186.335 91.3089 186.268 91.7859 186.268C92.1947 186.268 92.808 186.335 93.4213 186.674L98.2593 189.448C99.0088 189.854 99.4858 190.598 99.4858 191.41C99.554 192.222 99.1451 192.966 98.4637 193.507L95.9425 195.334C96.0788 195.537 96.1469 195.672 96.2832 195.875L102.211 196.214C103.642 196.281 104.733 197.499 104.733 198.852V202.438C104.733 203.859 103.642 205.009 102.211 205.077L96.2832 205.415C96.1469 205.618 96.0788 205.754 95.9425 205.957L98.4637 207.783C99.1451 208.257 99.554 209.069 99.4858 209.881C99.4177 210.693 99.0088 211.437 98.2593 211.843L93.4213 214.617C92.808 214.955 92.1947 215.023 91.7859 215.023C91.3089 215.023 90.8319 214.955 90.4231 214.752L85.7213 212.587C84.6992 212.858 83.6771 213.129 82.655 213.331L82.178 215.767C81.9055 217.053 80.7471 218 79.4524 218H72.3657ZM75.9091 196.011C73.1834 196.011 70.5941 196.62 68.7543 197.702C67.2552 198.582 66.3693 199.597 66.3693 200.611C66.3693 201.626 67.2552 202.641 68.7543 203.521C70.5941 204.603 73.1834 205.212 75.9091 205.212C78.6347 205.212 81.224 204.603 83.0639 203.521C84.563 202.641 85.4488 201.626 85.4488 200.611C85.4488 199.597 84.563 198.582 83.0639 197.702C81.224 196.62 78.6347 196.011 75.9091 196.011Z" fill="#EBEBEB"/>
<path d="M97.2371 187.012L92.3991 184.238C92.1265 184.102 91.6495 184.035 91.3088 184.17L86.4027 186.403C86.1301 186.538 85.585 186.538 85.3124 186.471C84.0859 186.065 82.7912 185.794 81.4965 185.591C81.1558 185.523 80.8833 185.253 80.8151 184.914L80.2019 181.734C80.1337 181.396 79.793 181.125 79.4523 181.125H72.3657C72.025 181.125 71.6843 181.396 71.6161 181.734L71.0028 184.914C70.9347 185.253 70.594 185.523 70.3214 185.591C69.0268 185.794 67.7321 186.132 66.5055 186.471C66.1648 186.538 65.6879 186.538 65.4153 186.403L60.5091 184.17C60.2366 184.035 59.7596 184.035 59.4189 184.238L54.5809 187.012C54.4446 187.079 54.3765 187.215 54.3765 187.35V191.477C54.3765 191.613 54.4446 191.68 54.5809 191.816L56.8295 193.372C56.6933 193.507 56.4888 193.575 56.2844 193.575L49.811 193.981C49.4703 193.981 49.1978 194.319 49.1978 194.59V197.296V202.303C49.1978 202.641 49.4703 202.912 49.811 202.912L56.2844 203.318C56.4888 203.318 56.6933 203.453 56.8295 203.521L54.649 205.077C54.5127 205.145 54.4446 205.28 54.4446 205.415V209.61C54.4446 209.746 54.5127 209.881 54.649 209.949L59.487 212.723C59.7596 212.858 60.2366 212.926 60.5773 212.79L65.4834 210.557C65.756 210.422 66.3011 210.422 66.5737 210.49C67.8002 210.896 69.0949 211.166 70.3896 211.369C70.7303 211.437 71.0028 211.708 71.071 212.046L71.6843 215.226C71.7524 215.564 72.0931 215.835 72.4338 215.835H79.5205C79.8612 215.835 80.2019 215.564 80.27 215.226L80.8833 212.046C80.9514 211.708 81.2921 211.437 81.5647 211.369C82.8594 211.166 84.154 210.828 85.3806 210.49C85.7213 210.422 86.1983 210.422 86.4708 210.557L91.377 212.79C91.6495 212.926 92.1265 212.926 92.4672 212.723L97.3052 209.949C97.4415 209.881 97.5097 209.746 97.5097 209.61V205.415C97.5097 205.28 97.4415 205.212 97.3052 205.077L95.0566 203.521C95.1929 203.385 95.3973 203.318 95.6017 203.318L102.075 202.912C102.416 202.912 102.688 202.574 102.688 202.303V198.176V194.59C102.688 194.251 102.416 193.981 102.075 193.981L95.6017 193.575C95.3973 193.575 95.1929 193.44 95.0566 193.372L97.2371 191.816C97.3734 191.748 97.4415 191.613 97.4415 191.477V187.282C97.4415 187.215 97.3734 187.079 97.2371 187.012ZM64.5976 197.77C64.9383 196.62 65.9604 195.469 67.7321 194.454C72.2294 191.883 79.5205 191.883 84.0859 194.454C85.7213 195.402 86.8115 196.417 87.2885 197.499C86.8797 198.785 85.8576 200.07 84.0859 201.085C79.5886 203.656 72.2975 203.656 67.7321 201.085C66.0967 200.206 65.0064 198.988 64.5976 197.77Z" fill="#BA68C8"/>
<path opacity="0.2" d="M97.2371 187.012L92.3991 184.238C92.1265 184.102 91.6495 184.035 91.3088 184.17L86.4027 186.403C86.1301 186.538 85.585 186.538 85.3124 186.471C84.0859 186.065 82.7912 185.794 81.4965 185.591C81.1558 185.523 80.8833 185.253 80.8151 184.914L80.2019 181.734C80.1337 181.396 79.793 181.125 79.4523 181.125H72.3657C72.025 181.125 71.6843 181.396 71.6161 181.734L71.0028 184.914C70.9347 185.253 70.594 185.523 70.3214 185.591C69.0268 185.794 67.7321 186.132 66.5055 186.471C66.1648 186.538 65.6879 186.538 65.4153 186.403L60.5091 184.17C60.2366 184.035 59.7596 184.035 59.4189 184.238L54.5809 187.012C54.4446 187.079 54.3765 187.215 54.3765 187.35V191.477C54.3765 191.613 54.4446 191.68 54.5809 191.816L56.8295 193.372C56.6933 193.507 56.4888 193.575 56.2844 193.575L49.811 193.981C49.4703 193.981 49.1978 194.319 49.1978 194.59V197.296V202.303C49.1978 202.641 49.4703 202.912 49.811 202.912L56.2844 203.318C56.4888 203.318 56.6933 203.453 56.8295 203.521L54.649 205.077C54.5127 205.145 54.4446 205.28 54.4446 205.415V209.61C54.4446 209.746 54.5127 209.881 54.649 209.949L59.487 212.723C59.7596 212.858 60.2366 212.926 60.5773 212.79L65.4834 210.557C65.756 210.422 66.3011 210.422 66.5737 210.49C67.8002 210.896 69.0949 211.166 70.3896 211.369C70.7303 211.437 71.0028 211.708 71.071 212.046L71.6843 215.226C71.7524 215.564 72.0931 215.835 72.4338 215.835H79.5205C79.8612 215.835 80.2019 215.564 80.27 215.226L80.8833 212.046C80.9514 211.708 81.2921 211.437 81.5647 211.369C82.8594 211.166 84.154 210.828 85.3806 210.49C85.7213 210.422 86.1983 210.422 86.4708 210.557L91.377 212.79C91.6495 212.926 92.1265 212.926 92.4672 212.723L97.3052 209.949C97.4415 209.881 97.5097 209.746 97.5097 209.61V205.415C97.5097 205.28 97.4415 205.212 97.3052 205.077L95.0566 203.521C95.1929 203.385 95.3973 203.318 95.6017 203.318L102.075 202.912C102.416 202.912 102.688 202.574 102.688 202.303V198.176V194.59C102.688 194.251 102.416 193.981 102.075 193.981L95.6017 193.575C95.3973 193.575 95.1929 193.44 95.0566 193.372L97.2371 191.816C97.3734 191.748 97.4415 191.613 97.4415 191.477V187.282C97.4415 187.215 97.3734 187.079 97.2371 187.012ZM64.5976 197.77C64.9383 196.62 65.9604 195.469 67.7321 194.454C72.2294 191.883 79.5205 191.883 84.0859 194.454C85.7213 195.402 86.8115 196.417 87.2885 197.499C86.8797 198.785 85.8576 200.07 84.0859 201.085C79.5886 203.656 72.2975 203.656 67.7321 201.085C66.0967 200.206 65.0064 198.988 64.5976 197.77Z" fill="white"/>
<path opacity="0.1" d="M57.1019 199.867C56.9656 199.597 56.5568 199.326 56.2161 199.258L49.7427 198.852C49.402 198.852 49.1294 198.514 49.1294 198.243V197.431V202.438C49.1294 202.777 49.402 203.047 49.7427 203.047L56.2161 203.453C56.4205 203.453 56.6249 203.588 56.7612 203.656L58.3966 202.506C58.6691 202.303 58.6691 201.965 58.4647 201.694C57.9196 201.153 57.4426 200.476 57.1019 199.867ZM54.3762 191.477C54.3762 191.613 54.4444 191.68 54.5807 191.816L56.8293 193.44C56.9656 193.372 57.1019 193.237 57.17 193.101C57.5107 192.425 57.9877 191.816 58.5328 191.207C58.7373 190.936 58.7373 190.598 58.4647 190.395L54.6488 187.688C54.5125 187.621 54.4444 187.485 54.4444 187.418L54.3762 191.477Z" fill="black"/>
<path opacity="0.1" d="M84.0858 191.748C79.5885 189.177 72.2975 189.177 67.732 191.748C64.8701 193.372 63.848 195.672 64.5975 197.77C64.9383 196.62 65.9604 195.469 67.732 194.454C72.2293 191.883 79.5204 191.883 84.0858 194.454C85.7212 195.402 86.8115 196.417 87.2885 197.499C87.9017 195.537 86.8115 193.372 84.0858 191.748Z" fill="black"/>
<path d="M102.62 198.311C102.552 198.582 102.347 198.852 102.007 198.852L95.5334 199.258C95.3971 199.258 95.3289 199.326 95.1927 199.326V203.521C95.3289 203.453 95.3971 203.453 95.5334 203.453L102.007 203.047C102.347 203.047 102.62 202.709 102.62 202.438V198.311ZM97.4413 187.35C97.4413 187.418 97.4413 187.418 97.4413 187.485C97.4413 187.553 97.3732 187.553 97.3732 187.621L97.305 187.688L93.4891 190.395C93.421 190.395 93.421 190.462 93.421 190.462C93.3529 190.53 93.2847 190.598 93.2847 190.665C93.2847 190.733 93.2847 190.801 93.2847 190.801V190.868C93.2847 190.936 93.3529 191.004 93.421 191.071L93.4891 191.139C94.0343 191.748 94.4431 192.357 94.7838 192.966C94.852 193.101 94.9882 193.237 95.0564 193.304L97.305 191.748C97.4413 191.68 97.5095 191.545 97.5095 191.41L97.4413 187.35ZM97.4413 205.618C97.4413 205.754 97.3732 205.821 97.2369 205.889L92.3989 208.663C92.1945 208.798 91.9219 208.798 91.6493 208.798V212.926C91.9219 212.926 92.1945 212.926 92.3989 212.79L97.2369 210.016C97.3732 209.948 97.4413 209.813 97.4413 209.678V205.618ZM65.8921 206.363C65.6877 206.363 65.5514 206.43 65.4151 206.498L60.5089 208.731C60.3727 208.798 60.2364 208.798 60.1001 208.798V212.926C60.2364 212.926 60.4408 212.926 60.5089 212.858L65.4151 210.625C65.5514 210.557 65.7558 210.557 65.8921 210.49V206.363ZM80.0654 211.437C79.9291 211.64 79.7247 211.775 79.4521 211.775H72.3655C72.2292 211.775 72.0248 211.708 71.9566 211.64V215.835C72.0929 215.903 72.2292 215.97 72.3655 215.97H79.4521C79.7247 215.97 79.9291 215.835 80.0654 215.632V211.437Z" fill="#BA68C8"/>
<path opacity="0.7" d="M102.62 198.311C102.552 198.582 102.347 198.852 102.007 198.852L95.5334 199.258C95.3971 199.258 95.3289 199.326 95.1927 199.326V203.521C95.3289 203.453 95.3971 203.453 95.5334 203.453L102.007 203.047C102.347 203.047 102.62 202.709 102.62 202.438V198.311ZM97.4413 187.35C97.4413 187.418 97.4413 187.418 97.4413 187.485C97.4413 187.553 97.3732 187.553 97.3732 187.621L97.305 187.688L93.4891 190.395C93.421 190.395 93.421 190.462 93.421 190.462C93.3529 190.53 93.2847 190.598 93.2847 190.665C93.2847 190.733 93.2847 190.801 93.2847 190.801V190.868C93.2847 190.936 93.3529 191.004 93.421 191.071L93.4891 191.139C94.0343 191.748 94.4431 192.357 94.7838 192.966C94.852 193.101 94.9882 193.237 95.0564 193.304L97.305 191.748C97.4413 191.68 97.5095 191.545 97.5095 191.41L97.4413 187.35ZM97.4413 205.618C97.4413 205.754 97.3732 205.821 97.2369 205.889L92.3989 208.663C92.1945 208.798 91.9219 208.798 91.6493 208.798V212.926C91.9219 212.926 92.1945 212.926 92.3989 212.79L97.2369 210.016C97.3732 209.948 97.4413 209.813 97.4413 209.678V205.618ZM65.8921 206.363C65.6877 206.363 65.5514 206.43 65.4151 206.498L60.5089 208.731C60.3727 208.798 60.2364 208.798 60.1001 208.798V212.926C60.2364 212.926 60.4408 212.926 60.5089 212.858L65.4151 210.625C65.5514 210.557 65.7558 210.557 65.8921 210.49V206.363ZM80.0654 211.437C79.9291 211.64 79.7247 211.775 79.4521 211.775H72.3655C72.2292 211.775 72.0248 211.708 71.9566 211.64V215.835C72.0929 215.903 72.2292 215.97 72.3655 215.97H79.4521C79.7247 215.97 79.9291 215.835 80.0654 215.632V211.437Z" fill="white"/>
<path d="M91.3086 184.17L86.4025 186.403C86.1299 186.538 85.5848 186.538 85.3122 186.471C84.0857 186.065 82.791 185.794 81.4963 185.591C81.1556 185.523 80.8831 185.253 80.8149 184.914L80.2016 181.734C80.1335 181.396 79.7928 181.125 79.4521 181.125H72.3654C72.0247 181.125 71.684 181.396 71.6159 181.734L71.0026 184.914C70.9345 185.253 70.5938 185.523 70.3212 185.591C69.0265 185.794 67.7319 186.132 66.5053 186.471C66.1646 186.538 65.6876 186.538 65.4151 186.403L60.5089 184.17C60.2364 184.035 59.7594 184.035 59.4187 184.238L54.5807 187.012C54.3081 187.147 54.3081 187.485 54.5807 187.688L58.3966 190.395C58.6691 190.598 58.6691 190.936 58.4647 191.207C57.9196 191.816 57.4426 192.425 57.1019 193.101C56.9656 193.372 56.5568 193.642 56.2161 193.642L49.7427 194.048C49.402 194.048 49.1294 194.387 49.1294 194.657V198.243C49.1294 198.582 49.402 198.852 49.7427 198.852L56.2161 199.258C56.5568 199.258 56.8975 199.529 57.1019 199.8C57.4426 200.476 57.9196 201.085 58.4647 201.694C58.6691 201.965 58.6691 202.303 58.3966 202.506L54.5807 205.212C54.3081 205.415 54.3081 205.686 54.5807 205.889L59.4187 208.663C59.6912 208.798 60.1682 208.866 60.5089 208.731L65.4151 206.498C65.6876 206.363 66.2328 206.363 66.5053 206.43C67.7319 206.836 69.0265 207.107 70.3212 207.31C70.6619 207.377 70.9345 207.648 71.0026 207.986L71.6159 211.166C71.684 211.505 72.0247 211.775 72.3654 211.775H79.4521C79.7928 211.775 80.1335 211.505 80.2016 211.166L80.8149 207.986C80.8831 207.648 81.2238 207.377 81.4963 207.31C82.791 207.107 84.0857 206.769 85.3122 206.43C85.6529 206.363 86.1299 206.363 86.4025 206.498L91.3086 208.731C91.5812 208.866 92.0582 208.866 92.3989 208.663L97.2369 205.889C97.5094 205.754 97.5094 205.415 97.2369 205.212L93.421 202.506C93.1484 202.303 93.1484 201.965 93.3528 201.694C93.898 201.085 94.375 200.476 94.7157 199.8C94.8519 199.529 95.2608 199.258 95.6015 199.258L102.075 198.852C102.416 198.852 102.688 198.514 102.688 198.243V194.657C102.688 194.319 102.416 194.048 102.075 194.048L95.6015 193.642C95.2608 193.642 94.9201 193.372 94.7157 193.101C94.375 192.425 93.898 191.816 93.3528 191.207C93.1484 190.936 93.1484 190.598 93.421 190.395L97.2369 187.688C97.5094 187.485 97.5094 187.215 97.2369 187.012L92.3989 184.238C92.1263 184.102 91.6493 184.035 91.3086 184.17ZM84.0857 191.748C88.583 194.319 88.583 198.514 84.0857 201.085C79.5884 203.656 72.2973 203.656 67.7319 201.085C63.2346 198.514 63.2346 194.319 67.7319 191.748C72.2292 189.177 79.5884 189.177 84.0857 191.748Z" fill="#BA68C8"/>
<g opacity="0.55">
<path d="M91.3086 184.17L86.4025 186.403C86.1299 186.538 85.5848 186.538 85.3122 186.471C84.0857 186.065 82.791 185.794 81.4963 185.591C81.1556 185.523 80.8831 185.253 80.8149 184.914L80.2016 181.734C80.1335 181.396 79.7928 181.125 79.4521 181.125H72.3654C72.0247 181.125 71.684 181.396 71.6159 181.734L71.0026 184.914C70.9345 185.253 70.5938 185.523 70.3212 185.591C69.0265 185.794 67.7319 186.132 66.5053 186.471C66.1646 186.538 65.6876 186.538 65.4151 186.403L60.5089 184.17C60.2364 184.035 59.7594 184.035 59.4187 184.238L54.5807 187.012C54.3081 187.147 54.3081 187.485 54.5807 187.688L58.3966 190.395C58.6691 190.598 58.6691 190.936 58.4647 191.207C57.9196 191.816 57.4426 192.425 57.1019 193.101C56.9656 193.372 56.5568 193.642 56.2161 193.642L49.7427 194.048C49.402 194.048 49.1294 194.387 49.1294 194.657V198.243C49.1294 198.582 49.402 198.852 49.7427 198.852L56.2161 199.258C56.5568 199.258 56.8975 199.529 57.1019 199.8C57.4426 200.476 57.9196 201.085 58.4647 201.694C58.6691 201.965 58.6691 202.303 58.3966 202.506L54.5807 205.212C54.3081 205.415 54.3081 205.686 54.5807 205.889L59.4187 208.663C59.6912 208.798 60.1682 208.866 60.5089 208.731L65.4151 206.498C65.6876 206.363 66.2328 206.363 66.5053 206.43C67.7319 206.836 69.0265 207.107 70.3212 207.31C70.6619 207.377 70.9345 207.648 71.0026 207.986L71.6159 211.166C71.684 211.505 72.0247 211.775 72.3654 211.775H79.4521C79.7928 211.775 80.1335 211.505 80.2016 211.166L80.8149 207.986C80.8831 207.648 81.2238 207.377 81.4963 207.31C82.791 207.107 84.0857 206.769 85.3122 206.43C85.6529 206.363 86.1299 206.363 86.4025 206.498L91.3086 208.731C91.5812 208.866 92.0582 208.866 92.3989 208.663L97.2369 205.889C97.5094 205.754 97.5094 205.415 97.2369 205.212L93.421 202.506C93.1484 202.303 93.1484 201.965 93.3528 201.694C93.898 201.085 94.375 200.476 94.7157 199.8C94.8519 199.529 95.2608 199.258 95.6015 199.258L102.075 198.852C102.416 198.852 102.688 198.514 102.688 198.243V194.657C102.688 194.319 102.416 194.048 102.075 194.048L95.6015 193.642C95.2608 193.642 94.9201 193.372 94.7157 193.101C94.375 192.425 93.898 191.816 93.3528 191.207C93.1484 190.936 93.1484 190.598 93.421 190.395L97.2369 187.688C97.5094 187.485 97.5094 187.215 97.2369 187.012L92.3989 184.238C92.1263 184.102 91.6493 184.035 91.3086 184.17ZM84.0857 191.748C88.583 194.319 88.583 198.514 84.0857 201.085C79.5884 203.656 72.2973 203.656 67.7319 201.085C63.2346 198.514 63.2346 194.319 67.7319 191.748C72.2292 189.177 79.5884 189.177 84.0857 191.748Z" fill="white"/>
<path d="M79.4522 212.046H72.3655C71.8886 212.046 71.4797 211.708 71.4116 211.234L70.7983 208.054C70.7302 207.851 70.5257 207.58 70.2532 207.58C68.8904 207.377 67.5957 207.039 66.4373 206.701C66.1647 206.633 65.7559 206.633 65.4833 206.768L60.5772 209.001C60.2365 209.204 59.6232 209.137 59.2825 208.934L54.4445 206.16C54.2401 206.024 54.1038 205.889 54.1038 205.686C54.1038 205.483 54.1719 205.28 54.3764 205.145L58.1922 202.438C58.2604 202.371 58.3285 202.303 58.3285 202.235C58.3285 202.168 58.3285 202.1 58.2604 202.032C57.7153 201.423 57.2383 200.747 56.8294 200.07C56.6931 199.867 56.4206 199.664 56.148 199.597L49.6746 199.191C49.1976 199.191 48.8569 198.785 48.8569 198.311V194.725C48.8569 194.251 49.1976 193.913 49.6746 193.845L56.148 193.439C56.4206 193.439 56.6931 193.237 56.8294 192.966C57.1701 192.289 57.6471 191.68 58.2604 191.004C58.3285 190.936 58.3285 190.868 58.3285 190.801C58.3285 190.733 58.2604 190.665 58.1922 190.598L54.3764 187.891C54.1719 187.756 54.1038 187.553 54.1038 187.35C54.1038 187.147 54.2401 186.944 54.4445 186.877L59.2825 184.035C59.6232 183.832 60.1683 183.832 60.5772 183.967L65.4833 186.2C65.7559 186.335 66.1647 186.335 66.4373 186.268C67.6638 185.862 68.9585 185.591 70.2532 185.388C70.4576 185.32 70.7302 185.117 70.7983 184.914L71.4116 181.734C71.4797 181.328 71.8886 180.922 72.3655 180.922H79.4522C79.9292 180.922 80.338 181.261 80.4062 181.734L81.0194 184.914C81.0876 185.117 81.292 185.388 81.5646 185.388C82.9274 185.591 84.1539 185.929 85.3805 186.268C85.653 186.335 86.0619 186.335 86.3344 186.2L91.2406 183.967C91.5813 183.832 92.1946 183.832 92.5353 184.035L97.3733 186.809C97.5777 186.944 97.714 187.079 97.714 187.282C97.714 187.485 97.6458 187.688 97.4414 187.824L93.6255 190.53C93.5574 190.598 93.4892 190.665 93.4892 190.733C93.4892 190.801 93.4892 190.868 93.5574 190.936C94.1025 191.545 94.5795 192.222 94.9883 192.898C95.1246 193.101 95.3972 193.304 95.6697 193.372L102.143 193.778C102.62 193.778 102.961 194.184 102.961 194.657V198.243C102.961 198.717 102.62 199.055 102.143 199.123L95.6697 199.529C95.3972 199.529 95.1246 199.732 94.9883 200.003C94.6476 200.679 94.1706 201.288 93.5574 201.965C93.4892 202.032 93.4892 202.1 93.4892 202.168C93.4892 202.235 93.5574 202.303 93.6255 202.371L97.4414 205.077C97.6458 205.212 97.714 205.415 97.714 205.618C97.714 205.821 97.5777 206.024 97.3733 206.092L92.5353 208.866C92.1946 209.069 91.6494 209.069 91.2406 208.934L86.3344 206.701C86.0619 206.566 85.653 206.566 85.3805 206.633C84.1539 207.039 82.8592 207.31 81.5646 207.513C81.3601 207.58 81.0876 207.783 81.0194 207.986L80.4062 211.166C80.338 211.708 79.9292 212.046 79.4522 212.046ZM66.0966 206.092C66.301 206.092 66.4373 206.092 66.6417 206.16C67.8001 206.498 69.0948 206.836 70.3895 207.039C70.7983 207.107 71.2072 207.513 71.2753 207.919L71.8886 211.099C71.9567 211.302 72.1611 211.505 72.3655 211.505H79.4522C79.6566 211.505 79.8611 211.302 79.9292 211.099L80.5425 207.919C80.6106 207.513 81.0194 207.107 81.4283 207.039C82.723 206.836 84.0176 206.498 85.176 206.16C85.5849 206.024 86.13 206.092 86.4707 206.227L91.3769 208.46C91.5813 208.595 91.9901 208.528 92.1946 208.392L97.0326 205.618C97.1007 205.551 97.1688 205.551 97.1688 205.483C97.1688 205.415 97.1688 205.415 97.1007 205.348L93.2848 202.641C93.0804 202.506 93.0122 202.303 92.9441 202.1C92.9441 201.897 93.0122 201.694 93.1485 201.491C93.6937 200.882 94.1025 200.273 94.5113 199.664C94.7158 199.326 95.1928 198.988 95.6016 198.988L102.075 198.582C102.279 198.582 102.484 198.379 102.484 198.176V194.59C102.484 194.387 102.279 194.184 102.075 194.184L95.6016 193.778C95.1928 193.778 94.7158 193.439 94.5113 193.101C94.1706 192.492 93.6937 191.816 93.1485 191.274C93.0122 191.071 92.9441 190.868 92.9441 190.665C92.9441 190.462 93.0804 190.259 93.2848 190.124L97.1007 187.418C97.1688 187.35 97.1688 187.35 97.1688 187.282C97.1688 187.215 97.1007 187.215 97.0326 187.147L92.1946 184.373C91.9901 184.238 91.5813 184.238 91.3769 184.305L86.4707 186.538C86.13 186.674 85.5849 186.741 85.176 186.606C84.0176 186.268 82.723 185.929 81.4283 185.726C81.0194 185.659 80.6106 185.253 80.5425 184.847L79.9292 181.667C79.8611 181.464 79.6566 181.261 79.4522 181.261H72.3655C72.1611 181.261 71.9567 181.464 71.8886 181.667L71.2753 184.847C71.2072 185.253 70.7983 185.659 70.3895 185.726C69.0948 185.929 67.8001 186.268 66.6417 186.606C66.2329 186.741 65.6877 186.674 65.347 186.538L60.4409 184.305C60.2365 184.17 59.8276 184.238 59.6232 184.373L54.7852 187.147C54.7171 187.215 54.6489 187.215 54.6489 187.282C54.6489 187.35 54.6489 187.35 54.7171 187.418L58.5329 190.124C58.7374 190.259 58.8055 190.462 58.8737 190.665C58.8737 190.868 58.8055 191.071 58.6692 191.274C58.1241 191.883 57.7153 192.492 57.3064 193.101C57.102 193.507 56.625 193.778 56.2162 193.778L49.7428 194.184C49.5383 194.184 49.3339 194.387 49.3339 194.59V198.176C49.3339 198.379 49.5383 198.582 49.7428 198.582L56.2162 198.988C56.625 198.988 57.102 199.326 57.3064 199.664C57.6471 200.273 58.1241 200.95 58.6692 201.491C58.8055 201.694 58.8737 201.897 58.8737 202.1C58.8737 202.303 58.7374 202.506 58.5329 202.641L54.7171 205.348C54.6489 205.415 54.6489 205.415 54.6489 205.483C54.6489 205.551 54.7171 205.551 54.7852 205.618L59.6232 208.392C59.8276 208.528 60.2365 208.528 60.4409 208.46L65.347 206.227C65.4833 206.16 65.7559 206.092 66.0966 206.092ZM75.9089 203.318C72.9107 203.318 69.9125 202.641 67.5957 201.356C65.347 200.07 64.1205 198.311 64.1205 196.484C64.1205 194.657 65.347 192.898 67.5957 191.613C72.1611 188.974 79.5885 188.974 84.1539 191.613C86.4026 192.898 87.6291 194.657 87.6291 196.484C87.6291 198.311 86.4026 200.07 84.1539 201.356C81.9053 202.641 78.9071 203.318 75.9089 203.318ZM75.9089 190.057C72.9788 190.057 70.0488 190.665 67.8682 191.951C65.7559 193.169 64.5975 194.725 64.5975 196.417C64.5975 198.108 65.7559 199.664 67.8682 200.882C72.2974 203.453 79.5203 203.453 83.9495 200.882C86.0619 199.664 87.2203 198.108 87.2203 196.417C87.2203 194.725 86.0619 193.169 83.9495 191.951C81.769 190.733 78.8389 190.057 75.9089 190.057Z" fill="white"/>
</g>
<path d="M110.865 188.568C110.797 188.568 110.661 188.568 110.593 188.568L106.368 188.162C105.618 188.094 104.937 187.688 104.46 187.147C103.983 186.538 103.779 185.862 103.847 185.117L103.915 184.441C103.574 184.305 103.234 184.17 102.893 184.035C102.893 184.035 102.893 184.035 102.825 184.035L99.622 185.05C99.3495 185.117 99.0088 185.185 98.6681 185.185C97.8504 185.185 97.0327 184.914 96.4194 184.441L94.307 182.682C93.6256 182.14 93.2849 181.261 93.3531 180.449C93.4212 179.637 93.9663 178.893 94.784 178.487L95.5336 178.148L93.5575 177.81C92.8079 177.675 92.1265 177.201 91.7177 176.592C91.3088 175.916 91.2407 175.104 91.4451 174.359L92.0584 172.533C92.4672 171.315 93.6256 170.435 94.9203 170.435L98.4636 170.57L97.9867 170.097C97.3734 169.488 97.169 168.608 97.3052 167.796C97.5097 166.984 98.0548 166.308 98.8725 165.97L102.211 164.616C102.62 164.481 103.029 164.413 103.438 164.413C104.119 164.413 104.869 164.616 105.414 164.955L107.595 166.376C108.208 166.24 108.889 166.173 109.502 166.105L110.184 164.819C110.729 163.804 111.819 163.128 112.978 163.128C113.114 163.128 113.182 163.128 113.25 163.128L117.475 163.534C118.224 163.601 118.906 164.007 119.383 164.549C119.86 165.158 120.064 165.834 119.996 166.579L119.928 167.255C120.269 167.39 120.609 167.526 120.95 167.661C120.95 167.661 120.95 167.661 121.018 167.661L124.221 166.646C124.493 166.579 124.834 166.511 125.175 166.511C125.993 166.511 126.81 166.781 127.424 167.255L129.536 169.014C130.217 169.556 130.558 170.435 130.49 171.247C130.422 172.059 129.877 172.803 129.059 173.209L128.309 173.547L130.285 173.886C131.035 174.021 131.716 174.495 132.125 175.104C132.534 175.78 132.602 176.592 132.398 177.336L131.785 179.163C131.376 180.381 130.217 181.261 128.923 181.261L125.379 181.125L125.856 181.599C126.47 182.208 126.674 183.088 126.538 183.899C126.333 184.711 125.788 185.388 124.97 185.726L121.632 187.079C121.223 187.215 120.814 187.282 120.405 187.282C119.724 187.282 118.974 187.079 118.429 186.741L116.248 185.32C115.635 185.456 114.954 185.523 114.34 185.591L113.659 186.876C113.114 187.891 112.024 188.568 110.865 188.568ZM111.956 173.277C110.593 173.277 109.298 173.48 108.14 173.953C106.641 174.562 106.027 175.307 105.959 175.713C105.891 176.186 106.368 176.66 106.641 176.863C107.731 177.81 109.775 178.351 111.956 178.351C113.318 178.351 114.681 178.148 115.771 177.675C117.271 177.066 117.884 176.322 117.952 175.916C118.02 175.442 117.543 174.968 117.271 174.765C116.112 173.818 114.068 173.277 111.956 173.277Z" fill="#EBEBEB"/>
<path d="M118.429 165.428C118.02 165.293 117.747 164.887 117.816 164.481L118.02 162.925C118.088 162.519 117.747 162.181 117.339 162.113L113.114 161.707C112.705 161.639 112.228 161.91 112.024 162.316L111.206 163.94C111.002 164.278 110.525 164.616 110.116 164.616C109.366 164.684 108.685 164.752 107.935 164.887C107.526 164.955 106.913 164.819 106.572 164.616L104.324 163.128C103.983 162.925 103.37 162.857 103.029 162.993L99.6901 164.346C99.4857 164.413 99.3494 164.616 99.3494 164.752V164.819V168.202C99.3494 168.338 99.4176 168.473 99.4857 168.608L99.6901 168.811C99.4176 169.014 99.0769 169.082 98.7362 169.082L94.9203 168.947C94.5114 168.947 94.1026 169.217 93.9663 169.623L93.353 171.45C93.353 171.518 93.353 171.585 93.353 171.653V175.104C93.353 175.374 93.5575 175.645 93.8982 175.713L96.8964 176.186L95.738 176.795C95.5335 176.863 95.4654 177.066 95.4654 177.201V180.652C95.4654 180.787 95.5335 180.922 95.6698 181.058L97.7822 182.817C98.1229 183.088 98.668 183.223 99.0769 183.088L102.348 182.073C102.756 181.937 103.37 182.005 103.71 182.14C104.256 182.411 104.869 182.614 105.482 182.749C105.687 182.817 105.823 182.885 105.891 183.02V185.32C105.891 185.659 106.164 185.997 106.572 186.065L110.797 186.471C111.206 186.538 111.683 186.268 111.887 185.862L112.705 184.238C112.909 183.899 113.386 183.561 113.795 183.561C114.545 183.493 115.226 183.426 115.976 183.291C116.385 183.223 116.998 183.358 117.339 183.561L119.587 185.05C119.928 185.253 120.541 185.32 120.882 185.185L124.221 183.832C124.425 183.764 124.562 183.561 124.562 183.358V179.908C124.562 179.772 124.493 179.637 124.425 179.569L124.221 179.366C124.493 179.163 124.834 179.096 125.175 179.096L128.991 179.231C129.4 179.231 129.808 178.96 129.945 178.554L130.558 176.728C130.558 176.66 130.558 176.592 130.558 176.525V173.074C130.558 172.736 130.354 172.465 130.013 172.465L127.015 171.991L128.173 171.382C128.377 171.247 128.446 171.112 128.446 170.976V167.526C128.446 167.39 128.377 167.255 128.241 167.12L126.129 165.361C125.788 165.09 125.243 164.955 124.834 165.09L121.563 166.105C121.155 166.24 120.541 166.173 120.201 166.037C119.655 165.834 119.042 165.631 118.429 165.428ZM104.528 174.089C105.073 173.277 106.027 172.533 107.39 172.059C111.002 170.638 116.044 171.112 118.565 173.209C118.906 173.48 119.178 173.818 119.451 174.089C118.906 174.901 117.952 175.645 116.589 176.186C112.978 177.607 107.935 177.133 105.414 175.036C105.005 174.698 104.733 174.359 104.528 174.089Z" fill="#BA68C8"/>
<path opacity="0.2" d="M118.429 165.428C118.02 165.293 117.747 164.887 117.816 164.481L118.02 162.925C118.088 162.519 117.747 162.181 117.339 162.113L113.114 161.707C112.705 161.639 112.228 161.91 112.024 162.316L111.206 163.94C111.002 164.278 110.525 164.616 110.116 164.616C109.366 164.684 108.685 164.752 107.935 164.887C107.526 164.955 106.913 164.819 106.572 164.616L104.324 163.128C103.983 162.925 103.37 162.857 103.029 162.993L99.6901 164.346C99.4857 164.413 99.3494 164.616 99.3494 164.752V164.819V168.202C99.3494 168.338 99.4176 168.473 99.4857 168.608L99.6901 168.811C99.4176 169.014 99.0769 169.082 98.7362 169.082L94.9203 168.947C94.5114 168.947 94.1026 169.217 93.9663 169.623L93.353 171.45C93.353 171.518 93.353 171.585 93.353 171.653V175.104C93.353 175.374 93.5575 175.645 93.8982 175.713L96.8964 176.186L95.738 176.795C95.5335 176.863 95.4654 177.066 95.4654 177.201V180.652C95.4654 180.787 95.5335 180.922 95.6698 181.058L97.7822 182.817C98.1229 183.088 98.668 183.223 99.0769 183.088L102.348 182.073C102.756 181.937 103.37 182.005 103.71 182.14C104.256 182.411 104.869 182.614 105.482 182.749C105.687 182.817 105.823 182.885 105.891 183.02V185.32C105.891 185.659 106.164 185.997 106.572 186.065L110.797 186.471C111.206 186.538 111.683 186.268 111.887 185.862L112.705 184.238C112.909 183.899 113.386 183.561 113.795 183.561C114.545 183.493 115.226 183.426 115.976 183.291C116.385 183.223 116.998 183.358 117.339 183.561L119.587 185.05C119.928 185.253 120.541 185.32 120.882 185.185L124.221 183.832C124.425 183.764 124.562 183.561 124.562 183.358V179.908C124.562 179.772 124.493 179.637 124.425 179.569L124.221 179.366C124.493 179.163 124.834 179.096 125.175 179.096L128.991 179.231C129.4 179.231 129.808 178.96 129.945 178.554L130.558 176.728C130.558 176.66 130.558 176.592 130.558 176.525V173.074C130.558 172.736 130.354 172.465 130.013 172.465L127.015 171.991L128.173 171.382C128.377 171.247 128.446 171.112 128.446 170.976V167.526C128.446 167.39 128.377 167.255 128.241 167.12L126.129 165.361C125.788 165.09 125.243 164.955 124.834 165.09L121.563 166.105C121.155 166.24 120.541 166.173 120.201 166.037C119.655 165.834 119.042 165.631 118.429 165.428ZM104.528 174.089C105.073 173.277 106.027 172.533 107.39 172.059C111.002 170.638 116.044 171.112 118.565 173.209C118.906 173.48 119.178 173.818 119.451 174.089C118.906 174.901 117.952 175.645 116.589 176.186C112.978 177.607 107.935 177.133 105.414 175.036C105.005 174.698 104.733 174.359 104.528 174.089Z" fill="white"/>
<path opacity="0.1" d="M98.4636 173.683C98.3273 173.277 97.9866 172.939 97.5778 172.803L93.8982 172.194C93.5575 172.127 93.353 171.924 93.353 171.653V175.036C93.353 175.307 93.5575 175.577 93.8982 175.645L96.8964 176.119L98.4636 175.374C98.8043 175.171 98.9406 174.765 98.7362 174.359C98.5999 174.156 98.5317 173.886 98.4636 173.683ZM99.3494 168.135C99.3494 168.27 99.4176 168.405 99.4857 168.541L99.6901 168.744C99.8264 168.676 99.8946 168.608 100.031 168.473C100.303 168.202 100.644 167.932 100.917 167.661C101.257 167.39 101.326 166.984 100.985 166.714L99.4857 165.09C99.3494 164.955 99.3494 164.819 99.3494 164.752V168.135Z" fill="black"/>
<path opacity="0.1" d="M107.39 168.541C104.256 169.759 103.165 172.059 104.528 174.021C105.073 173.209 106.027 172.465 107.39 171.991C111.001 170.57 116.044 171.044 118.565 173.142C118.906 173.412 119.178 173.751 119.383 174.021C120.337 172.668 120.132 171.044 118.565 169.691C116.044 167.661 111.001 167.12 107.39 168.541Z" fill="black"/>
<path d="M113.046 180.449C112.91 180.584 112.773 180.719 112.705 180.855L111.887 182.479C111.751 182.682 111.547 182.885 111.274 183.02V186.471C111.547 186.403 111.751 186.2 111.887 185.929L112.705 184.305C112.773 184.17 112.91 184.035 113.046 183.899V180.449ZM124.562 179.975C124.562 180.178 124.425 180.314 124.221 180.449L120.882 181.802C120.609 181.87 120.269 181.937 119.996 181.802V185.253C120.269 185.32 120.609 185.32 120.882 185.253L124.221 183.899C124.425 183.832 124.562 183.629 124.562 183.426V179.975ZM102.28 178.554L99.077 179.569C98.8725 179.637 98.5318 179.637 98.2593 179.569V183.02C98.5318 183.088 98.8044 183.088 99.077 183.02L102.28 182.005V178.554ZM130.558 173.142C130.558 173.209 130.558 173.277 130.49 173.345L129.945 175.171C129.809 175.577 129.4 175.848 128.991 175.848L125.175 175.713C124.971 175.713 124.766 175.78 124.562 175.848V179.299C124.766 179.231 124.971 179.163 125.175 179.163L128.991 179.299C129.4 179.299 129.809 179.028 129.945 178.622L130.49 176.795C130.49 176.728 130.558 176.66 130.49 176.592L130.558 173.142ZM128.514 167.593C128.514 167.661 128.514 167.661 128.514 167.729C128.514 167.796 128.446 167.864 128.378 167.932C128.309 167.999 128.241 167.999 128.241 168.067L125.584 169.42C125.516 169.42 125.448 169.488 125.448 169.556C125.379 169.623 125.311 169.759 125.243 169.826C125.243 169.894 125.175 170.029 125.175 170.097C125.175 170.165 125.175 170.165 125.175 170.232C125.175 170.3 125.243 170.367 125.243 170.435C125.379 170.706 125.448 170.909 125.516 171.179C125.652 171.585 125.993 171.991 126.401 172.059L127.083 172.194L128.241 171.653C128.446 171.518 128.514 171.382 128.514 171.247V167.593Z" fill="#BA68C8"/>
<path opacity="0.7" d="M113.046 180.449C112.91 180.584 112.773 180.719 112.705 180.855L111.887 182.479C111.751 182.682 111.547 182.885 111.274 183.02V186.471C111.547 186.403 111.751 186.2 111.887 185.929L112.705 184.305C112.773 184.17 112.91 184.035 113.046 183.899V180.449ZM124.562 179.975C124.562 180.178 124.425 180.314 124.221 180.449L120.882 181.802C120.609 181.87 120.269 181.937 119.996 181.802V185.253C120.269 185.32 120.609 185.32 120.882 185.253L124.221 183.899C124.425 183.832 124.562 183.629 124.562 183.426V179.975ZM102.28 178.554L99.077 179.569C98.8725 179.637 98.5318 179.637 98.2593 179.569V183.02C98.5318 183.088 98.8044 183.088 99.077 183.02L102.28 182.005V178.554ZM130.558 173.142C130.558 173.209 130.558 173.277 130.49 173.345L129.945 175.171C129.809 175.577 129.4 175.848 128.991 175.848L125.175 175.713C124.971 175.713 124.766 175.78 124.562 175.848V179.299C124.766 179.231 124.971 179.163 125.175 179.163L128.991 179.299C129.4 179.299 129.809 179.028 129.945 178.622L130.49 176.795C130.49 176.728 130.558 176.66 130.49 176.592L130.558 173.142ZM128.514 167.593C128.514 167.661 128.514 167.661 128.514 167.729C128.514 167.796 128.446 167.864 128.378 167.932C128.309 167.999 128.241 167.999 128.241 168.067L125.584 169.42C125.516 169.42 125.448 169.488 125.448 169.556C125.379 169.623 125.311 169.759 125.243 169.826C125.243 169.894 125.175 170.029 125.175 170.097C125.175 170.165 125.175 170.165 125.175 170.232C125.175 170.3 125.243 170.367 125.243 170.435C125.379 170.706 125.448 170.909 125.516 171.179C125.652 171.585 125.993 171.991 126.401 172.059L127.083 172.194L128.241 171.653C128.446 171.518 128.514 171.382 128.514 171.247V167.593Z" fill="white"/>
<path d="M124.834 165.158L121.563 166.173C121.155 166.308 120.541 166.24 120.201 166.105C119.655 165.834 119.042 165.631 118.429 165.496C118.02 165.361 117.747 164.955 117.816 164.549L118.02 162.993C118.088 162.587 117.747 162.248 117.339 162.181L113.114 161.775C112.705 161.707 112.228 161.978 112.024 162.384L111.206 164.007C111.002 164.346 110.525 164.684 110.116 164.684C109.366 164.752 108.685 164.819 107.935 164.955C107.526 165.022 106.913 164.887 106.572 164.684L104.324 163.196C103.983 162.993 103.37 162.925 103.029 163.06L99.6902 164.413C99.2813 164.549 99.2132 164.955 99.4857 165.225L100.985 166.849C101.257 167.12 101.189 167.593 100.917 167.796C100.576 168.067 100.303 168.338 100.031 168.608C99.7583 168.879 99.2132 169.15 98.8043 169.15L94.9884 169.014C94.5796 169.014 94.1707 169.285 94.0345 169.691L93.4212 171.518C93.2849 171.924 93.5575 172.262 93.9663 172.33L97.6459 172.939C98.0548 173.006 98.3955 173.412 98.5318 173.818C98.5999 174.089 98.668 174.292 98.8043 174.562C99.0087 174.901 98.8725 175.374 98.4636 175.577L95.8061 176.931C95.4654 177.133 95.3973 177.472 95.738 177.742L97.8504 179.502C98.1911 179.772 98.7362 179.908 99.145 179.772L102.416 178.757C102.825 178.622 103.438 178.69 103.779 178.825C104.324 179.096 104.937 179.299 105.55 179.434C105.959 179.569 106.232 179.975 106.164 180.381L105.959 181.937C105.891 182.343 106.232 182.682 106.641 182.749L110.865 183.155C111.274 183.223 111.751 182.952 111.956 182.546L112.773 180.922C112.978 180.584 113.455 180.246 113.863 180.246C114.613 180.178 115.294 180.111 116.044 179.975C116.453 179.908 117.066 180.043 117.407 180.246L119.655 181.734C119.996 181.937 120.609 182.005 120.95 181.87L124.289 180.516C124.698 180.381 124.766 179.975 124.493 179.705L122.994 178.081C122.722 177.81 122.79 177.336 123.062 177.133C123.403 176.863 123.676 176.592 123.948 176.322C124.221 176.051 124.766 175.78 125.175 175.78L128.991 175.916C129.4 175.916 129.808 175.645 129.945 175.239L130.558 173.412C130.694 173.006 130.422 172.668 130.013 172.6L126.333 171.991C125.924 171.924 125.584 171.518 125.447 171.112C125.379 170.841 125.311 170.638 125.175 170.368C124.97 170.029 125.107 169.556 125.516 169.353L128.173 167.999C128.514 167.796 128.582 167.458 128.241 167.187L126.129 165.428C125.788 165.158 125.243 165.022 124.834 165.158ZM118.565 169.759C121.086 171.856 120.201 174.698 116.521 176.119C112.909 177.539 107.867 177.066 105.346 174.968C102.825 172.871 103.71 170.029 107.39 168.608C111.002 167.12 116.044 167.661 118.565 169.759Z" fill="#BA68C8"/>
<g opacity="0.55">
<path d="M124.834 165.158L121.563 166.173C121.155 166.308 120.541 166.24 120.201 166.105C119.655 165.834 119.042 165.631 118.429 165.496C118.02 165.361 117.747 164.955 117.816 164.549L118.02 162.993C118.088 162.587 117.747 162.248 117.339 162.181L113.114 161.775C112.705 161.707 112.228 161.978 112.024 162.384L111.206 164.007C111.002 164.346 110.525 164.684 110.116 164.684C109.366 164.752 108.685 164.819 107.935 164.955C107.526 165.022 106.913 164.887 106.572 164.684L104.324 163.196C103.983 162.993 103.37 162.925 103.029 163.06L99.6902 164.413C99.2813 164.549 99.2132 164.955 99.4857 165.225L100.985 166.849C101.257 167.12 101.189 167.593 100.917 167.796C100.576 168.067 100.303 168.338 100.031 168.608C99.7583 168.879 99.2132 169.15 98.8043 169.15L94.9884 169.014C94.5796 169.014 94.1707 169.285 94.0345 169.691L93.4212 171.518C93.2849 171.924 93.5575 172.262 93.9663 172.33L97.6459 172.939C98.0548 173.006 98.3955 173.412 98.5318 173.818C98.5999 174.089 98.668 174.292 98.8043 174.562C99.0087 174.901 98.8725 175.374 98.4636 175.577L95.8061 176.931C95.4654 177.133 95.3973 177.472 95.738 177.742L97.8504 179.502C98.1911 179.772 98.7362 179.908 99.145 179.772L102.416 178.757C102.825 178.622 103.438 178.69 103.779 178.825C104.324 179.096 104.937 179.299 105.55 179.434C105.959 179.569 106.232 179.975 106.164 180.381L105.959 181.937C105.891 182.343 106.232 182.682 106.641 182.749L110.865 183.155C111.274 183.223 111.751 182.952 111.956 182.546L112.773 180.922C112.978 180.584 113.455 180.246 113.863 180.246C114.613 180.178 115.294 180.111 116.044 179.975C116.453 179.908 117.066 180.043 117.407 180.246L119.655 181.734C119.996 181.937 120.609 182.005 120.95 181.87L124.289 180.516C124.698 180.381 124.766 179.975 124.493 179.705L122.994 178.081C122.722 177.81 122.79 177.336 123.062 177.133C123.403 176.863 123.676 176.592 123.948 176.322C124.221 176.051 124.766 175.78 125.175 175.78L128.991 175.916C129.4 175.916 129.808 175.645 129.945 175.239L130.558 173.412C130.694 173.006 130.422 172.668 130.013 172.6L126.333 171.991C125.924 171.924 125.584 171.518 125.447 171.112C125.379 170.841 125.311 170.638 125.175 170.368C124.97 170.029 125.107 169.556 125.516 169.353L128.173 167.999C128.514 167.796 128.582 167.458 128.241 167.187L126.129 165.428C125.788 165.158 125.243 165.022 124.834 165.158ZM118.565 169.759C121.086 171.856 120.201 174.698 116.521 176.119C112.909 177.539 107.867 177.066 105.346 174.968C102.825 172.871 103.71 170.029 107.39 168.608C111.002 167.12 116.044 167.661 118.565 169.759Z" fill="white"/>
<path d="M110.865 183.291C110.797 183.291 110.797 183.291 110.729 183.291L106.504 182.885C106.232 182.885 105.959 182.749 105.823 182.479C105.619 182.276 105.55 182.005 105.619 181.734L105.823 180.178C105.823 179.908 105.687 179.637 105.414 179.569C104.801 179.366 104.188 179.163 103.642 178.893C103.302 178.757 102.757 178.69 102.484 178.825L99.2133 179.84C98.7363 179.975 98.0549 179.84 97.646 179.502L95.5337 177.742C95.3292 177.539 95.1929 177.269 95.1929 177.066C95.1929 176.795 95.3974 176.592 95.6699 176.457L98.3956 175.104C98.6681 174.968 98.6681 174.698 98.6 174.495C98.4637 174.224 98.3956 174.021 98.3274 173.75C98.2593 173.412 97.9186 173.142 97.646 173.074L93.9664 172.465C93.6938 172.397 93.4213 172.262 93.285 172.059C93.1487 171.856 93.0806 171.585 93.2169 171.315L93.8301 169.488C93.9664 168.947 94.5797 168.608 95.0567 168.608L98.8726 168.744C99.2133 168.744 99.6221 168.541 99.8947 168.338C100.167 168.067 100.508 167.796 100.849 167.526C100.917 167.458 100.985 167.323 100.985 167.255C100.985 167.187 100.985 167.052 100.849 166.984L99.3495 165.361C99.1451 165.158 99.077 164.887 99.1451 164.616C99.2133 164.346 99.4177 164.143 99.6903 164.075L103.029 162.722C103.506 162.519 104.188 162.587 104.596 162.857L106.845 164.346C107.118 164.549 107.663 164.616 108.003 164.549C108.753 164.413 109.434 164.346 110.184 164.278C110.525 164.278 110.865 164.007 111.002 163.737L111.819 162.113C112.092 161.639 112.637 161.301 113.182 161.369L117.407 161.775C117.679 161.775 117.952 161.91 118.088 162.181C118.293 162.384 118.361 162.654 118.293 162.925L118.088 164.481C118.088 164.752 118.225 165.022 118.497 165.09C119.11 165.293 119.724 165.496 120.269 165.767C120.61 165.902 121.155 165.97 121.427 165.834L124.698 164.819C125.175 164.684 125.856 164.819 126.265 165.158L128.378 166.917C128.582 167.12 128.718 167.39 128.718 167.593C128.718 167.864 128.514 168.067 128.241 168.202L125.584 169.556C125.311 169.691 125.311 169.962 125.379 170.165C125.516 170.435 125.584 170.638 125.652 170.909C125.72 171.247 126.061 171.518 126.333 171.585L130.013 172.194C130.286 172.262 130.558 172.397 130.694 172.6C130.831 172.803 130.899 173.074 130.763 173.345L130.149 175.171C130.013 175.713 129.468 176.051 128.923 176.051L125.107 175.916C124.834 175.916 124.357 176.119 124.085 176.322C123.812 176.592 123.471 176.863 123.131 177.133C123.063 177.201 122.994 177.336 122.994 177.404C122.994 177.472 122.994 177.607 123.131 177.675L124.63 179.299C124.834 179.502 124.902 179.772 124.834 180.043C124.766 180.313 124.562 180.516 124.289 180.584L120.95 181.937C120.473 182.14 119.792 182.073 119.383 181.802L117.134 180.313C116.862 180.111 116.317 180.043 115.976 180.111C115.295 180.246 114.545 180.313 113.795 180.381C113.455 180.381 113.114 180.652 112.978 180.922L112.16 182.546C111.887 183.02 111.342 183.291 110.865 183.291ZM102.893 178.148C103.234 178.148 103.574 178.216 103.847 178.351C104.392 178.554 104.937 178.825 105.55 178.96C106.095 179.096 106.436 179.705 106.368 180.246L106.164 181.802C106.164 181.937 106.164 182.005 106.232 182.14C106.3 182.208 106.436 182.276 106.504 182.276L110.729 182.682C111.002 182.682 111.41 182.546 111.547 182.276L112.364 180.652C112.569 180.178 113.182 179.84 113.659 179.772C114.409 179.705 115.09 179.637 115.772 179.502C116.248 179.434 116.93 179.569 117.339 179.84L119.587 181.328C119.86 181.531 120.337 181.531 120.61 181.464L123.948 180.111C124.017 180.043 124.085 180.043 124.085 179.975C124.085 179.908 124.085 179.84 124.017 179.772L122.517 178.148C122.313 177.945 122.245 177.675 122.245 177.404C122.245 177.133 122.381 176.863 122.654 176.728C122.994 176.457 123.267 176.186 123.54 175.916C123.88 175.577 124.494 175.307 124.971 175.307L128.786 175.442C129.059 175.442 129.4 175.239 129.468 174.968L130.081 173.142C130.081 173.006 130.081 172.939 130.081 172.871C130.013 172.803 129.945 172.736 129.809 172.736L126.129 172.127C125.652 172.059 125.175 171.585 125.039 171.044C124.971 170.841 124.902 170.57 124.766 170.367C124.494 169.826 124.698 169.285 125.175 169.014L127.901 167.661C127.969 167.593 128.037 167.593 128.037 167.526C128.037 167.458 128.037 167.39 127.901 167.323L125.788 165.564C125.516 165.361 125.107 165.293 124.766 165.361L121.495 166.376C121.018 166.511 120.337 166.443 119.928 166.308C119.383 166.105 118.838 165.834 118.225 165.699C117.679 165.564 117.339 164.955 117.407 164.413L117.611 162.857C117.611 162.722 117.611 162.654 117.543 162.519C117.475 162.451 117.339 162.384 117.271 162.384L113.046 161.978C112.773 161.978 112.364 162.113 112.228 162.384L111.41 164.007C111.206 164.481 110.593 164.819 110.116 164.887C109.366 164.955 108.685 165.022 108.003 165.158C107.526 165.225 106.845 165.09 106.436 164.819L104.188 163.331C103.915 163.128 103.438 163.128 103.165 163.196L99.8265 164.549C99.7584 164.616 99.6903 164.616 99.6903 164.684C99.6903 164.752 99.6902 164.819 99.7584 164.887L101.257 166.511C101.462 166.714 101.53 166.984 101.53 167.255C101.53 167.526 101.394 167.796 101.121 167.932C100.781 168.202 100.508 168.473 100.235 168.744C99.8947 169.082 99.2814 169.353 98.8044 169.353L94.9885 169.217C94.716 169.217 94.3753 169.42 94.3071 169.691L93.6938 171.518C93.6938 171.653 93.6938 171.721 93.6938 171.788C93.762 171.856 93.8301 171.924 93.9664 171.924L97.646 172.533C98.123 172.6 98.6 173.074 98.7363 173.615C98.8044 173.818 98.8726 174.089 99.0088 174.292C99.2814 174.833 99.077 175.374 98.6 175.645L95.8744 176.998C95.8062 177.066 95.7381 177.066 95.7381 177.133C95.7381 177.201 95.7381 177.269 95.8744 177.336L97.9867 179.096C98.2593 179.299 98.6681 179.366 99.0088 179.299L102.28 178.284C102.416 178.216 102.62 178.148 102.893 178.148ZM111.956 177.201C109.366 177.201 106.777 176.457 105.142 175.171C103.983 174.224 103.438 173.074 103.642 171.856C103.847 170.367 105.21 169.082 107.254 168.27C111.002 166.782 116.112 167.323 118.702 169.488C119.86 170.435 120.405 171.585 120.201 172.803C119.996 174.292 118.633 175.577 116.589 176.389C115.226 176.931 113.591 177.201 111.956 177.201ZM111.956 168.067C110.388 168.067 108.889 168.338 107.526 168.879C105.687 169.623 104.46 170.773 104.324 171.991C104.188 172.939 104.596 173.953 105.619 174.765C108.072 176.795 112.91 177.269 116.453 175.848C118.293 175.104 119.519 173.953 119.656 172.736C119.792 171.788 119.383 170.773 118.361 169.962C116.862 168.676 114.409 168.067 111.956 168.067Z" fill="white"/>
</g>
</g>
<defs>
<clipPath id="clip0_14_788">
<rect width="265" height="218" fill="white"/>
</clipPath>
</defs>
</svg>
