<svg width="230" height="233" viewBox="0 0 230 233" fill="none" xmlns="http://www.w3.org/2000/svg">
<g clip-path="url(#clip0_14_1022)">
<path d="M200.677 92.3363H149.805V138.897H200.677V92.3363Z" fill="url(#paint0_linear_14_1022)"/>
<path d="M204.643 99.3374V131.896C204.643 138.282 201.977 143.464 198.707 143.464H194.847V87.7823H198.707C201.977 87.7823 204.643 92.9513 204.643 99.3374Z" fill="url(#paint1_linear_14_1022)"/>
<path d="M52.6709 92.3363H103.543V138.897H52.6709V92.3363Z" fill="url(#paint2_linear_14_1022)"/>
<path d="M48.7051 131.896V99.3374C48.7051 92.9514 51.3708 87.7692 54.6406 87.7692H58.5013V143.451H54.6406C51.3708 143.464 48.7051 138.282 48.7051 131.896Z" fill="url(#paint3_linear_14_1022)"/>
<path d="M188.058 115.617C188.058 144.616 167.835 168.917 140.666 175.264C136.135 176.324 131.421 176.886 126.575 176.886C121.73 176.886 117.016 176.324 112.485 175.264C85.3159 168.917 65.0933 144.616 65.0933 115.617C65.0933 81.7757 92.6171 54.347 126.562 54.347C135.505 54.347 144.001 56.2445 151.67 59.6731C162.228 64.3842 171.21 71.9873 177.605 81.4617C184.21 91.224 188.058 102.975 188.058 115.617Z" fill="url(#paint4_linear_14_1022)"/>
<path d="M140.666 121.126V175.277C136.135 176.337 131.421 176.899 126.576 176.899C121.73 176.899 117.016 176.337 112.485 175.277V121.126H140.666Z" fill="white"/>
<path d="M147.891 131.367C159.665 119.633 159.665 100.609 147.891 88.8759C136.117 77.1423 117.027 77.1423 105.253 88.8759C93.4785 100.609 93.4785 119.633 105.253 131.367C117.027 143.1 136.117 143.1 147.891 131.367Z" fill="white"/>
<path d="M126.576 136.306C141.088 136.306 152.852 124.582 152.852 110.12C152.852 95.6586 141.088 83.9349 126.576 83.9349C112.064 83.9349 100.299 95.6586 100.299 110.12C100.299 124.582 112.064 136.306 126.576 136.306Z" fill="url(#paint5_linear_14_1022)"/>
<path d="M126.576 127.093C135.982 127.093 143.607 119.494 143.607 110.12C143.607 100.747 135.982 93.1476 126.576 93.1476C117.169 93.1476 109.544 100.747 109.544 110.12C109.544 119.494 117.169 127.093 126.576 127.093Z" fill="url(#paint6_linear_14_1022)"/>
<path d="M127.219 76.6459H125.932C124.107 76.6459 122.623 75.1672 122.623 73.3482V63.0494C122.623 61.2304 124.107 59.7516 125.932 59.7516H127.219C129.044 59.7516 130.528 61.2304 130.528 63.0494V73.3482C130.528 75.1672 129.044 76.6459 127.219 76.6459Z" fill="url(#paint7_linear_14_1022)"/>
<path opacity="0.54" d="M144.736 97.4138C144.736 101.313 141.558 104.48 137.645 104.48C133.732 104.48 130.554 101.313 130.554 97.4138C130.554 93.5141 133.732 90.3472 137.645 90.3472C141.572 90.3603 144.736 93.5141 144.736 97.4138Z" fill="white"/>
<path d="M209.462 193.689H43.689V199.892H209.462V193.689Z" fill="url(#paint8_linear_14_1022)"/>
<path d="M223.775 213.541H29.3753C25.9348 213.541 23.1509 210.767 23.1509 207.338V204.852C23.1509 201.423 25.9348 198.649 29.3753 198.649H223.775C227.216 198.649 230 201.423 230 204.852V207.338C230 210.767 227.216 213.541 223.775 213.541Z" fill="url(#paint9_linear_14_1022)"/>
<path d="M126.575 65.2086C127.765 65.2086 128.729 64.2477 128.729 63.0625C128.729 61.8772 127.765 60.9163 126.575 60.9163C125.386 60.9163 124.422 61.8772 124.422 63.0625C124.422 64.2477 125.386 65.2086 126.575 65.2086Z" fill="white"/>
<path d="M180.546 80.0352L174.755 95.5293L140.666 67.4856L154.611 58.2467C165.169 62.9577 174.151 70.5608 180.546 80.0352Z" fill="url(#paint10_linear_14_1022)"/>
<path d="M72.6045 80.0352L78.3955 95.5293L112.485 67.4856L98.5394 58.2467C87.9816 62.9577 78.9996 70.5608 72.6045 80.0352Z" fill="url(#paint11_linear_14_1022)"/>
<path d="M72.6045 151.211L78.3955 135.704L112.485 163.748L98.5394 173C87.9816 168.289 78.9996 160.686 72.6045 151.211Z" fill="url(#paint12_linear_14_1022)"/>
<path d="M180.546 151.211L174.755 135.704L140.666 163.748L154.611 172.987C165.169 168.289 174.151 160.686 180.546 151.211Z" fill="url(#paint13_linear_14_1022)"/>
<path opacity="0.72" d="M223.776 150.91H29.3755V198.662H223.776V150.91Z" fill="url(#paint14_linear_14_1022)"/>
<path d="M217.328 24.5628L174.847 24.7591L174.992 55.4463L175.018 61.9109L181.479 55.407L217.472 55.25L217.328 24.5628Z" fill="url(#paint15_linear_14_1022)"/>
<path d="M199.416 41.2216C199.416 43.0013 197.972 44.4538 196.186 44.4669C194.4 44.4669 192.942 43.0275 192.929 41.2477C192.929 39.468 194.374 38.0154 196.16 38.0023C197.945 37.9893 199.403 39.4287 199.416 41.2216Z" fill="white"/>
<path d="M210.066 41.1823C210.066 42.962 208.622 44.4146 206.836 44.4277C205.05 44.4277 203.592 42.9882 203.579 41.2085C203.579 39.4288 205.024 37.9762 206.809 37.9631C208.609 37.95 210.066 39.4026 210.066 41.1823Z" fill="white"/>
<path d="M189.003 41.2477C189.003 43.0275 187.559 44.48 185.773 44.4931C183.987 44.4931 182.529 43.0536 182.516 41.2739C182.516 39.4942 183.961 38.0416 185.746 38.0285C187.532 38.0154 188.99 39.468 189.003 41.2477Z" fill="white"/>
<path d="M94.0878 0L140.954 0.209379L140.797 34.0634L140.771 41.1954L133.64 34.0372L93.9434 33.854L94.0878 0Z" fill="url(#paint16_linear_14_1022)"/>
<path d="M120.302 20.5392C121.494 18.9631 121.177 16.7232 119.595 15.5362C118.014 14.3492 115.766 14.6646 114.575 16.2407C113.384 17.8168 113.701 20.0567 115.282 21.2437C116.864 22.4307 119.111 22.1152 120.302 20.5392Z" fill="white"/>
<path d="M102.111 18.3338C102.111 20.3098 103.7 21.9063 105.683 21.9063C107.666 21.9063 109.268 20.3229 109.268 18.3469C109.268 16.3709 107.679 14.7744 105.696 14.7744C103.727 14.7744 102.111 16.3709 102.111 18.3338Z" fill="white"/>
<path d="M125.354 18.4123C125.354 20.3883 126.943 21.9848 128.926 21.9848C130.909 21.9848 132.511 20.4014 132.511 18.4254C132.511 16.4494 130.922 14.8528 128.939 14.8528C126.956 14.8528 125.354 16.4363 125.354 18.4123Z" fill="white"/>
<path d="M31.122 42.4124L67.1552 42.5694L67.037 68.5979L67.0107 74.081L61.5348 68.5718L30.9907 68.4409L31.122 42.4124Z" fill="url(#paint17_linear_14_1022)"/>
<path d="M46.3154 56.5324C46.3154 58.0504 47.5367 59.2805 49.0599 59.2805C50.5832 59.2805 51.8176 58.0635 51.8176 56.5455C51.8176 55.0275 50.5963 53.7974 49.0731 53.7974C47.5629 53.7974 46.3286 55.0275 46.3154 56.5324Z" fill="white"/>
<path d="M37.2808 56.5063C37.2808 58.0243 38.502 59.2544 40.0253 59.2544C41.5485 59.2544 42.7829 58.0373 42.7829 56.5193C42.7829 55.0013 41.5617 53.7712 40.0384 53.7712C38.5283 53.7712 37.2808 54.9883 37.2808 56.5063Z" fill="white"/>
<path d="M55.1528 56.5586C55.1528 58.0766 56.3741 59.3067 57.8973 59.3067C59.4206 59.3067 60.655 58.0897 60.655 56.5717C60.655 55.0537 59.4337 53.8236 57.9105 53.8236C56.4003 53.8236 55.1528 55.0537 55.1528 56.5586Z" fill="white"/>
<path d="M0.0919212 98.5261L29.034 98.657L28.9421 119.556L28.9158 123.966L24.5167 119.543L0 119.425L0.0919212 98.5261Z" fill="url(#paint18_linear_14_1022)"/>
<path d="M12.3042 109.872C12.3042 111.089 13.2891 112.083 14.5103 112.083C15.7315 112.083 16.7295 111.102 16.7295 109.885C16.7295 108.668 15.7447 107.673 14.5234 107.673C13.3022 107.673 12.3042 108.655 12.3042 109.872Z" fill="white"/>
<path d="M5.04248 109.846C5.04248 111.063 6.02735 112.057 7.24859 112.057C8.46983 112.057 9.46783 111.076 9.46783 109.859C9.46783 108.642 8.48296 107.647 7.26172 107.647C6.04048 107.647 5.05561 108.629 5.04248 109.846Z" fill="white"/>
<path d="M19.3955 109.898C19.3955 111.115 20.3804 112.11 21.6016 112.11C22.8229 112.11 23.8209 111.128 23.8209 109.911C23.8209 108.694 22.836 107.7 21.6147 107.7C20.3935 107.686 19.4086 108.681 19.3955 109.898Z" fill="white"/>
<path d="M173.311 218.71C173.311 218.71 173.613 220.935 173.652 221.275C173.691 221.615 177.053 221.078 177.053 221.078L177.329 218.422C177.329 218.422 173.731 218.396 173.311 218.71Z" fill="#EEA886"/>
<path d="M173.626 220.987C173.626 220.987 170.763 222.596 169.726 223.185C168.702 223.774 165.524 224.075 165.642 224.677C165.76 225.279 166.666 226.653 170.947 226.614C175.215 226.575 177.276 226.876 177.736 226.156C178.196 225.436 177.08 220.83 177.08 220.83C177.08 220.83 176.108 221.471 173.626 220.987Z" fill="#E8E8E8"/>
<path d="M158.025 222.295L158.524 225.109C158.524 225.109 162.149 224.887 162.306 224.402C162.464 223.918 161.912 221.288 161.912 221.288L158.025 222.295Z" fill="#EEA886"/>
<path d="M162.333 224.193C162.333 224.193 163.475 228.027 162.674 229.48C161.873 230.919 159.273 231.194 158.328 231.116C157.369 231.037 154.782 230.16 152.379 230.278C149.976 230.396 147.153 229.781 147.836 228.302C148.518 226.823 153.758 227.281 155.36 225.907C156.962 224.533 158.393 224.35 158.393 224.35C158.393 224.35 158.407 225.567 162.333 224.193Z" fill="#E8E8E8"/>
<path d="M149.135 150.963L143.384 142.43L148.387 139.656L153.351 148.385L149.135 150.963Z" fill="#514E58"/>
<path d="M149.096 150.19L144.119 142.823L148.453 140.415L152.733 147.966L149.096 150.19Z" fill="#3E3B42"/>
<path d="M153.259 152.009C153.259 152.009 152.221 151.499 152.839 150.256C153.456 149.013 153.022 148.594 153.022 148.594L148.334 151.434C148.334 151.434 149.792 153.645 150.344 153.842C150.908 154.051 153.666 152.847 153.259 152.009Z" fill="#EEA886"/>
<path d="M148.347 151.434C148.347 151.434 146.351 149.418 146.181 149.144C146.01 148.869 145.196 147.639 144.894 146.958C144.605 146.278 146.273 146.801 146.627 147.521C146.982 148.241 147.389 148.515 147.704 148.725C148.019 148.934 150.055 149.523 150.33 150.23C150.606 150.923 148.347 151.434 148.347 151.434Z" fill="#EEA886"/>
<path d="M152.064 146.186C152.064 146.186 151.801 146.88 151.525 146.474C151.249 146.068 151.171 144.786 151.775 144.956C152.379 145.126 152.064 146.186 152.064 146.186Z" fill="#EEA886"/>
<path d="M151.289 144.904C151.289 144.904 151.092 145.767 150.738 145.427C150.475 145.165 150.383 143.503 150.987 143.674C151.604 143.857 151.289 144.904 151.289 144.904Z" fill="#EEA886"/>
<path d="M165.694 152.886C165.694 152.886 163.83 151.551 163.016 150.884C162.215 150.217 160.022 149.104 159.864 148.908C159.706 148.712 153.127 147.115 152.786 146.696C152.445 146.278 151.841 147.364 153.508 148.057C155.176 148.751 157.408 150.086 157.421 150.779C157.435 151.473 155.504 151.29 155.202 151.813C154.913 152.337 155.176 152.258 155.425 152.415C155.675 152.585 157.868 151.839 158.682 152.297C159.496 152.768 160.914 152.572 161.545 152.912C162.175 153.266 165.248 154.941 165.248 154.941L165.694 152.886Z" fill="#EEA886"/>
<path d="M161.742 153.671L160.757 153.096C160.757 153.096 162.622 150.256 163.186 150.426C163.83 150.635 164.618 150.989 164.618 150.989L161.742 153.671Z" fill="#EAD8CF"/>
<path d="M161.414 154.156C161.571 154.077 164.394 150.426 164.394 150.426L168.78 151.839L165.498 156.171L161.414 154.156Z" fill="#CF6645"/>
<path d="M186.061 181.833C186.061 181.833 186.521 188.965 182.975 190.273H155.215C155.215 190.273 162.346 221.092 162.346 221.615L157.736 222.871C157.736 222.871 145.104 196.489 144.513 195.063C143.764 193.296 143.83 188.625 145.997 186.845C148.177 185.078 162.135 180.079 164.88 179.896C167.638 179.726 186.061 181.833 186.061 181.833Z" fill="#353A3D"/>
<path d="M180.612 142.954C180.612 142.954 180.507 144.799 180.455 147.154C180.402 149.523 173.994 147.966 173.994 147.966C173.994 147.966 174.283 145.414 173.547 144.603C172.825 143.778 180.612 142.954 180.612 142.954Z" fill="#EEA886"/>
<path d="M171.223 133.283C171.065 134.278 169.122 135.495 170.501 141.266C171.88 147.05 174.125 146.317 175.885 145.937C177.644 145.558 180.77 144.524 181.952 139.931C183.133 135.325 181.19 132.76 179.811 131.124C178.432 129.501 171.223 133.283 171.223 133.283Z" fill="#EEA886"/>
<path d="M188.963 150.57C188.963 150.57 186.718 162.413 187.545 166.156C187.48 167.674 187.033 170.474 186.967 171.377C186.797 173.772 186.468 181.597 186.468 181.597C179.43 185.759 165.09 180.289 164.893 179.896C164.473 179.032 168.386 173.157 168.386 171.508C168.386 169.859 166.18 163.211 166.18 163.211C166.18 163.211 162.333 168.616 160.074 169.676C157.828 170.736 150.265 155.346 150.265 155.346L154.427 152.31C154.427 152.31 159.496 159.573 159.693 159.796C159.89 160.018 164.92 154.47 165.563 153.37C166.206 152.271 173.993 147.966 173.993 147.966C173.993 147.966 179.824 147.05 180.454 147.154C181.098 147.272 188.451 150.295 188.963 150.57Z" fill="#E8734D"/>
<path d="M167.021 193.637C167.021 193.637 172.168 218.5 172.917 218.671C173.665 218.841 177.67 218.383 177.67 218.383C177.67 218.383 178.353 204.747 178.077 201.672C177.788 198.596 177.736 192.721 177.736 192.721L167.021 193.637Z" fill="#2B2B2B"/>
<path d="M154.086 152.546L153.403 151.538C153.403 151.538 149.779 153.541 149.937 154.025C150.094 154.509 150.58 155.124 150.58 155.124L154.086 152.546Z" fill="#EAD8CF"/>
<path d="M170.094 136.371C170.094 136.371 169.595 136.293 169.266 135.626C168.938 134.971 168.058 130.012 174.348 129.789C179.089 129.619 179.601 129.383 181.295 131.045C183.199 132.917 182.687 139.879 180.625 142.954C180.625 142.954 176.843 142.339 175.281 139.499C174.808 138.648 175.569 135.913 173.823 136.267C172.523 136.528 172.615 139.8 172.615 139.8L171.774 140.101C171.761 140.101 172.536 135.024 170.094 136.371Z" fill="#434343"/>
<path d="M188.964 150.57C188.964 150.57 194.571 155.072 187.099 166.888C183.751 172.201 188.964 150.57 188.964 150.57Z" fill="#E8734D"/>
<path d="M205.601 190.273H155.229V193.741H205.601V190.273Z" fill="#BDB69C"/>
<path d="M158.446 193.741H155.229V232.372H158.446V193.741Z" fill="#80756B"/>
<path d="M205.602 193.741H202.384V232.372H205.602V193.741Z" fill="#80756B"/>
<path d="M174.007 147.966V147.259C174.007 147.259 179.207 145.715 180.481 146.448L180.468 147.168L174.007 147.966Z" fill="#EAD8CF"/>
<path d="M164.894 179.896C164.894 179.896 174.729 187.041 181.334 185.353C185.957 184.175 186.469 181.597 186.469 181.597L164.894 179.896Z" fill="#E8734D"/>
<path d="M159.693 159.783L156.87 162.505L158.525 158.16L159.693 159.783Z" fill="#803F2A"/>
<path d="M54.4173 226.771C54.4173 226.771 55.7173 228.708 57.5294 229.126C59.3416 229.545 61.1406 230.213 61.1538 231.351C61.1669 232.49 55.9011 233.17 53.8263 232.019C50.7273 230.304 50.4121 230.815 50.0576 229.964C49.7161 229.1 50.4646 226.81 50.4515 226.535C50.4253 226.195 54.4173 226.771 54.4173 226.771Z" fill="#353A3D"/>
<path d="M54.2205 225.829C54.2205 225.829 54.4568 226.758 54.4174 226.784C54.378 226.81 50.3204 227.281 50.4386 226.535C50.5436 225.933 50.6749 225.266 50.6749 225.266L54.2205 225.829Z" fill="#81807E"/>
<path d="M40.7605 226.653C40.7605 226.653 41.6797 228.498 43.2686 229.126C44.9626 229.794 46.3152 230.566 46.2758 231.691C46.2495 232.804 42.1524 233.929 39.1716 231.796C37.2937 230.448 36.6897 230.435 36.3877 229.584C36.0856 228.734 36.9129 226.522 36.8998 226.261C36.8867 225.92 40.7605 226.653 40.7605 226.653Z" fill="#353A3D"/>
<path d="M40.8001 225.685C40.8001 225.685 40.7869 226.627 40.7475 226.64C40.7081 226.653 36.7949 226.98 36.8868 226.247C36.9656 225.672 37.2677 224.965 37.2677 224.965L40.8001 225.685Z" fill="#81807E"/>
<path d="M55.1923 169.244C55.1923 169.244 58.8429 185.275 59.6702 190.156C60.3793 194.304 60.9439 198.636 60.6025 201.632C60.1823 205.349 54.9034 224.586 55.1266 225.685C55.3499 226.771 49.6113 225.855 49.6113 225.855C49.6113 225.855 53.6165 204.394 52.8155 200.389C52.2245 197.432 47.0244 177.776 46.2234 178.784C45.4224 179.791 44.4375 197.34 43.8466 200.245C43.2557 203.163 41.4435 226.169 41.4435 226.169C41.4435 226.169 37.3858 226.771 36.309 225.855C36.309 225.855 35.81 206.213 36.1909 200.742C36.3353 198.662 33.7484 175.8 37.0707 166.587C38.8303 161.719 55.1923 169.244 55.1923 169.244Z" fill="#2D3133"/>
<path d="M71.0682 154.679C68.4682 154.313 60.3003 157.924 59.5518 157.65C59.0397 157.466 57.8447 153.567 56.9911 150.622C56.479 148.882 56.0982 147.468 56.0457 147.351C56.0588 147.429 56.1901 148.764 56.0194 150.518C56.0063 150.635 55.9931 150.74 55.98 150.858C55.98 150.884 55.9669 150.923 55.9669 150.949C55.8881 151.578 55.7699 152.245 55.5992 152.925C55.3366 153.92 55.2184 155.242 55.1658 156.629C55.1658 156.642 55.1658 156.655 55.1658 156.655C55.1658 156.681 55.1658 156.72 55.1658 156.747C55.1658 156.76 55.1658 156.773 55.1658 156.786C55.0871 159.312 55.2709 162.033 55.3366 163.473C55.4547 165.711 54.7062 166.731 54.6931 166.758L53.9052 166.653L53.3406 166.574H53.3274L52.5658 166.47L49.5981 166.051L48.5213 165.907L48.2718 165.868L46.3939 165.606L41.1019 164.86L40.5241 164.782L40.2877 164.742L38.2917 164.467L37.3857 164.337C37.3857 164.337 36.624 158.919 36.5584 155.988C36.5058 153.292 35.0614 147.835 34.825 146.958V146.945C34.825 146.932 34.825 146.932 34.825 146.919C34.825 146.906 34.8119 146.893 34.8119 146.88V146.867V146.853C34.8119 146.853 30.4916 151.381 29.6511 153.357C29.4016 153.959 28.6138 155.582 27.6158 157.571C26.9329 156.276 26.5127 155.373 26.5127 155.15C26.5127 155.124 26.5127 155.098 26.5127 155.058C26.5784 153.109 28.6269 145.191 30.2552 140.022C31.5158 137.497 32.5926 135.468 32.9472 135.22C33.4724 134.84 35.6917 133.898 37.6352 133.126C37.7008 133.1 37.7665 133.074 37.819 133.047C38.0028 132.982 38.1736 132.904 38.3443 132.838C38.4362 132.799 38.515 132.773 38.5938 132.733C38.6463 132.72 38.6857 132.694 38.7251 132.681C38.7645 132.668 38.8039 132.655 38.8301 132.642C39.8019 132.275 40.5372 132.014 40.6817 132.014C40.708 132.014 40.7474 132.014 40.7999 132.014C40.8655 132.014 40.9443 132.014 41.0494 132.027C42.2444 132.092 45.8162 132.432 46.9717 132.537C47.1818 132.55 47.3132 132.563 47.3263 132.576C47.3263 132.576 47.8778 132.825 48.692 133.205L48.7708 133.244C49.2698 133.466 49.8476 133.78 50.4516 134.107C51.6466 134.762 52.9729 135.521 54.0628 136.044C55.1396 136.555 56.6103 137.261 56.7285 137.366L62.165 152.991L71.5935 151.277L71.0682 154.679Z" fill="#DECBC4"/>
<path d="M54.6799 166.758C54.6799 166.758 55.0739 167.229 55.1921 169.244C55.1921 169.244 38.8038 167.333 37.0705 166.587C37.0705 166.587 37.0048 164.376 37.3725 164.337C37.7796 164.297 54.6799 166.758 54.6799 166.758Z" fill="#495055"/>
<path d="M40.708 131.451C40.7605 134.016 45.7374 135.416 45.7374 135.416C45.7374 135.416 47.8253 132.812 47.3263 132.563C47.1294 132.472 47.0506 132.079 47.0243 131.647C46.998 131.229 47.0243 130.771 47.0506 130.483C47.0637 130.299 47.0768 130.182 47.0768 130.182C47.0768 130.182 46.3677 129.436 45.4616 128.546C43.8859 126.989 41.706 124.986 41.706 125.785C41.706 125.824 41.706 125.876 41.7191 125.942C42.1131 127.721 40.708 131.451 40.708 131.451Z" fill="#EEA886"/>
<path d="M41.1282 164.729C41.1282 164.729 40.7737 166.98 40.7343 167.556L39.9727 167.399C39.9727 167.399 40.1828 165.017 40.3009 164.625L41.1282 164.729Z" fill="#353A3D"/>
<path d="M53.3144 166.496C53.3144 166.496 53.6033 168.537 53.6033 169.309L52.8022 169.205C52.8022 169.205 52.6315 166.653 52.5527 166.391L53.3144 166.496Z" fill="#353A3D"/>
<path d="M42.625 127.695C42.6381 127.708 42.8482 128.022 43.2028 128.48C43.9644 129.436 45.4089 131.006 47.0241 131.647C46.9978 131.229 47.0241 130.771 47.0503 130.483C47.2211 130.483 47.3786 130.456 47.5494 130.417C47.1029 129.645 46.4726 128.834 46.4726 128.834L45.4746 128.533L42.625 127.695Z" fill="#A77860"/>
<path d="M41.6664 125.811C42.0997 126.74 42.5068 127.42 42.625 127.695C42.7038 127.865 42.9008 128.153 43.2028 128.48C44.017 129.357 45.5534 130.522 47.0504 130.483C47.2211 130.483 47.3787 130.456 47.5494 130.417C48.1534 130.286 48.8757 130.012 49.2565 129.239C52.3687 123.181 50.11 118.221 50.11 118.221C50.11 118.221 41.6139 115.826 40.2876 118.378C39.3684 120.171 40.6553 123.625 41.6664 125.811Z" fill="#EEA886"/>
<path d="M50.1232 118.221C50.1232 118.221 50.9111 118.182 51.1081 116.69C51.305 115.224 50.9111 114.805 50.9111 114.805C50.9111 114.805 47.405 113.34 46.1443 113.156C44.8837 112.96 41.7846 112.79 41.0624 113.614C41.0624 113.614 39.3028 113.209 38.8169 116.127C38.0553 120.76 41.417 125.248 41.417 125.248C41.417 125.248 41.3907 122.225 42.0604 121.82C42.7301 121.414 43.3079 122.369 43.3079 122.369L44.6736 122.618C44.6736 122.618 42.5988 118.142 45.0938 117.985C47.5757 117.815 48.6919 118.483 50.1232 118.221Z" fill="#434343"/>
<path d="M43.2557 121.165C43.1244 119.83 40.7082 119.32 40.8658 120.72C41.0234 122.121 42.2183 123.455 42.7699 123.416C43.3345 123.364 43.3608 122.173 43.2557 121.165Z" fill="#EEA886"/>
<path d="M27.5896 157.558C28.6402 159.56 30.3079 162.505 31.9493 165.357C31.7392 165.763 31.516 166.156 31.319 166.548C30.82 167.503 30.3867 168.446 30.0715 169.309C29.7038 170.356 29.1786 173.026 30.1766 173.523L35.4161 176.402C35.4161 176.402 35.4555 176.297 35.5211 176.114C35.6918 175.643 36.0727 174.649 36.5979 173.34C36.6111 173.301 36.6636 173.17 36.7424 172.987C36.8474 172.738 36.9919 172.398 37.1626 171.992C37.2414 171.809 37.3202 171.626 37.399 171.429C37.4909 171.207 37.5959 170.984 37.6878 170.749C37.8323 170.422 37.9767 170.095 38.1081 169.781C38.4626 168.956 38.7384 168.302 38.7384 168.302C38.7515 168.262 38.7778 168.223 38.7909 168.184C38.9616 167.818 39.1323 167.451 39.3162 167.085C39.5919 166.509 39.8808 165.946 40.1697 165.397C40.196 165.344 40.2222 165.279 40.2616 165.226C40.3142 165.135 40.3667 165.03 40.4192 164.939C40.4455 164.873 40.4849 164.821 40.5111 164.755C40.5243 164.742 40.5243 164.729 40.5374 164.716C40.5505 164.69 40.5637 164.664 40.5768 164.651C42.0869 161.903 43.794 159.599 44.3456 156.21C44.3981 155.883 44.4506 155.556 44.49 155.242C44.5688 154.705 44.6476 154.182 44.7133 153.658C44.7395 153.462 44.7658 153.266 44.792 153.069C45.0678 150.819 45.2254 148.803 45.3567 147.416C45.7638 143.058 43.0849 138.347 41.0364 135.429C39.9334 133.872 39.0141 132.825 38.8434 132.629L38.8303 132.616C38.7909 132.629 38.7515 132.642 38.7252 132.655C38.6858 132.668 38.6333 132.694 38.5939 132.707C38.5151 132.733 38.4232 132.773 38.3444 132.812C38.1737 132.877 37.9899 132.943 37.8192 133.021C37.7535 133.048 37.6878 133.074 37.6353 133.1C35.6393 133.872 30.9513 135.259 30.4261 135.639C30.124 135.861 29.9402 137.615 29.1523 140.127C27.5371 145.296 26.5654 153.096 26.526 155.045C26.526 155.072 26.526 155.111 26.526 155.137C26.4866 155.359 26.9068 156.262 27.5896 157.558ZM35.5605 156.577C35.5605 157.545 35.2454 158.657 34.7595 159.848C34.7464 159.874 34.7332 159.913 34.7201 159.94C34.3787 159.22 34.0635 158.539 33.7878 157.911C33.013 156.171 32.4746 154.81 32.4483 154.273C32.2514 150.819 34.7989 146.853 34.7989 146.853V146.867C34.7989 146.88 34.812 146.893 34.812 146.906C34.812 146.919 34.812 146.919 34.812 146.932V146.945C35.3373 149.013 35.5605 156.577 35.5605 156.577Z" fill="#5B83C2"/>
<path d="M74.5482 149.379L62.6772 151.957L57.0175 137.209C56.8862 137.104 55.271 136.241 54.1942 135.73C53.078 135.194 51.6598 134.539 50.4123 133.964C49.8082 133.689 49.2436 133.427 48.7708 133.205L48.7314 133.231C48.7314 133.231 49.4274 135.56 50.3335 141.357C50.3598 141.554 50.3992 141.75 50.4254 141.959C50.4254 141.985 50.4386 142.012 50.4386 142.025C50.4648 142.156 50.4779 142.299 50.5042 142.43C50.5042 142.443 50.5042 142.456 50.5173 142.483C50.5305 142.574 50.5436 142.666 50.5567 142.757C50.5961 142.993 50.6224 143.215 50.6618 143.464C51.0689 146.291 51.6335 151.093 52.1719 155.948C52.6053 159.77 53.5901 163.695 53.8922 166.627C53.9578 167.203 54.1023 167.962 54.2992 168.825C54.3255 168.917 54.3386 169.021 54.3649 169.126C55.2447 172.816 56.9518 178.051 56.9518 178.051L57.4508 177.593L58.9216 176.245C59.263 175.931 59.3943 175.46 59.2499 175.015C58.4357 172.398 55.6649 163.12 55.1528 156.59C54.9952 154.535 55.5993 152.611 55.9407 150.779C55.9407 150.792 55.9538 150.805 55.9538 150.832C56.2427 151.643 56.571 152.52 56.8993 153.37C57.7791 155.674 58.6721 157.794 59.0398 157.937C59.867 158.238 75.4937 153.985 75.5987 153.37L74.5482 149.379Z" fill="#5B83C2"/>
<path d="M40.2092 138.989L42.6254 140.35L41.588 141.396L44.3456 156.223C44.9103 152.742 45.1598 149.445 45.3568 147.429C45.9871 140.69 39.2506 133.1 38.8304 132.629C38.5021 132.746 38.1607 132.89 37.793 133.034L40.2092 138.989Z" fill="#4E70A6"/>
<path d="M48.6919 133.191C48.6919 133.191 49.598 136.136 50.6485 143.49C51.0556 146.317 51.6202 151.12 52.1718 155.975L52.7364 142.09L51.5808 140.847L52.6051 139.564L50.4121 133.977C49.8081 133.702 49.2434 133.44 48.7707 133.218L48.6919 133.191Z" fill="#4E70A6"/>
<path d="M38.6987 132.668L40.7079 131.451C40.7079 131.451 40.7604 132.55 45.7373 135.416L44.3191 139.381L38.6987 132.668Z" fill="#F5E2D9"/>
<path d="M47.0636 132.001C47.0636 132.001 46.9848 133.191 45.7373 135.416L48.4949 139.002L48.6919 133.191L47.0636 132.001Z" fill="#F5E2D9"/>
<path d="M45.7241 135.416C45.7241 135.416 45.1857 137.549 45.3827 138.138C45.3827 138.138 46.5514 138.57 47.405 138.033C47.405 138.033 46.814 136.541 45.7241 135.416Z" fill="#323657"/>
<path d="M48.4951 166.116C48.7971 164.611 48.5082 160.11 48.4951 159.927L48.2456 159.94C48.2456 159.992 48.5345 164.598 48.2456 166.064L48.4951 166.116Z" fill="#AD9F99"/>
<path d="M46.407 165.423C46.407 165.423 48.8232 165.711 49.6111 165.907L49.5061 168.603L46.3545 168.263L46.407 165.423Z" fill="#69737A"/>
<path d="M46.9322 137.837C46.9322 137.837 49.6242 144.603 49.1777 152.18C48.7181 160.031 47.9827 162.884 47.9827 162.884L46.3281 164.952L45.5928 162.4C45.5928 162.4 47.812 152.389 46.3807 142.653C46.118 140.886 45.7372 137.536 45.7372 137.536L46.9322 137.837Z" fill="#323657"/>
<path d="M38.8434 169.794C38.8434 169.794 39.4212 170.945 39.999 171.128C40.5768 171.325 41.4172 172.254 41.4172 172.254L37.3596 174.387C37.3596 174.387 36.2828 172.28 36.2303 170.932C36.1777 169.597 38.8434 169.794 38.8434 169.794Z" fill="#EEA886"/>
<path d="M39.2372 169.898L39.4998 170.435C39.4998 170.435 36.926 172.319 36.23 172.437L35.9937 171.717L39.2372 169.898Z" fill="#DECBC4"/>
<path d="M39.4999 169.924C39.4999 169.924 37.5695 171.521 35.9412 172.254L30.4653 162.426L33.3018 156.956C33.3018 156.956 39.3817 168.969 39.4999 169.924Z" fill="#5B83C2"/>
<path d="M55.875 147.377C55.9669 149.196 55.9538 150.805 55.9538 150.805C55.9538 150.819 55.9538 150.858 55.9538 150.949C55.9538 150.923 55.9669 150.884 55.9669 150.858C56.2558 151.669 56.5841 152.546 56.9124 153.397C56.9912 152.402 57.0043 151.486 56.9912 150.622C56.8599 145.532 55.2578 142.862 55.2578 142.862C55.6124 143.739 55.7831 145.649 55.875 147.377Z" fill="#2F4363"/>
<path d="M31.3188 166.548L35.7048 171.822L31.9492 165.344C31.7259 165.763 31.5158 166.156 31.3188 166.548Z" fill="#2F4363"/>
<path d="M63.1761 159.927H73.3006C73.9965 159.927 74.6006 159.455 74.7582 158.775L79.1572 140.677C79.3805 139.735 78.6714 138.832 77.6996 138.832H67.5752C66.8792 138.832 66.2751 139.303 66.1176 139.983L61.7185 158.081C61.4821 159.024 62.2044 159.927 63.1761 159.927Z" fill="#323657"/>
<path d="M75.5594 154.901C75.0604 154.443 74.1018 154.182 73.2877 153.632C72.4735 153.082 73.1563 152.52 73.1563 152.52C72.3159 152.232 72.4078 151.852 72.5129 151.591C72.6573 151.237 73.5766 151.342 73.5766 151.342C73.5766 151.342 72.7493 151.159 72.4078 151.015C72.0664 150.871 72.1846 150.282 72.7099 150.086C73.2351 149.903 75.3493 150.426 75.3493 150.426C75.3493 150.426 75.0079 150.256 73.9574 149.732C72.9068 149.209 72.6836 148.738 73.3008 148.502C73.7341 148.345 74.5746 148.672 76.1897 149.759C77.411 150.57 77.3059 150.688 77.3059 150.688C77.3059 150.688 76.1504 155.438 75.5594 154.901Z" fill="#EEA886"/>
</g>
<defs>
<linearGradient id="paint0_linear_14_1022" x1="175.24" y1="37.8888" x2="175.24" y2="243.49" gradientUnits="userSpaceOnUse">
<stop stop-color="#3E589E"/>
<stop offset="1" stop-color="#B8EBFF"/>
</linearGradient>
<linearGradient id="paint1_linear_14_1022" x1="194.842" y1="115.62" x2="204.642" y2="115.62" gradientUnits="userSpaceOnUse">
<stop stop-color="#8EC3F9"/>
<stop offset="1" stop-color="#B8EBFF"/>
</linearGradient>
<linearGradient id="paint2_linear_14_1022" x1="78.1077" y1="37.8888" x2="78.1077" y2="243.49" gradientUnits="userSpaceOnUse">
<stop stop-color="#3E589E"/>
<stop offset="1" stop-color="#B8EBFF"/>
</linearGradient>
<linearGradient id="paint3_linear_14_1022" x1="58.5056" y1="115.62" x2="48.7054" y2="115.62" gradientUnits="userSpaceOnUse">
<stop stop-color="#8EC3F9"/>
<stop offset="1" stop-color="#B8EBFF"/>
</linearGradient>
<linearGradient id="paint4_linear_14_1022" x1="65.0979" y1="115.622" x2="188.053" y2="115.622" gradientUnits="userSpaceOnUse">
<stop stop-color="#8EC3F9"/>
<stop offset="1" stop-color="#B8EBFF"/>
</linearGradient>
<linearGradient id="paint5_linear_14_1022" x1="126.576" y1="93.2343" x2="126.576" y2="170.429" gradientUnits="userSpaceOnUse">
<stop stop-color="#3E589E"/>
<stop offset="1" stop-color="#B8EBFF"/>
</linearGradient>
<linearGradient id="paint6_linear_14_1022" x1="126.575" y1="92.3042" x2="126.575" y2="216.081" gradientUnits="userSpaceOnUse">
<stop stop-color="#3E589E"/>
<stop offset="1" stop-color="#B8EBFF"/>
</linearGradient>
<linearGradient id="paint7_linear_14_1022" x1="129.413" y1="76.531" x2="109.825" y2="18.5991" gradientUnits="userSpaceOnUse">
<stop stop-color="#3E589E"/>
<stop offset="1" stop-color="#B8EBFF"/>
</linearGradient>
<linearGradient id="paint8_linear_14_1022" x1="76.2993" y1="196.794" x2="262.676" y2="196.794" gradientUnits="userSpaceOnUse">
<stop stop-color="#617AE0"/>
<stop offset="1" stop-color="#B8EBFF"/>
</linearGradient>
<linearGradient id="paint9_linear_14_1022" x1="126.575" y1="280.2" x2="126.575" y2="163.531" gradientUnits="userSpaceOnUse">
<stop stop-color="#8EC3F9"/>
<stop offset="1" stop-color="#B8EBFF"/>
</linearGradient>
<linearGradient id="paint10_linear_14_1022" x1="160.607" y1="40.576" x2="160.607" y2="114.141" gradientUnits="userSpaceOnUse">
<stop stop-color="#8EC3F9"/>
<stop offset="1" stop-color="#B8EBFF"/>
</linearGradient>
<linearGradient id="paint11_linear_14_1022" x1="92.5434" y1="40.576" x2="92.5434" y2="114.141" gradientUnits="userSpaceOnUse">
<stop stop-color="#8EC3F9"/>
<stop offset="1" stop-color="#B8EBFF"/>
</linearGradient>
<linearGradient id="paint12_linear_14_1022" x1="130.739" y1="267.57" x2="77.9066" y2="114.242" gradientUnits="userSpaceOnUse">
<stop stop-color="#8EC3F9"/>
<stop offset="1" stop-color="#B8EBFF"/>
</linearGradient>
<linearGradient id="paint13_linear_14_1022" x1="131.961" y1="240.047" x2="184.794" y2="86.7179" gradientUnits="userSpaceOnUse">
<stop stop-color="#8EC3F9"/>
<stop offset="1" stop-color="#B8EBFF"/>
</linearGradient>
<linearGradient id="paint14_linear_14_1022" x1="126.576" y1="144.162" x2="126.576" y2="265.582" gradientUnits="userSpaceOnUse">
<stop stop-color="#40CDE6"/>
<stop offset="1" stop-color="#4088E6"/>
</linearGradient>
<linearGradient id="paint15_linear_14_1022" x1="196.162" y1="-13.4727" x2="196.162" y2="84.6246" gradientUnits="userSpaceOnUse">
<stop stop-color="#40D5E6"/>
<stop offset="1" stop-color="#5577FF"/>
</linearGradient>
<linearGradient id="paint16_linear_14_1022" x1="117.446" y1="-41.9501" x2="117.446" y2="66.2542" gradientUnits="userSpaceOnUse">
<stop stop-color="#40D5E6"/>
<stop offset="1" stop-color="#5577FF"/>
</linearGradient>
<linearGradient id="paint17_linear_14_1022" x1="49.0769" y1="10.145" x2="49.0769" y2="93.3587" gradientUnits="userSpaceOnUse">
<stop stop-color="#40D5E6"/>
<stop offset="1" stop-color="#5577FF"/>
</linearGradient>
<linearGradient id="paint18_linear_14_1022" x1="14.5188" y1="72.6154" x2="14.5188" y2="139.44" gradientUnits="userSpaceOnUse">
<stop stop-color="#40D5E6"/>
<stop offset="1" stop-color="#5577FF"/>
</linearGradient>
<clipPath id="clip0_14_1022">
<rect width="230" height="233" fill="white"/>
</clipPath>
</defs>
</svg>
