<svg width="387" height="403" viewBox="0 0 387 403" fill="none" xmlns="http://www.w3.org/2000/svg">
<path d="M384.313 135.166C384.312 135.047 384.311 134.81 384.31 134.691C384.309 134.572 384.309 134.572 384.308 134.454C384.306 134.217 384.304 133.861 384.183 133.624C384.06 133.032 383.936 132.321 383.813 131.729C383.811 131.492 383.691 131.255 383.69 131.137C383.567 130.544 383.326 130.071 383.084 129.48C383.083 129.361 382.963 129.125 382.962 129.006C382.721 128.534 382.599 128.06 382.358 127.587C381.153 125.105 379.355 122.864 377.087 121.101L233.316 6.4893C230.569 4.25544 227.354 2.85548 223.908 2.40631C220.58 1.83764 217.021 2.21976 213.707 3.54917L42.0711 70.538C35.4429 73.1968 30.7376 79.0446 29.6021 86.0525L14.9774 201.579L19.5717 205.755L24.5835 209.932L44.3388 88.3167C44.5631 86.5355 45.7397 85.1032 47.3972 84.4978L219.033 17.5091C219.862 17.147 220.693 17.1409 221.524 17.2534C222.356 17.3659 223.19 17.7157 223.906 18.3036L367.44 132.917C367.559 133.035 367.679 133.153 367.799 133.27C367.918 133.388 368.038 133.506 368.157 133.624C368.277 133.741 368.277 133.741 368.278 133.86C368.397 133.978 368.398 134.096 368.518 134.214C368.519 134.333 368.638 134.451 368.638 134.451L368.759 134.687C369 135.278 369.242 135.87 369.247 136.582C369.25 136.937 369.253 137.293 369.255 137.649L341.153 319.251C340.928 321.033 339.752 322.465 338.094 323.07L166.458 390.059C165.63 390.421 164.799 390.427 163.967 390.315C163.135 390.202 162.302 389.853 161.585 389.265L18.1696 274.532L18.05 274.414C17.453 273.944 17.0934 273.472 16.732 272.763C16.7312 272.644 16.6125 272.645 16.6116 272.526C16.6107 272.408 16.4911 272.29 16.4903 272.171C16.3698 271.935 16.3681 271.698 16.2485 271.58C16.1254 270.988 16.1211 270.394 16.2354 269.8L19.0702 251.747L4.33258 249.364L1.49867 267.536C0.817907 271.812 1.56246 276.196 3.6075 279.859C3.60838 279.977 3.72708 279.977 3.72795 280.095C3.72883 280.214 3.8484 280.332 3.96798 280.449C4.08756 280.567 4.20801 280.804 4.20888 280.922C4.44891 281.276 4.68894 281.63 4.92897 281.985C5.04855 282.102 5.16812 282.22 5.28857 282.456C5.88733 283.164 6.4861 283.871 7.08486 284.579C7.20443 284.696 7.44359 284.932 7.56316 285.05C7.9219 285.403 8.28063 285.756 8.75806 286.109L152.292 400.722C155.038 402.956 158.253 404.237 161.7 404.805C165.027 405.255 168.586 404.992 171.9 403.662L343.536 336.555C350.165 334.015 354.869 328.048 356.005 321.04L384.107 139.438C384.334 138.013 384.324 136.589 384.313 135.166Z" fill="url(#paint0_linear_16_2248)"/>
<path d="M18.162 273.464C18.1646 273.82 18.0485 274.177 18.1698 274.532C18.1751 275.243 18.4177 275.953 18.7782 276.544L16.734 273L16.7331 272.881C16.7323 272.763 16.6136 272.764 16.6127 272.645C16.6118 272.526 16.4922 272.408 16.4914 272.29C16.3709 272.053 16.3692 271.816 16.2496 271.698C16.1265 271.106 16.1221 270.513 16.2365 269.919L19.0713 251.865L21.5667 252.203L18.162 273.464Z" fill="url(#paint1_linear_16_2248)"/>
<path d="M370.8 137.875C370.558 137.284 370.08 136.813 369.602 136.342L369.482 136.224L225.95 21.729C225.233 21.1411 224.399 20.7914 223.568 20.6789C222.736 20.5663 221.787 20.692 220.958 20.9354L49.3218 87.9241C47.6643 88.5295 46.4886 90.0805 46.1447 91.7439L26.2543 211.185L24.5836 209.932L44.1005 88.1999C44.3248 86.4187 45.5014 84.9864 47.1589 84.381L218.795 17.3922C219.623 17.0302 220.454 17.0241 221.286 17.1366C222.118 17.2491 222.951 17.5988 223.668 18.1867L367.202 132.8C367.321 132.918 367.441 133.036 367.56 133.154C367.68 133.271 367.799 133.389 367.919 133.507C368.039 133.625 368.039 133.625 368.039 133.743C368.159 133.861 368.16 133.98 368.28 134.097C368.28 134.216 368.4 134.334 368.4 134.334L368.52 134.57L370.8 137.875Z" fill="url(#paint2_linear_16_2248)"/>
<path d="M383.925 130.779L381.999 127.115C384.044 130.778 384.788 135.162 384.108 139.438L356.005 321.04C354.869 328.048 350.164 333.896 343.536 336.555L171.9 403.544C168.586 404.873 165.026 405.137 161.699 404.687C158.252 404.119 155.038 402.837 152.291 400.604L8.75832 286.109C6.60942 284.464 4.93185 282.34 3.72734 279.977L5.65368 283.64C6.85819 286.004 8.6536 288.008 10.6847 289.772L154.217 404.267C156.964 406.501 160.18 407.901 163.626 408.35C166.954 408.919 170.512 408.537 173.826 407.207L345.462 340.218C352.091 337.678 356.796 331.712 357.931 324.704L386.034 143.102C386.715 138.826 385.971 134.56 383.925 130.779Z" fill="url(#paint3_linear_16_2248)"/>
<defs>
<linearGradient id="paint0_linear_16_2248" x1="0.800555" y1="204.985" x2="384.799" y2="202.157" gradientUnits="userSpaceOnUse">
<stop stop-color="#FF9C45"/>
<stop offset="0.332" stop-color="#FFCD6C"/>
<stop offset="0.4941" stop-color="#FFC554"/>
<stop offset="0.7179" stop-color="#FF9F46"/>
<stop offset="0.8694" stop-color="#FF9C45"/>
</linearGradient>
<linearGradient id="paint1_linear_16_2248" x1="14.2702" y1="271.416" x2="22.6133" y2="258.329" gradientUnits="userSpaceOnUse">
<stop stop-color="#A35137"/>
<stop offset="0.4488" stop-color="#F6B64D"/>
<stop offset="1" stop-color="#9C4833"/>
</linearGradient>
<linearGradient id="paint2_linear_16_2248" x1="137.981" y1="221.653" x2="228.606" y2="79.4987" gradientUnits="userSpaceOnUse">
<stop stop-color="#A35137"/>
<stop offset="0.4488" stop-color="#F6B64D"/>
<stop offset="1" stop-color="#9C4833"/>
</linearGradient>
<linearGradient id="paint3_linear_16_2248" x1="25.4594" y1="47.5952" x2="262.009" y2="270.617" gradientUnits="userSpaceOnUse">
<stop stop-color="#A35137"/>
<stop offset="0.1541" stop-color="#AB5B39"/>
<stop offset="0.2854" stop-color="#FFC14F"/>
<stop offset="0.769" stop-color="#9C4833"/>
</linearGradient>
</defs>
</svg>
