<svg width="154" height="162" viewBox="0 0 154 162" fill="none" xmlns="http://www.w3.org/2000/svg">
<g clip-path="url(#clip0_14_780)">
<path d="M132.466 36.9312C134.293 39.1576 135.599 41.6459 136.382 44.2651L153.478 105.555C154.914 110.925 153.739 115.901 150.346 118.783L108.453 153.226C105.06 156.107 99.8392 156.238 95.0104 153.749L36.0206 124.021C33.5409 122.842 31.3222 121.009 29.6256 118.783C27.7985 116.556 26.4934 114.068 25.7104 111.449L8.61377 49.6346C7.17818 44.3961 8.35275 39.2886 11.746 36.5384L53.2477 2.22631C56.6409 -0.65485 61.8612 -0.785812 66.69 1.70247L125.941 31.6928C128.421 32.8714 130.639 34.7049 132.466 36.9312Z" fill="url(#paint0_linear_14_780)"/>
<path d="M101.275 142.225C101.144 142.225 101.014 142.094 100.883 142.094L41.8936 112.234C41.1105 111.842 40.3275 111.187 39.6749 110.401C39.0224 109.615 38.5003 108.698 38.2393 107.913L21.1427 46.0986C21.1427 45.9677 21.0122 45.8367 21.0122 45.7058L60.4258 13.2272C60.5563 13.2272 60.6868 13.3581 60.8173 13.3581L120.068 43.3484C120.851 43.7413 121.634 44.3961 122.287 45.1819C122.939 45.9677 123.461 46.8844 123.592 47.6702L140.688 109.091C140.688 109.222 140.819 109.353 140.819 109.484L101.275 142.225Z" fill="url(#paint1_linear_14_780)"/>
<path d="M50.2461 101.757L35.8901 50.4204L62.2528 28.8116L111.846 53.8254L126.071 104.77L99.4478 126.64L50.2461 101.757Z" fill="url(#paint2_linear_14_780)"/>
<path d="M96.3154 161.738C96.7069 161.607 96.9679 161.607 97.3594 161.476C97.4899 161.476 97.7509 161.345 97.8814 161.345C98.273 161.214 98.534 161.083 98.795 160.952C98.9255 160.821 99.056 160.821 99.1865 160.69C99.5781 160.428 100.1 160.167 100.492 159.774L108.453 153.226C108.061 153.487 107.67 153.88 107.148 154.142C107.017 154.273 106.887 154.273 106.756 154.404C106.495 154.535 106.103 154.666 105.842 154.797C105.712 154.928 105.451 154.928 105.32 154.928C105.059 155.059 104.668 155.19 104.276 155.19C104.146 155.19 103.885 155.321 103.754 155.321C103.363 155.452 102.971 155.452 102.58 155.452C102.449 155.452 102.319 155.452 102.188 155.452C101.666 155.452 101.144 155.452 100.492 155.452C100.361 155.452 100.231 155.452 100.1 155.452C99.7086 155.452 99.1865 155.321 98.795 155.19C98.6645 155.19 98.4035 155.059 98.273 155.059C97.8815 154.928 97.4899 154.797 97.0984 154.666C96.9679 154.666 96.8374 154.535 96.5764 154.535C96.0543 154.273 95.5323 154.142 94.8797 153.88L36.0204 124.021C35.6289 123.759 35.2374 123.497 34.7153 123.366C34.4543 123.235 34.1933 123.104 33.9323 122.973C33.5408 122.711 33.2798 122.449 32.8882 122.318C32.6272 122.188 32.4967 122.057 32.2357 121.795C31.8442 121.533 31.5831 121.14 31.1916 120.878C31.0611 120.747 30.8001 120.616 30.6696 120.485C30.1476 119.961 29.756 119.568 29.3645 118.913C27.5374 116.687 26.2323 114.199 25.4492 111.58L8.61365 49.6346C7.17806 44.3961 8.35264 39.2886 11.7459 36.5384L45.156 8.9054L53.117 2.3573L11.7459 36.5384L3.78484 43.0865C0.391621 45.9676 -0.913464 50.9442 0.652638 56.3136L17.8798 118.128C18.6628 120.747 19.9679 123.366 21.795 125.462C22.1865 125.985 22.7086 126.509 23.1001 127.033C23.2306 127.164 23.4916 127.295 23.6221 127.426C24.0137 127.688 24.2747 128.081 24.6662 128.343C24.9272 128.474 25.0577 128.605 25.3187 128.867C25.5798 129.129 25.9713 129.39 26.3628 129.521C26.6238 129.652 26.8848 129.783 27.1459 129.914C27.4069 130.045 27.6679 130.176 27.9289 130.307C28.0594 130.438 28.3204 130.438 28.4509 130.569L87.4408 160.297C87.9628 160.559 88.4848 160.821 89.1374 160.952C89.2679 160.952 89.3984 161.083 89.6594 161.083C89.7899 161.083 90.0509 161.214 90.1814 161.214C90.4425 161.345 90.573 161.345 90.834 161.345C90.9645 161.345 91.2255 161.476 91.356 161.476C91.7476 161.607 92.2696 161.607 92.6611 161.738C92.7916 161.738 92.9221 161.738 93.0526 161.738C93.5747 161.738 94.0967 161.869 94.7492 161.738C94.8798 161.738 95.0103 161.738 95.1408 161.738C95.5323 161.738 95.9238 161.607 96.3154 161.607C96.0543 161.869 96.1848 161.738 96.3154 161.738Z" fill="url(#paint3_radial_14_780)"/>
</g>
<defs>
<linearGradient id="paint0_linear_14_780" x1="7.98381" y1="77.7258" x2="153.967" y2="77.7258" gradientUnits="userSpaceOnUse">
<stop stop-color="#F8F3E8"/>
<stop offset="0.4731" stop-color="#FFFFFE"/>
<stop offset="0.8157" stop-color="#F8F2E6"/>
<stop offset="1" stop-color="#F5EBDA"/>
</linearGradient>
<linearGradient id="paint1_linear_14_780" x1="21.0859" y1="77.7267" x2="140.863" y2="77.7267" gradientUnits="userSpaceOnUse">
<stop stop-color="#FF9C45"/>
<stop offset="0.332" stop-color="#FFCD6C"/>
<stop offset="0.4941" stop-color="#FFC554"/>
<stop offset="0.7179" stop-color="#FF9F46"/>
<stop offset="0.8694" stop-color="#FF9C45"/>
</linearGradient>
<linearGradient id="paint2_linear_14_780" x1="35.9267" y1="77.7274" x2="126.022" y2="77.7274" gradientUnits="userSpaceOnUse">
<stop stop-color="#F8F3E8"/>
<stop offset="0.4731" stop-color="#FFFFFE"/>
<stop offset="0.8157" stop-color="#F8F2E6"/>
<stop offset="1" stop-color="#F5EBDA"/>
</linearGradient>
<radialGradient id="paint3_radial_14_780" cx="0" cy="0" r="1" gradientUnits="userSpaceOnUse" gradientTransform="translate(54.2544 82.1633) scale(68.1134 68.3501)">
<stop offset="0.3484" stop-color="white"/>
<stop offset="0.3821" stop-color="#FAF9F6"/>
<stop offset="0.4724" stop-color="#F1ECE4"/>
<stop offset="0.5361" stop-color="#EDE7DD"/>
<stop offset="1" stop-color="#EDE8DF"/>
</radialGradient>
<clipPath id="clip0_14_780">
<rect width="154" height="162" fill="white"/>
</clipPath>
</defs>
</svg>
