<svg width="79" height="79" viewBox="0 0 79 79" fill="none" xmlns="http://www.w3.org/2000/svg">
<mask id="mask0_676_195" style="mask-type:luminance" maskUnits="userSpaceOnUse" x="0" y="0" width="79" height="79">
<path d="M0 -2.28882e-05H79V79H0V-2.28882e-05Z" fill="white"/>
</mask>
<g mask="url(#mask0_676_195)">
<path d="M9.436 12.4195C9.436 13.0645 8.91309 13.5874 8.26813 13.5874C7.62301 13.5874 7.1001 13.0645 7.1001 12.4195C7.1001 11.7744 7.62301 11.2517 8.26813 11.2517C8.91309 11.2517 9.436 11.7744 9.436 12.4195Z" fill="black"/>
<path d="M14.5268 12.4195C14.5268 13.0645 14.0039 13.5874 13.3589 13.5874C12.7138 13.5874 12.1909 13.0645 12.1909 12.4195C12.1909 11.7744 12.7138 11.2517 13.3589 11.2517C14.0039 11.2517 14.5268 11.7744 14.5268 12.4195Z" fill="black"/>
<path d="M19.6176 12.4195C19.6176 13.0645 19.0947 13.5874 18.4498 13.5874C17.8047 13.5874 17.2817 13.0645 17.2817 12.4195C17.2817 11.7744 17.8047 11.2517 18.4498 11.2517C19.0947 11.2517 19.6176 11.7744 19.6176 12.4195Z" fill="black"/>
<path d="M1.15723 16.7549H71.6512" stroke="#273B98" stroke-width="2" stroke-miterlimit="10" stroke-linecap="round" stroke-linejoin="round"/>
<path d="M71.6512 34.5803V10.576C71.6512 9.19967 70.5356 8.08395 69.1593 8.08395H3.64913C2.2728 8.08395 1.15723 9.19967 1.15723 10.576V54.6079C1.15723 55.984 2.2728 57.0996 3.64913 57.0996H47.4395" stroke="#273B98" stroke-width="2" stroke-miterlimit="10" stroke-linecap="round" stroke-linejoin="round"/>
<path d="M75.706 48.3934C75.6969 48.3934 75.6879 48.3934 75.679 48.3933C75.2809 48.3887 74.9378 48.1168 74.8177 47.7371C74.6094 47.0787 74.3449 46.4451 74.0306 45.8417C73.8464 45.488 73.8964 45.0528 74.1749 44.7672C74.1817 44.7602 74.1885 44.7533 74.1953 44.7463C75.0297 43.912 75.0297 42.5593 74.1953 41.725L73.0746 40.6044C72.2403 39.7699 70.8876 39.7699 70.0533 40.6044C70.0464 40.6112 70.0394 40.618 70.0325 40.6247C69.7469 40.9032 69.3118 40.9534 68.9581 40.7692C68.3545 40.4547 67.7211 40.1904 67.0626 39.9819C66.6829 39.8621 66.4112 39.5189 66.4064 39.1207C66.4064 39.1117 66.4062 39.1028 66.4062 39.0938C66.4062 37.9137 65.4497 36.9573 64.2698 36.9573H62.6849C61.505 36.9573 60.5485 37.9137 60.5485 39.0938C60.5485 39.1028 60.5485 39.1117 60.5483 39.1207C60.5435 39.5189 60.2717 39.8621 59.8921 39.9819C59.2336 40.1904 58.6 40.4549 57.9967 40.7692C57.6431 40.9534 57.2078 40.9032 56.9222 40.6247C56.9153 40.618 56.9083 40.6112 56.9014 40.6044C56.0671 39.7699 54.7144 39.7699 53.8801 40.6044L52.7593 41.725C51.925 42.5593 51.925 43.912 52.7594 44.7463C52.7662 44.7533 52.7732 44.7602 52.7798 44.7672C53.0581 45.0528 53.1083 45.488 52.9241 45.8417C52.6098 46.4451 52.3453 47.0787 52.1371 47.7371C52.0169 48.1166 51.6741 48.3887 51.276 48.3933C51.2674 48.3934 51.2586 48.3934 51.2498 48.3934C50.0736 48.3941 49.1123 49.295 49.1123 50.471V52.1737C49.1123 53.3498 50.0736 54.2507 51.2498 54.2513C51.2586 54.2513 51.2674 54.2513 51.276 54.2515C51.6741 54.2561 52.0169 54.5281 52.1371 54.9077C52.3453 55.5661 52.6098 56.1996 52.9241 56.8031C53.1083 57.1567 53.0581 57.592 52.7798 57.8776C52.7732 57.8846 52.7662 57.8915 52.7594 57.8984C51.925 58.7327 51.925 60.0853 52.7594 60.9197L53.8801 62.0404C54.7144 62.8748 56.0671 62.8748 56.9014 62.0404C56.9083 62.0334 56.9153 62.0267 56.9222 62.0199C57.2076 61.7415 57.6429 61.6914 57.9967 61.8756C58.6 62.1899 59.2336 62.4544 59.8921 62.6627C60.2717 62.7827 60.5435 63.1257 60.5483 63.5241C60.5485 63.5331 60.5485 63.542 60.5485 63.551C60.5485 64.731 61.505 65.6875 62.6849 65.6875H64.2698C65.4497 65.6875 66.4062 64.731 66.4062 63.551C66.4062 63.542 66.4064 63.5331 66.4064 63.5241C66.4112 63.1257 66.6829 62.7827 67.0626 62.6627C67.7211 62.4544 68.3545 62.1901 68.9581 61.8756C69.3118 61.6914 69.7469 61.7415 70.0325 62.0199C70.0394 62.0267 70.0464 62.0334 70.0533 62.0404C70.8876 62.8748 72.2403 62.8748 73.0746 62.0404L74.1953 60.9197C75.0297 60.0853 75.0297 58.7327 74.1953 57.8984C74.1885 57.8915 74.1817 57.8846 74.1749 57.8776C73.8964 57.592 73.8464 57.1567 74.0306 56.8031C74.3449 56.1996 74.6094 55.5661 74.8177 54.9077C74.9378 54.528 75.2809 54.2561 75.679 54.2515C75.6879 54.2513 75.6969 54.2513 75.706 54.2513C76.8859 54.2513 77.8424 53.2948 77.8424 52.1148V50.53C77.8424 49.3499 76.8859 48.3934 75.706 48.3934Z" stroke="#273B98" stroke-width="2" stroke-miterlimit="10" stroke-linecap="round" stroke-linejoin="round"/>
<path d="M70.4649 51.324C70.4649 55.1832 67.3365 58.3115 63.4774 58.3115C59.6183 58.3115 56.4897 55.1832 56.4897 51.324C56.4897 47.4649 59.6183 44.3365 63.4774 44.3365C67.3365 44.3365 70.4649 47.4649 70.4649 51.324Z" stroke="#273B98" stroke-width="2" stroke-miterlimit="10" stroke-linecap="round" stroke-linejoin="round"/>
<path d="M48.4514 70.917H24.3563C23.2547 70.917 22.3618 70.0241 22.3618 68.9224C22.3618 66.4655 24.3535 64.4739 26.8105 64.4739H45.9973C48.4542 64.4739 50.4459 66.4655 50.4459 68.9224C50.4459 70.0241 49.5529 70.917 48.4514 70.917Z" stroke="#273B98" stroke-width="2" stroke-miterlimit="10" stroke-linecap="round" stroke-linejoin="round"/>
<path d="M30.1761 57.0988L28.7051 64.4727" stroke="#273B98" stroke-width="2" stroke-miterlimit="10" stroke-linecap="round" stroke-linejoin="round"/>
<path d="M44.1034 64.4727L42.6323 57.0988" stroke="#273B98" stroke-width="2" stroke-miterlimit="10" stroke-linecap="round" stroke-linejoin="round"/>
<path d="M41.8735 32.3336V22.3208C41.8735 21.9707 41.5896 21.6868 41.2394 21.6868H7.73426C7.384 21.6868 7.1001 21.9707 7.1001 22.3208V32.3336C7.1001 32.6839 7.384 32.9678 7.73426 32.9678H41.2394C41.5896 32.9678 41.8735 32.6839 41.8735 32.3336Z" stroke="#273B98" stroke-width="2" stroke-miterlimit="10" stroke-linecap="round" stroke-linejoin="round"/>
<path d="M15.1643 39.4983H7.73426C7.38416 39.4983 7.1001 39.7824 7.1001 40.1325V50.1453C7.1001 50.4954 7.38416 50.7793 7.73426 50.7793H15.1643C15.5145 50.7793 15.7984 50.4954 15.7984 50.1453V40.1325C15.7984 39.7824 15.5145 39.4983 15.1643 39.4983Z" stroke="#273B98" stroke-width="2" stroke-miterlimit="10" stroke-linecap="round" stroke-linejoin="round"/>
<path d="M20.9585 40.1325V50.1453C20.9585 50.4954 21.2424 50.7793 21.5927 50.7793H41.2399C41.5902 50.7793 41.8741 50.4954 41.8741 50.1453V40.1325C41.8741 39.7822 41.5902 39.4983 41.2399 39.4983H21.5927C21.2424 39.4983 20.9585 39.7822 20.9585 40.1325Z" stroke="#273B98" stroke-width="2" stroke-miterlimit="10" stroke-linecap="round" stroke-linejoin="round"/>
</g>
</svg>
