<svg width="77" height="77" viewBox="0 0 77 77" fill="none" xmlns="http://www.w3.org/2000/svg">
<mask id="mask0_676_228" style="mask-type:luminance" maskUnits="userSpaceOnUse" x="0" y="0" width="77" height="77">
<path d="M0 -1.52588e-05H77V77H0V-1.52588e-05Z" fill="white"/>
</mask>
<g mask="url(#mask0_676_228)">
<path d="M29.2757 61.11C29.4736 63.8868 31.7653 66.1099 34.5468 66.229C36.0707 66.2943 37.4631 65.7422 38.4998 64.8032V75.4961H13.8454C11.5895 75.4961 9.76074 73.6673 9.76074 71.4113V46.757H38.4998V56.6066C37.5185 55.7187 36.2182 55.1767 34.7895 55.1767C31.6029 55.1767 29.045 57.8742 29.2757 61.11Z" stroke="#34479E" stroke-width="2" stroke-miterlimit="10" stroke-linecap="round" stroke-linejoin="round"/>
<path d="M59.2765 75.4951H63.1549C65.4108 75.4951 67.2396 73.6664 67.2396 71.4105V46.7561H57.1891C57.9361 45.7534 58.3516 44.4894 58.2722 43.1258C58.1122 40.3744 55.8944 38.1304 53.1448 37.9411C49.9144 37.7188 47.2247 40.2733 47.2247 43.4562C47.2247 44.6932 47.631 45.8349 48.3174 46.7561H38.5007V56.6061C37.461 55.6645 36.0618 55.1127 34.5335 55.1819C31.7525 55.3077 29.4665 57.5358 29.2752 60.3129C29.0527 63.5433 31.6075 66.233 34.7904 66.233C36.2182 66.233 37.5195 65.6915 38.5007 64.8028V75.4951H45.988" stroke="#34479E" stroke-width="2" stroke-miterlimit="10" stroke-linecap="round" stroke-linejoin="round"/>
<path d="M41.388 2.69958L58.8211 20.1327L51.7146 27.2391C51.5331 26.0032 50.9335 24.8166 49.9146 23.9087C47.8574 22.0755 44.7028 22.055 42.6238 23.8636C40.1796 25.9897 40.0832 29.7004 42.3344 31.9518C43.2091 32.8263 44.3038 33.3466 45.441 33.5127L38.4996 40.4541L31.2496 33.2042C31.1845 34.5259 30.6479 35.8281 29.6387 36.8372C27.479 38.997 23.971 38.9919 21.8052 36.8261C19.6394 34.6603 19.6345 31.1523 21.7941 28.9927C22.8032 27.9836 24.1056 27.447 25.4283 27.3827L18.1782 20.1327L35.6114 2.69958C37.2064 1.10454 39.7928 1.10454 41.388 2.69958Z" stroke="#34479E" stroke-width="2" stroke-miterlimit="10" stroke-linecap="round" stroke-linejoin="round"/>
</g>
</svg>
