<svg width="59" height="59" viewBox="0 0 59 59" fill="none" xmlns="http://www.w3.org/2000/svg">
<mask id="mask0_676_152" style="mask-type:luminance" maskUnits="userSpaceOnUse" x="0" y="0" width="59" height="59">
<path d="M0 -7.62939e-06H59V59H0V-7.62939e-06Z" fill="white"/>
</mask>
<g mask="url(#mask0_676_152)">
<path d="M21.2373 45.5405V41.1699C21.2373 39.6348 23.0862 38.2857 25.3239 37.5214M33.4247 37.4397C35.7699 38.1875 37.7626 39.576 37.7626 41.1699V45.5405" stroke="#273B98" stroke-width="2" stroke-miterlimit="10" stroke-linecap="round" stroke-linejoin="round"/>
<path d="M12.5776 57.1948H46.4185V50.4527H12.5776V57.1948Z" stroke="#273B98" stroke-width="2" stroke-miterlimit="10" stroke-linecap="round" stroke-linejoin="round"/>
<path d="M0.864258 47.4542V41.6268C0.864258 40.0229 2.05981 38.6803 3.60488 38.4517M12.5778 48.5093V57.1948H0.864258V51.3674" stroke="#273B98" stroke-width="2" stroke-miterlimit="10" stroke-linecap="round" stroke-linejoin="round"/>
<path d="M58.136 47.4542V41.6268C58.136 40.0425 56.9697 38.7164 55.4541 38.4616M46.4189 48.5093V57.1948H58.136V51.3674" stroke="#273B98" stroke-width="2" stroke-miterlimit="10" stroke-linecap="round" stroke-linejoin="round"/>
<path d="M9.90612 38.4189C10.641 38.4255 11.3661 38.762 11.8431 39.3923L16.4846 45.5398H22.4362C23.7919 45.5398 24.8927 46.6407 24.8927 47.9962C24.8927 49.3551 23.7919 50.4526 22.4362 50.4526H15.2664C14.5247 50.4526 13.7899 50.1129 13.3096 49.476L9.47803 44.4031" stroke="#273B98" stroke-width="2" stroke-miterlimit="10" stroke-linecap="round" stroke-linejoin="round"/>
<path d="M49.2245 38.4189C48.4438 38.3863 47.6598 38.7228 47.1536 39.3923L42.5119 45.5398H36.5636C35.2048 45.5398 34.104 46.6407 34.104 47.9962C34.104 49.3551 35.2048 50.4526 36.5636 50.4526H43.7303C44.4751 50.4526 45.2068 50.1129 45.6902 49.476L49.5184 44.4031" stroke="#273B98" stroke-width="2" stroke-miterlimit="10" stroke-linecap="round" stroke-linejoin="round"/>
<path d="M9.88298 20.2382H24.6868C27.094 20.2382 29.0639 18.2686 29.0639 15.8612V6.1794C29.0639 3.77526 27.094 1.80544 24.6868 1.80544H5.71495C3.30736 1.80544 1.33789 3.77526 1.33789 6.1794V15.8612C1.33789 18.2686 3.30736 20.2382 5.71495 20.2382V24.4062L9.88298 20.2382Z" stroke="#273B98" stroke-width="2" stroke-miterlimit="10" stroke-linecap="round" stroke-linejoin="round"/>
<path d="M35.3587 23.5634H40.438L44.606 27.7314V23.5634C46.4189 23.5634 47.902 22.0771 47.902 20.2641V11.9412C47.902 10.1282 46.4189 8.64529 44.606 8.64529H29.0643M23.0669 20.2381C23.0669 22.0674 24.5303 23.5634 26.3659 23.5634H31.4455" stroke="#273B98" stroke-width="2" stroke-miterlimit="10" stroke-linecap="round" stroke-linejoin="round"/>
<path d="M7.20117 11.0201H23.2005M7.20117 15.5669H15.201M7.20117 6.47306H23.2005" stroke="#273B98" stroke-width="2" stroke-miterlimit="10" stroke-linecap="round" stroke-linejoin="round"/>
<path d="M34.0058 34.8882C34.0058 37.4524 31.9054 39.5527 29.3412 39.5527C26.7771 39.5527 24.6768 37.4524 24.6768 34.8882V29.8903C24.6768 28.4532 25.8527 27.2804 27.29 27.2804H34.0058V34.8882Z" stroke="#273B98" stroke-width="2" stroke-miterlimit="10" stroke-linecap="round" stroke-linejoin="round"/>
<path d="M2.05664 34.8882C2.05664 37.4524 4.15702 39.5527 6.72121 39.5527C9.28529 39.5527 11.3857 37.4524 11.3857 34.8882V29.8903C11.3857 28.4532 10.2097 27.2804 8.77584 27.2804H4.66647C3.23261 27.2804 2.05664 28.4532 2.05664 29.8903V34.8882Z" stroke="#273B98" stroke-width="2" stroke-miterlimit="10" stroke-linecap="round" stroke-linejoin="round"/>
<path d="M56.9402 34.8882C56.9402 37.4524 54.843 39.5527 52.2788 39.5527C49.7115 39.5527 47.6143 37.4524 47.6143 34.8882V29.8903C47.6143 28.4532 48.7869 27.2804 50.2242 27.2804H54.3303C55.7673 27.2804 56.9402 28.4532 56.9402 29.8903V34.8882Z" stroke="#273B98" stroke-width="2" stroke-miterlimit="10" stroke-linecap="round" stroke-linejoin="round"/>
<path d="M2.05664 35.0516C6.53165 36.4268 7.6424 33.6044 7.77284 31.024C7.77284 31.024 9.32136 32.4709 11.3857 31.7067" stroke="#273B98" stroke-width="2" stroke-miterlimit="10" stroke-linecap="round" stroke-linejoin="round"/>
<path d="M56.9402 35.0516C52.4649 36.4268 51.3544 33.6044 51.2271 31.024C51.2271 31.024 49.6755 32.4709 47.6143 31.7067" stroke="#273B98" stroke-width="2" stroke-miterlimit="10" stroke-linecap="round" stroke-linejoin="round"/>
<path d="M24.6768 31.396H34.0058" stroke="#273B98" stroke-width="2" stroke-miterlimit="10" stroke-linecap="round" stroke-linejoin="round"/>
</g>
</svg>
