<svg width="57" height="50" viewBox="0 0 57 50" fill="none" xmlns="http://www.w3.org/2000/svg">
<path d="M39.3569 42.6817C39.1844 42.6817 39.0138 42.6454 38.8562 42.5752C38.6986 42.5051 38.5575 42.4025 38.4421 42.2743L35.6443 39.1656C35.4272 38.9228 35.3152 38.6038 35.3329 38.2786C35.3505 37.9534 35.4964 37.6484 35.7385 37.4305C35.9806 37.2126 36.2992 37.0996 36.6245 37.1162C36.9498 37.1328 37.2552 37.2776 37.4739 37.519L39.3265 39.5773L47.5864 29.7774C47.6906 29.6539 47.8181 29.552 47.9616 29.4777C48.1051 29.4034 48.2619 29.358 48.4229 29.3443C48.584 29.3306 48.7461 29.3487 48.9002 29.3976C49.0542 29.4465 49.1971 29.5253 49.3207 29.6295C49.4443 29.7337 49.5461 29.8612 49.6205 30.0047C49.6948 30.1482 49.7401 30.305 49.7538 30.466C49.7676 30.627 49.7495 30.7892 49.7005 30.9433C49.6516 31.0973 49.5728 31.2402 49.4686 31.3638L40.298 42.2438C40.1847 42.3783 40.0438 42.487 39.8849 42.5624C39.726 42.6379 39.5528 42.6785 39.3769 42.6813L39.3569 42.6817Z" fill="#273B98"/>
<path d="M50.8121 25.2464L54.4503 18.2691C54.6933 17.7991 54.8112 17.2745 54.7928 16.7458C54.7744 16.217 54.6202 15.702 54.3451 15.25C54.07 14.7981 53.6833 14.4246 53.222 14.1654C52.7608 13.9062 52.2407 13.7701 51.7116 13.7701H47.383V10.1742C47.3819 9.21483 47.0003 8.29513 46.3219 7.61678C45.6436 6.93843 44.7239 6.55684 43.7646 6.5557H25.7081L19.7129 1.20678C18.8948 0.430131 17.8092 -0.00197699 16.6812 6.80049e-06H4.41108C3.24164 0.00134224 2.12048 0.466474 1.29354 1.29337C0.466595 2.12026 0.0014007 3.2414 0 4.41084V41.1255H0.00184608C0.00134331 41.2872 0.0327739 41.4473 0.0943322 41.5967C0.15589 41.7461 0.246364 41.8819 0.360556 41.9963C0.474748 42.1107 0.610409 42.2013 0.759746 42.2631C0.909084 42.3249 1.06916 42.3566 1.23077 42.3563H30.5406C31.488 44.1507 32.8256 45.7098 34.455 46.9192C36.0843 48.1285 37.9641 48.9572 39.9559 49.3444C41.9478 49.7316 44.0011 49.6674 45.9648 49.1565C47.9286 48.6456 49.7528 47.701 51.3035 46.3922C52.8541 45.0834 54.0916 43.4437 54.9251 41.5937C55.7585 39.7436 56.1667 37.7303 56.1196 35.7017C56.0724 33.6731 55.5712 31.6809 54.6527 29.8715C53.7342 28.0622 52.4218 26.4817 50.8121 25.2464ZM2.46154 4.41084C2.46212 3.89397 2.66771 3.39844 3.03319 3.03295C3.39868 2.66747 3.89421 2.46189 4.41108 2.4613H16.6818C17.1839 2.46045 17.6667 2.6541 18.029 3.00161C18.0393 3.01133 18.0496 3.02093 18.0602 3.03028L24.4202 8.70413L24.421 8.70302C24.6458 8.90493 24.9374 9.01658 25.2395 9.0165H43.7642C44.0709 9.01692 44.3649 9.13895 44.5818 9.35582C44.7987 9.5727 44.9207 9.86672 44.9211 10.1734V13.7694H11.1729C10.5237 13.7684 9.89079 13.9729 9.36481 14.3535C8.83882 14.7341 8.4467 15.2713 8.24455 15.8883L2.46154 33.4522V4.41084ZM2.93182 39.8948L10.5825 16.659C10.6233 16.5345 10.7024 16.4261 10.8085 16.3494C10.9146 16.2726 11.0423 16.2314 11.1733 16.2316H51.7116C51.8179 16.2317 51.9224 16.259 52.0151 16.3109C52.1078 16.3628 52.1856 16.4376 52.2412 16.5282C52.2967 16.6188 52.3281 16.7221 52.3324 16.8283C52.3366 16.9344 52.3136 17.0399 52.2655 17.1347L48.7262 23.9221C46.3583 22.7112 43.687 22.2222 41.0438 22.5159C38.4006 22.8096 35.9017 23.8729 33.8574 25.574C31.8131 27.275 30.3133 29.539 29.5441 32.0848C28.7748 34.6306 28.7701 37.3463 29.5305 39.8948H2.93182ZM42.5434 47.1289C40.3444 47.1289 38.1948 46.4768 36.3664 45.2552C34.5379 44.0335 33.1129 42.297 32.2713 40.2654C31.4298 38.2338 31.2096 35.9983 31.6386 33.8416C32.0676 31.6848 33.1265 29.7037 34.6815 28.1488C36.2364 26.5939 38.2175 25.5349 40.3742 25.1059C42.531 24.6769 44.7665 24.8971 46.7981 25.7387C48.8297 26.5802 50.5661 28.0053 51.7878 29.8337C53.0095 31.6621 53.6616 33.8117 53.6615 36.0107C53.6582 38.9584 52.4857 41.7844 50.4014 43.8687C48.3171 45.9531 45.4911 47.1255 42.5434 47.1289Z" fill="#273B98"/>
</svg>
